<svg width="14" height="14" viewBox="0 0 14 14" fill="none" xmlns="http://www.w3.org/2000/svg">
<path d="M6.25754 4.67211L1.16699 6.70833V10.2083H12.8337V6.70833L7.74311 4.67211C7.26628 4.48138 6.73437 4.48138 6.25754 4.67211Z" fill="#3C3E42"/>
<path fill-rule="evenodd" clip-rule="evenodd" d="M7 2.04159C7.32217 2.04159 7.58333 1.78042 7.58333 1.45825H11.25C11.8023 1.45825 12.25 1.90597 12.25 2.45825V8.62492C12.25 9.1772 11.8023 9.62492 11.25 9.62492H2.75C2.19772 9.62492 1.75 9.1772 1.75 8.62492V2.45825C1.75 1.90597 2.19772 1.45825 2.75 1.45825H6.41667C6.41667 1.78042 6.67783 2.04159 7 2.04159Z" fill="#9564F4"/>
<path fill-rule="evenodd" clip-rule="evenodd" d="M9.4784 3.51421C9.66712 3.5678 9.7746 3.75726 9.71845 3.93738L8.65791 7.34008C8.61513 7.47733 8.48691 7.57433 8.33715 7.58274C8.18739 7.59116 8.04813 7.50919 7.98878 7.37768L6.99983 5.18652L6.01088 7.37768C5.95153 7.50919 5.81226 7.59116 5.6625 7.58274C5.51273 7.57432 5.38452 7.47731 5.34175 7.34006L4.28149 3.93736C4.22536 3.75723 4.33285 3.56778 4.52157 3.51421C4.7103 3.46064 4.90879 3.56323 4.96492 3.74336L5.74496 6.24675L6.67241 4.19184C6.72874 4.06704 6.85746 3.98619 6.99983 3.98619C7.1422 3.98619 7.27092 4.06704 7.32725 4.19184L8.25475 6.24685L9.03504 3.74334C9.09118 3.56321 9.28968 3.46063 9.4784 3.51421Z" fill="white"/>
<path fill-rule="evenodd" clip-rule="evenodd" d="M3.79199 5.54169C3.79199 5.35376 3.95161 5.20142 4.1485 5.20142L5.09921 5.20142C5.2961 5.20142 5.45571 5.35376 5.45571 5.54169C5.45571 5.72961 5.2961 5.88196 5.09921 5.88196L4.1485 5.88196C3.95161 5.88196 3.79199 5.72961 3.79199 5.54169Z" fill="white"/>
<path fill-rule="evenodd" clip-rule="evenodd" d="M8.54492 5.54169C8.54492 5.35376 8.70454 5.20142 8.90143 5.20142L9.85214 5.20142C10.049 5.20142 10.2086 5.35376 10.2086 5.54169C10.2086 5.72961 10.049 5.88196 9.85214 5.88196L8.90143 5.88196C8.70454 5.88196 8.54492 5.72961 8.54492 5.54169Z" fill="white"/>
<path d="M1.16699 11.5416V6.70825L9.0448 10.6472C9.98863 11.1191 9.65281 12.5416 8.59759 12.5416H2.16699C1.61471 12.5416 1.16699 12.0939 1.16699 11.5416Z" fill="#BEC0C4"/>
<path d="M7.00033 9.625L1.791 12.2297C1.68762 12.2814 1.59354 12.1456 1.67824 12.0669L5.25033 8.75L7.00033 9.625Z" fill="url(#paint0_linear_3000_11463)"/>
<path d="M11.8337 12.5416H2.01421C1.80316 12.5416 1.736 12.2571 1.92476 12.1627L12.8337 6.70825V11.5416C12.8337 12.0939 12.3859 12.5416 11.8337 12.5416Z" fill="url(#paint1_linear_3000_11463)"/>
<defs>
<linearGradient id="paint0_linear_3000_11463" x1="5.83366" y1="9.275" x2="2.54943" y2="11.8013" gradientUnits="userSpaceOnUse">
<stop stop-color="#96989C"/>
<stop offset="1" stop-color="#96989C" stop-opacity="0"/>
</linearGradient>
<linearGradient id="paint1_linear_3000_11463" x1="7.58366" y1="10.7916" x2="1.75033" y2="12.5416" gradientUnits="userSpaceOnUse">
<stop stop-color="#E7E9EC"/>
<stop offset="1" stop-color="#E7E9EC" stop-opacity="0"/>
</linearGradient>
</defs>
</svg>
