<svg width="44" height="44" viewBox="0 0 44 44" fill="none" xmlns="http://www.w3.org/2000/svg">
<g id="&#236;&#132;&#156;&#235;&#185;&#132;&#236;&#138;&#164;/3D">
<path id="Union" fill-rule="evenodd" clip-rule="evenodd" d="M23.5185 40.0284C22.7203 40.9596 21.2797 40.9596 20.4815 40.0284L16.3429 35.2001H8.20002C4.88631 35.2001 2.20001 32.5138 2.20001 29.2001L2.20001 12.6001C2.20001 9.28635 4.8863 6.60005 8.20001 6.60005L35.8 6.60005C39.1137 6.60005 41.8 9.28634 41.8 12.6001V29.2C41.8 32.5138 39.1137 35.2001 35.8 35.2001L27.6571 35.2001L23.5185 40.0284Z" fill="#3C3E42"/>
<g id="Mask group" opacity="0.2">
<mask id="mask0_1177_127262" style="mask-type:alpha" maskUnits="userSpaceOnUse" x="3" y="7" width="38" height="33">
<path id="Union_2" fill-rule="evenodd" clip-rule="evenodd" d="M23.5185 39.1729C22.7203 40.1041 21.2796 40.1041 20.4814 39.1729L16.657 34.711H8.29998C5.53856 34.711 3.29999 32.4725 3.29999 29.711L3.29999 12.6999C3.29999 9.93849 5.53856 7.69991 8.29999 7.69991L35.7 7.69991C38.4614 7.69991 40.7 9.93849 40.7 12.6999V29.711C40.7 32.4725 38.4614 34.711 35.7 34.711H27.3429L23.5185 39.1729Z" fill="#3C3E42"/>
</mask>
<g mask="url(#mask0_1177_127262)">
<path id="Vector 3011" d="M43.1292 29.6082C15.2992 25.1716 5.65286 10.9541 4.30841 4.3999H43.1292V29.6082Z" fill="white"/>
</g>
</g>
<g id="Etc/Star">
<path id="Star 1" d="M35.3309 10.5023C35.4948 10.1731 35.9685 10.1731 36.1325 10.5023L36.6785 11.5987C36.7436 11.7294 36.8695 11.82 37.015 11.841L38.236 12.0168C38.6026 12.0696 38.749 12.516 38.4837 12.7723L37.6002 13.6257C37.4949 13.7275 37.4468 13.8741 37.4717 14.0178L37.6802 15.2229C37.7429 15.5847 37.3596 15.8606 37.0317 15.6898L35.9397 15.1208C35.8095 15.053 35.6539 15.053 35.5237 15.1208L34.4316 15.6898C34.1037 15.8606 33.7205 15.5847 33.7831 15.2229L33.9917 14.0178C34.0166 13.8741 33.9685 13.7275 33.8632 13.6257L32.9796 12.7723C32.7144 12.516 32.8607 12.0696 33.2273 12.0168L34.4483 11.841C34.5939 11.82 34.7197 11.7294 34.7848 11.5987L35.3309 10.5023Z" fill="#CAB2F9"/>
</g>
<g id="&#235;&#166;&#172;&#235;&#183;&#176;">
<path id="Vector" d="M33.4096 21.5439V22.9454H30.8515V26.9186H29.1098V22.9454H26.4021V26.9186H24.6196V22.9454H22.0751V21.5439H33.4096ZM25.1231 14.999V16.3733H30.3208V14.999H32.0625V20.3737H23.4086V14.999H25.1231ZM25.1231 18.9994H30.3208V17.734H25.1231V18.9994Z" fill="white"/>
<path id="Vector_2" d="M20.986 14.5364V26.9458H19.258V14.5364H20.986ZM17.1489 15.5705V20.3465H13.0669V22.6188C14.9514 22.612 16.557 22.5031 18.3735 22.2106L18.5232 23.6121C16.4822 23.9659 14.6453 24.0475 12.3866 24.0475H11.2708V18.9722H15.3801V16.972H11.2572V15.5705H17.1489Z" fill="white"/>
</g>
</g>
</svg>
