<svg width="40" height="40" viewBox="0 0 40 40" fill="none" xmlns="http://www.w3.org/2000/svg">
<g clip-path="url(#clip0_4_163218)">
<g clip-path="url(#clip1_4_163218)">
<path d="M14.2039 39.3597L9.16524 36.3125C8.78322 36.0792 8.53952 35.585 8.53952 34.8781L13.5782 37.9253C13.5782 38.6322 13.8219 39.1264 14.2039 39.3597Z" fill="#343249"/>
<mask id="mask0_4_163218" style="mask-type:luminance" maskUnits="userSpaceOnUse" x="8" y="34" width="7" height="6">
<path d="M14.2039 39.3597L9.16524 36.3125C8.78322 36.0792 8.53952 35.585 8.53952 34.8781L13.5782 37.9253C13.5782 38.6322 13.8219 39.1264 14.2039 39.3597Z" fill="white"/>
</mask>
<g mask="url(#mask0_4_163218)">
<path d="M14.2039 39.3597L9.16524 36.3125C8.78322 36.0792 8.53952 35.585 8.53952 34.8781L13.5782 37.9253C13.5782 38.6322 13.8219 39.1264 14.2039 39.3597Z" fill="#232C33"/>
</g>
<path d="M13.5782 37.9253L8.53952 34.8781L8.5 20.2529L13.5387 23.307L13.5782 37.9253Z" fill="#232C33"/>
<path d="M19.0515 9.49849L14.5859 6.79444L25.6512 8.27L30.1168 10.9741L19.0515 9.49849Z" fill="#323A49"/>
<path d="M13.5387 23.307L8.5 20.2529L9.34307 9.95145L13.8087 12.6555L13.5387 23.307Z" fill="#28323D"/>
<path d="M13.8087 12.6555L9.34306 9.95146L14.5859 6.79444L19.0515 9.49849L13.8087 12.6555Z" fill="#323A49"/>
<path d="M19.0515 9.49849L30.1168 10.9741L31.4605 13.8909L31.4934 27.1435C31.4934 28.5641 30.5384 30.2867 29.3594 31.0005L15.7254 39.2019C14.5398 39.9156 13.5782 39.3391 13.5716 37.9253L13.5321 23.307L13.8087 12.6555L19.0515 9.50536V9.49849Z" fill="#28323D"/>
<path d="M13.5387 23.307L16.1667 23.6639L16.3906 14.4742L13.8087 12.6555L13.5387 23.307Z" fill="#2F3842"/>
<path d="M16.1667 24.1923L16.3906 14.4811L20.4347 12.0516L30.0576 13.335L30.9402 15.0644L30.9731 28.0013C30.9731 28.8318 30.321 30.0122 29.6229 30.4309L17.1612 37.9253C16.7331 38.1793 16.1996 37.8636 16.1996 37.3488L16.1667 24.1992V24.1923Z" fill="#232C33"/>
<path d="M17.7013 24.2061L17.8923 16.0047C17.8989 15.6409 18.0899 15.3047 18.3995 15.1193L20.382 13.9252C20.6257 13.781 20.9024 13.7193 21.1856 13.7605L28.7666 14.7693C28.9642 14.7968 29.1355 14.9203 29.2277 15.0988L29.4121 15.4556L29.445 27.0268C29.445 28.0494 28.9247 29.0033 28.0684 29.5112L18.4588 35.2899C18.136 35.4821 17.7408 35.2419 17.7343 34.8575L17.7079 24.1992L17.7013 24.2061Z" fill="#FEC017"/>
<path d="M27.0541 9.93087L24.7357 8.5308L24.4788 3.89823L26.7972 5.30516L27.0541 9.93087Z" fill="#1A2326"/>
<path d="M21.6466 1.40007L19.3282 0L26.6128 1.09809L28.9313 2.50502L21.6466 1.40007Z" fill="#28323D"/>
<path d="M17.1151 9.04553L14.7967 7.6386L16.9636 1.42066L19.2821 2.82759L17.1151 9.04553Z" fill="#2D3640"/>
<path d="M19.2821 2.82759L16.9636 1.42066L19.3282 0L21.6466 1.40007L19.2821 2.82759Z" fill="#38404A"/>
<path d="M21.6466 1.40007L28.9313 2.50502L29.333 10.5005L28.7732 10.1573L27.0541 9.93087L26.7972 5.30516L21.8244 4.55022L20.3359 5.44928L19.1503 8.88082L17.7079 8.68865L17.1151 9.04553L19.2821 2.82759L21.6466 1.40007Z" fill="#28323D"/>
<path d="M20.27 3.54821L18.5641 8.44844L18.4456 8.78473L17.7079 8.68865L17.1151 9.04553L19.2821 2.82759L20.27 3.54821Z" fill="#2F3842"/>
<path d="M28.1211 9.71811L27.8643 5.09926L22.2394 4.2551L20.3952 5.36006L19.1503 8.88082L18.4192 8.78473L20.27 3.54821L22.2855 2.34031L28.9115 3.33545L29.2408 9.8691L28.1211 9.71811Z" fill="#232C33"/>
<path d="M19.2821 2.82759L20.27 3.54821L22.2855 2.34031L21.6466 1.40007L19.2821 2.82759Z" fill="#38404A"/>
<path d="M28.9115 3.33545L28.9313 2.50502L21.6466 1.40007L22.2855 2.34031L28.9115 3.33545Z" fill="#2F3842"/>
<path d="M17.1349 9.97205C17.1349 9.45045 16.8121 8.922 16.1601 8.51707V7.08269C16.8056 7.48761 17.1283 8.00921 17.1283 8.53766V9.97205H17.1349Z" fill="#343249"/>
<path d="M16.1601 8.51707C17.4971 9.35437 17.451 10.6858 16.0547 11.4956C14.6649 12.3055 12.4519 12.278 11.1214 11.4407C9.78436 10.6034 9.83047 9.27201 11.2268 8.46217C12.6165 7.65233 14.8296 7.67978 16.1601 8.51707Z" fill="#343249"/>
<path d="M10.1466 8.55825C10.1466 8.00234 10.5023 7.44644 11.2202 7.03465C12.61 6.22481 14.823 6.25226 16.1535 7.08956V8.52394C14.823 7.68664 12.61 7.66605 11.2202 8.46903C10.5023 8.88768 10.1466 9.44359 10.1466 9.99264C10.1466 9.56026 10.1466 8.99063 10.1466 8.55825Z" fill="#343249"/>
<path d="M16.1601 7.08956L15.3895 7.04151C14.4608 6.45815 12.9261 6.44443 11.9579 7.0072C10.9897 7.56997 10.9568 8.49648 11.8854 9.07985C12.8141 9.66321 14.3488 9.67693 15.317 9.11416C16.2852 8.55139 16.3182 7.62488 15.3895 7.04151L16.1601 7.08956C17.4971 7.92685 17.451 9.25829 16.0547 10.0681C14.6584 10.878 12.4519 10.8505 11.1214 10.0132C9.78436 9.17593 9.83047 7.84449 11.2268 7.03465C12.6165 6.22481 14.8296 6.25226 16.1601 7.08956Z" fill="#38404A"/>
<path d="M16.0679 8.05038C16.0679 7.68664 15.8439 7.3229 15.3895 7.04151V6.80131C15.8373 7.08269 16.0613 7.44643 16.0679 7.81018C16.0679 7.88567 16.0679 7.98175 16.0679 8.05038Z" fill="#343249"/>
<path d="M11.2071 7.8239C11.2071 7.43957 11.4573 7.05524 11.9513 6.76013C12.9195 6.19736 14.4542 6.21108 15.3829 6.79444V7.03465C14.4542 6.45129 12.9195 6.43756 11.9513 7.00033C11.4508 7.28858 11.2005 7.67292 11.2071 8.06411C11.2071 7.98862 11.2071 7.89253 11.2071 7.8239Z" fill="#343249"/>
<path d="M11.2136 8.06411V7.8239C11.2136 8.18765 11.4376 8.55139 11.892 8.83278C12.8207 9.41614 14.3554 9.42986 15.3236 8.86709C15.8242 8.57884 16.0745 8.19451 16.0679 7.80331V8.04352C16.0679 8.42785 15.8176 8.81219 15.3236 9.1073C14.3554 9.67007 12.8207 9.65634 11.892 9.07298C11.4442 8.7916 11.2202 8.42785 11.2136 8.06411Z" fill="#343249"/>
<path d="M15.8769 6.51306C17.0624 7.25427 17.0229 8.44158 15.7846 9.1622C14.5464 9.88283 12.5836 9.86224 11.398 9.11416C10.2125 8.36609 10.252 7.18564 11.4903 6.46501C12.7285 5.74439 14.6913 5.76498 15.8769 6.51306ZM15.3895 6.79444C14.4608 6.21108 12.9261 6.19735 11.9579 6.76013C10.9897 7.3229 10.9568 8.24941 11.8854 8.83277C12.8141 9.41614 14.3488 9.42986 15.317 8.86709C16.2852 8.30432 16.3181 7.3778 15.3895 6.79444Z" fill="#343249"/>
<path d="M16.7397 7.80331C16.7397 7.33663 16.4499 6.86994 15.8769 6.51306V4.1453C16.4433 4.50904 16.7331 4.96886 16.7331 5.43555C16.7331 6.14931 16.7331 7.09642 16.7331 7.80331H16.7397Z" fill="#343249"/>
<path d="M10.5286 5.45614C10.5286 4.962 10.8448 4.46786 11.4837 4.09725C12.7219 3.37663 14.6847 3.39722 15.8703 4.1453V6.51306C14.6913 5.77184 12.7285 5.75126 11.4903 6.46502C10.8514 6.83562 10.5352 7.32976 10.5352 7.8239C10.5352 7.11014 10.5352 6.16304 10.5352 5.45614H10.5286Z" fill="#343249"/>
<path d="M10.1532 9.99263V8.55825C10.1532 9.07985 10.476 9.6083 11.1214 10.0132C12.4585 10.8505 14.665 10.8711 16.0547 10.0681C16.7726 9.64948 17.1283 9.09357 17.1283 8.54453V9.97891C17.1283 10.5348 16.7726 11.0907 16.0613 11.5025C14.6715 12.3124 12.4585 12.2849 11.128 11.4476C10.4825 11.0427 10.1598 10.5211 10.1532 9.99263Z" fill="url(#paint0_linear_4_163218)"/>
<path d="M14.856 4.02176C15.5014 4.42668 15.4817 5.07867 14.8033 5.46987C14.1249 5.86106 13.0513 5.8542 12.4058 5.44242C11.7603 5.0375 11.7801 4.3855 12.4585 3.99431C13.1369 3.60311 14.2105 3.60998 14.856 4.02176Z" fill="#FFE15B"/>
<path d="M15.8703 4.14542C14.6847 3.40421 12.7219 3.38362 11.4837 4.09738C10.2454 4.818 10.2059 5.99845 11.3915 6.74653C12.577 7.48774 14.5398 7.50833 15.7781 6.79457C17.0163 6.07395 17.0558 4.8935 15.8703 4.14542ZM14.8033 5.46999C14.1249 5.86119 13.0513 5.85433 12.4058 5.44254C11.7603 5.03762 11.7801 4.38563 12.4585 3.99443C13.1369 3.60324 14.2105 3.6101 14.856 4.02189C15.5014 4.43367 15.4817 5.0788 14.8033 5.46999Z" fill="url(#paint1_linear_4_163218)"/>
<path d="M10.5352 7.8239V5.45614C10.5352 5.92283 10.8184 6.38266 11.3915 6.7464C12.577 7.48761 14.5398 7.5082 15.7781 6.79444C16.4169 6.42384 16.7331 5.9297 16.7331 5.43555V7.80331C16.7397 8.29746 16.4235 8.7916 15.7846 9.1622C14.5464 9.88283 12.5836 9.86224 11.398 9.11416C10.825 8.75042 10.5352 8.29059 10.5352 7.8239Z" fill="url(#paint2_linear_4_163218)"/>
<path d="M13.8087 12.6555L16.3906 14.4742L20.4347 12.0447L19.0515 9.49849L13.8087 12.6555Z" fill="#38404A"/>
<path d="M30.1168 10.9741L30.051 13.3281L20.4347 12.0447L19.0515 9.49849L30.1168 10.9741Z" fill="#2F3842"/>
<path d="M12.7746 12.0241C12.1621 11.928 11.5891 11.7359 11.1214 11.4476C10.4759 11.0427 10.1532 10.5211 10.1466 9.99263C10.1466 9.99263 10.4759 21.6393 11.1214 22.0442C11.5891 22.3393 12.7746 12.0241 12.7746 12.0241Z" fill="url(#paint3_linear_4_163218)"/>
<path d="M17.7211 31.0074L17.7342 34.8644C17.7342 35.2487 18.136 35.489 18.4588 35.2968L28.0684 29.5181C28.9181 29.0033 29.445 28.0562 29.445 27.0336V23.9659L17.7342 31.0074H17.7211Z" fill="#FEC017"/>
<path d="M22.7927 21.605C22.6478 22.1815 22.3119 22.6825 22.0484 22.7305C21.7849 22.7785 21.6862 22.3462 21.8311 21.7765C21.976 21.2 22.3119 20.699 22.5753 20.651C22.8388 20.6029 22.9376 21.0353 22.7927 21.605Z" fill="#FEC017"/>
<g clip-path="url(#clip2_4_163218)">
<path d="M23.7741 18.5303C23.7741 18.5303 21.673 22.8952 21.673 25.51C21.673 27.0131 22.6148 27.665 23.7741 26.965V18.5303Z" fill="white"/>
<path d="M23.7741 18.5303C23.7741 18.5303 25.8752 20.3696 25.8752 22.9844C25.8752 24.4874 24.9333 26.2718 23.7741 26.965V18.5303Z" fill="white"/>
</g>
</g>
</g>
<defs>
<linearGradient id="paint0_linear_4_163218" x1="9.79096" y1="10.3152" x2="16.9307" y2="10.3152" gradientUnits="userSpaceOnUse">
<stop offset="0.21" stop-color="#232C33"/>
<stop offset="0.69" stop-color="#2F3842"/>
</linearGradient>
<linearGradient id="paint1_linear_4_163218" x1="12.5309" y1="7.43283" x2="14.8694" y2="3.54241" gradientUnits="userSpaceOnUse">
<stop stop-color="#FEC017"/>
<stop offset="0.61" stop-color="#FFE25C"/>
</linearGradient>
<linearGradient id="paint2_linear_4_163218" x1="10.5286" y1="7.56311" x2="16.7397" y2="7.56311" gradientUnits="userSpaceOnUse">
<stop offset="0.35" stop-color="#F09C17"/>
<stop offset="0.88" stop-color="#FFC939"/>
</linearGradient>
<linearGradient id="paint3_linear_4_163218" x1="9.79095" y1="16.0253" x2="16.9307" y2="16.0253" gradientUnits="userSpaceOnUse">
<stop offset="0.21" stop-color="#232C33"/>
<stop offset="0.69" stop-color="#2F3842"/>
</linearGradient>
<clipPath id="clip0_4_163218">
<rect width="40" height="40" fill="white"/>
</clipPath>
<clipPath id="clip1_4_163218">
<rect width="23" height="41" fill="white" transform="translate(8.5)"/>
</clipPath>
<clipPath id="clip2_4_163218">
<rect width="4.20218" height="8.7161" fill="white" transform="translate(21.673 18.5303)"/>
</clipPath>
</defs>
</svg>
