<svg width="40" height="40" viewBox="0 0 40 40" fill="none" xmlns="http://www.w3.org/2000/svg">
<path d="M27.4812 7.01224L28.3816 6.49158L28.3733 8.79736L27.4729 9.31801L27.4812 7.01224Z" fill="#DDDCDB"/>
<path d="M22.9916 3.39244C22.7094 3.23129 22.4563 3.21476 22.2738 3.32219L21.3734 3.84285C21.5559 3.73542 21.809 3.75194 22.0912 3.9131L27.4771 7.01226L28.3775 6.4916L22.9916 3.39244Z" fill="white"/>
<path d="M27.4812 7.01233L27.4729 9.3181L22.087 6.21894C21.531 5.90076 21.0829 5.1239 21.0829 4.48754C21.0829 3.85118 21.5352 3.59499 22.0953 3.91317L27.4812 7.01233Z" fill="#CCCCCC"/>
<path d="M6.5685 17.8016L23.3568 8.14873C23.7634 7.90906 24.0124 7.4008 24.0124 6.68179C24.0124 5.23139 22.9875 3.4628 21.7261 2.73966C21.0871 2.3719 20.5103 2.34297 20.0954 2.5909L3.3071 12.2396L6.5685 17.8016Z" fill="#007EF0"/>
<path d="M4.93779 12.3925C6.19919 13.1198 7.22408 14.8842 7.22408 16.3346C7.22408 17.785 6.19919 18.3759 4.93779 17.6487C3.67638 16.9214 2.65149 15.157 2.65149 13.7065C2.65149 12.2561 3.67638 11.6652 4.93779 12.3925Z" fill="#0160CC"/>
<path d="M4.93774 13.7189C5.56014 14.0784 6.06636 14.9503 6.06636 15.6693C6.06636 16.3883 5.56014 16.6776 4.93774 16.3181C4.31533 15.9586 3.80911 15.0867 3.80911 14.3677C3.80911 13.6487 4.31533 13.3594 4.93774 13.7189Z" fill="white"/>
<path d="M3.70955 16.8842L5.41909 15.9008C5.54357 15.8264 5.62241 15.6694 5.62241 15.4421C5.62241 14.9876 5.30291 14.438 4.90872 14.2107C4.70955 14.095 4.53113 14.0867 4.39835 14.1652L2.68881 15.1487L3.70541 16.8842H3.70955Z" fill="#282A2E"/>
<path d="M3.20331 15.1982C3.5975 15.4255 3.917 15.9751 3.917 16.4296C3.917 16.8842 3.5975 17.066 3.20331 16.8387C2.80912 16.6114 2.48962 16.0618 2.48962 15.6073C2.48962 15.1528 2.80912 14.9709 3.20331 15.1982Z" fill="#4C4254"/>
<path d="M8.39828 17.9836L9.29869 17.4629L9.2904 19.7687L8.38998 20.2894L8.39828 17.9836Z" fill="#DDDCDB"/>
<path d="M3.90872 14.3678C3.62656 14.2067 3.37345 14.1901 3.19088 14.2976L2.29047 14.8182C2.47304 14.7108 2.72615 14.7273 3.00831 14.8885L8.39417 17.9876L9.29458 17.467L3.90872 14.3678Z" fill="#F2F2F2"/>
<path d="M8.39831 17.9834L8.39001 20.2892L3.00414 17.19C2.44813 16.8719 2 16.095 2 15.4586C2 14.8223 2.45228 14.5661 3.01244 14.8843L8.39831 17.9834Z" fill="#BEC0C4"/>
<path d="M3.09129 15.405C3.40664 15.5868 3.6639 16.029 3.6639 16.3926C3.6639 16.7562 3.40664 16.905 3.09129 16.7232C2.77594 16.5414 2.51868 16.0992 2.51868 15.7356C2.51868 15.3719 2.77594 15.2232 3.09129 15.405Z" fill="#282A2E"/>
<path d="M31.2654 26.8554L26.9044 24.3471V6.26042L31.2654 8.76867V26.8554Z" fill="#BEC0C4"/>
<path d="M32.7177 26.0205L31.2654 26.8552V8.76847L32.7177 7.93377V26.0205Z" fill="#ECEEF1"/>
<path d="M31.5351 11.6943V24.0496C31.5434 24.5207 31.8587 24.9876 32.4811 25.3471C33.7425 26.0744 35.7923 26.0744 37.0537 25.3471C37.6927 24.9794 38.0081 24.4959 37.9998 24.0166V11.6612L31.5351 11.6943Z" fill="url(#paint0_linear_4_163226)"/>
<path d="M37.0537 12.9918C35.7923 13.719 33.7426 13.719 32.4811 12.9918C31.2197 12.2645 31.2197 11.0868 32.4811 10.3637C33.7426 9.6364 35.7923 9.6364 37.0537 10.3637C38.3152 11.0909 38.3152 12.2686 37.0537 12.9918Z" fill="#007EF0"/>
<path d="M35.896 12.3265C35.2736 12.686 34.2612 12.686 33.6346 12.3265C33.0122 11.967 33.0122 11.3844 33.6346 11.0248C34.257 10.6653 35.2695 10.6653 35.896 11.0248C36.5226 11.3844 36.5184 11.967 35.896 12.3265Z" fill="white"/>
<path d="M33.7592 8.85115V11.6528C33.7592 11.7974 33.8588 11.9462 34.0538 12.0577C34.448 12.285 35.087 12.285 35.4812 12.0577C35.6804 11.942 35.78 11.7933 35.7758 11.6445V8.84288L33.7592 8.85528V8.85115Z" fill="#282A2E"/>
<path d="M35.4811 9.25621C35.087 9.48348 34.4479 9.48348 34.0538 9.25621C33.6596 9.02894 33.6596 8.66117 34.0538 8.43803C34.4479 8.21076 35.087 8.21076 35.4811 8.43803C35.8753 8.6653 35.8753 9.03307 35.4811 9.25621Z" fill="#3C3E42"/>
<path d="M23.6581 30.9949C23.5118 30.8581 23.3656 30.7213 23.2229 30.5809L20.9931 31.8085C20.5542 32.0677 20.4865 34.0333 20.7683 34.7532L23.0445 33.3493L24.5714 32.0929C24.2682 31.7257 23.9685 31.3549 23.6617 30.9949H23.6581Z" fill="#282A2E"/>
<path d="M26.2769 34.2383C26.0628 33.7487 25.7702 33.2843 25.4278 32.8884C25.1388 32.5572 24.8141 32.2728 24.468 32.0748C23.858 31.7184 23.305 31.686 22.9054 31.92L21.696 32.6292C22.0955 32.3952 22.6485 32.4276 23.2586 32.784C23.6047 32.9856 23.9293 33.2663 24.2183 33.5975C24.5608 33.9935 24.8534 34.4579 25.0674 34.9475C25.31 35.4983 25.4492 36.0743 25.4456 36.6071C25.4456 37.3055 25.1994 37.7987 24.8034 38.0291L26.0129 37.3199C26.4089 37.0895 26.6515 36.5963 26.655 35.8979C26.655 35.3651 26.5159 34.7891 26.2769 34.2383Z" fill="#282A2E"/>
<path d="M23.2585 32.7803C22.0455 32.0747 21.0573 32.6399 21.0537 34.0439C21.0502 35.4515 22.0313 37.165 23.2443 37.8706C24.4573 38.5762 25.4455 38.011 25.4491 36.6034C25.4527 35.1995 24.4716 33.4859 23.2585 32.7803Z" fill="#3C3E42"/>
<path opacity="0.3" d="M23.255 33.5004C22.3845 32.9928 21.6781 33.3996 21.6745 34.4076C21.6745 35.4156 22.3738 36.6467 23.2443 37.1543C24.1148 37.6619 24.8212 37.2551 24.8248 36.2435C24.8248 35.2356 24.1255 34.008 23.255 33.5004Z" fill="#282A2E"/>
<path d="M22.5414 33.403H22.602L23.0016 33.4462C23.0016 33.4462 23.0873 33.457 23.0266 33.475C22.7412 33.5542 22.5485 33.835 22.5414 34.2813C22.5236 35.0337 23.0373 35.9661 23.6866 36.3585C24.0791 36.5961 24.4323 36.5853 24.6535 36.3693C24.6963 36.3261 24.6249 36.4737 24.6249 36.4737L24.4929 36.7077C24.261 37.1253 23.7687 37.2153 23.2121 36.8769C22.4451 36.4089 21.8386 35.3073 21.8564 34.4145C21.8707 33.781 22.074 33.3886 22.5378 33.403H22.5414Z" fill="#BEC0C4"/>
<path d="M23.2835 33.54C24.0969 34.0368 24.7427 35.2068 24.7213 36.1536C24.6999 37.1004 24.022 37.4676 23.2086 36.9708C22.3952 36.474 21.7494 35.304 21.7708 34.3572C21.7922 33.4104 22.4701 33.0432 23.2835 33.54ZM23.2835 33.6408C22.5165 33.1728 21.8778 33.5184 21.86 34.4112C21.8422 35.304 22.4487 36.4056 23.2157 36.8736C23.9828 37.3416 24.6214 36.996 24.6392 36.1032C24.6571 35.2104 24.0506 34.1088 23.2835 33.6408Z" fill="#ECEEF1"/>
<mask id="mask0_4_163226" style="mask-type:luminance" maskUnits="userSpaceOnUse" x="21" y="33" width="4" height="5">
<path d="M23.2836 33.641C22.5166 33.173 21.878 33.5186 21.8601 34.4114C21.8423 35.3042 22.4488 36.4057 23.2158 36.8737C23.9829 37.3417 24.6215 36.9961 24.6393 36.1033C24.6572 35.2106 24.0507 34.109 23.2836 33.641Z" fill="white"/>
</mask>
<g mask="url(#mask0_4_163226)">
<path d="M23.6154 33.6156C24.3111 34.0476 24.8534 35.0592 24.8248 35.8728C24.7963 36.6863 24.2148 36.9959 23.5191 36.5603C22.8234 36.1283 22.2811 35.1168 22.3096 34.3032C22.3382 33.4896 22.9197 33.18 23.6154 33.6156Z" fill="#96989C"/>
<path d="M23.4869 34.0692C23.9971 34.3896 24.3967 35.1312 24.3753 35.7324C24.3539 36.33 23.9258 36.5568 23.4156 36.24C22.9054 35.9196 22.5058 35.178 22.5272 34.5768C22.5486 33.9792 22.9767 33.7525 23.4869 34.0692Z" fill="#ECEEF1"/>
<path d="M22.5273 34.4617C22.5273 34.4617 22.5273 34.4473 22.5273 34.4401C22.5487 33.8425 22.934 33.5725 23.4228 33.7741C23.4834 33.7993 23.5441 33.8317 23.6083 33.8713C23.9365 34.0765 24.2219 34.4329 24.4039 34.8289C24.543 35.1277 24.6179 35.448 24.6108 35.7396C24.5894 36.4128 24.1042 36.6684 23.5298 36.3084L23.4156 36.24C23.9258 36.5604 24.3575 36.3336 24.3753 35.7324C24.3825 35.4732 24.3147 35.1888 24.1934 34.9225C24.0328 34.5697 23.776 34.2529 23.487 34.0693C23.4299 34.0333 23.3764 34.0045 23.3229 33.9829C22.8876 33.8029 22.5451 34.0405 22.5273 34.5733C22.5273 34.5805 22.5273 34.5877 22.5273 34.5913V34.4581V34.4617Z" fill="#BEC0C4"/>
</g>
<path d="M7.58934 21.6313C7.44306 21.4945 7.29679 21.3577 7.15408 21.2174L4.92428 22.4449C4.48545 22.7041 4.41767 24.6697 4.69951 25.3897L6.9757 23.9857L8.50266 22.7293C8.19941 22.3621 7.89973 21.9913 7.5929 21.6313H7.58934Z" fill="#282A2E"/>
<path d="M10.2079 24.875C9.99383 24.3854 9.70128 23.921 9.35878 23.525C9.0698 23.1938 8.74514 22.9094 8.39907 22.7114C7.789 22.355 7.23601 22.3226 6.83643 22.5566L5.62698 23.2658C6.02656 23.0318 6.57955 23.0642 7.18963 23.4206C7.53569 23.6222 7.86035 23.903 8.14934 24.2342C8.49183 24.6302 8.78438 25.0945 8.99844 25.5841C9.24105 26.1349 9.38019 26.7109 9.37662 27.2437C9.37662 27.9421 9.13045 28.4353 8.73444 28.6657L9.94388 27.9565C10.3399 27.7261 10.5825 27.2329 10.5861 26.5345C10.5861 26.0017 10.4469 25.4257 10.2079 24.875Z" fill="#282A2E"/>
<path d="M7.18958 23.4207C5.97657 22.7151 4.98832 23.2803 4.98475 24.6843C4.98118 26.0918 5.9623 27.8054 7.17531 28.511C8.38832 29.2166 9.37657 28.6514 9.38014 27.2438C9.38371 25.8399 8.40259 24.1263 7.18958 23.4207Z" fill="#454039"/>
<path opacity="0.3" d="M7.18604 24.1408C6.31553 23.6332 5.60913 24.04 5.60556 25.048C5.60556 26.0559 6.30483 27.2871 7.17534 27.7947C8.04586 28.3023 8.75226 27.8955 8.75582 26.8839C8.75582 25.8759 8.05656 24.6484 7.18604 24.1408Z" fill="#282A2E"/>
<path d="M6.47246 24.0399H6.53311L6.93269 24.0831C6.93269 24.0831 7.01831 24.0939 6.95766 24.1119C6.67225 24.1911 6.47959 24.4719 6.47246 24.9183C6.45462 25.6707 6.96837 26.603 7.61768 26.9954C8.01013 27.233 8.36333 27.2222 8.58453 27.0062C8.62734 26.963 8.55598 27.1106 8.55598 27.1106L8.42398 27.3446C8.19208 27.7622 7.69974 27.8522 7.14318 27.5138C6.37613 27.0458 5.76962 25.9442 5.78746 25.0515C5.80173 24.4179 6.00509 24.0255 6.46889 24.0399H6.47246Z" fill="#BEC0C4"/>
<path d="M7.21451 24.1802C8.02794 24.677 8.67369 25.8469 8.65229 26.7937C8.63088 27.7405 7.95302 28.1077 7.13959 27.6109C6.32616 27.1141 5.68041 25.9441 5.70181 24.9974C5.72322 24.0506 6.40108 23.6834 7.21451 24.1802ZM7.21451 24.281C6.44746 23.813 5.80884 24.1586 5.791 25.0514C5.77316 25.9441 6.37967 27.0457 7.14672 27.5137C7.91377 27.9817 8.55239 27.6361 8.57023 26.7433C8.58807 25.8505 7.98156 24.749 7.21451 24.281Z" fill="#ECEEF1"/>
<mask id="mask1_4_163226" style="mask-type:luminance" maskUnits="userSpaceOnUse" x="5" y="24" width="4" height="4">
<path d="M7.2146 24.2809C6.44755 23.8129 5.80893 24.1585 5.79109 25.0513C5.77326 25.944 6.37976 27.0456 7.14681 27.5136C7.91387 27.9816 8.55248 27.636 8.57032 26.7432C8.58816 25.8504 7.98165 24.7489 7.2146 24.2809Z" fill="white"/>
</mask>
<g mask="url(#mask1_4_163226)">
<path d="M7.54629 24.2523C8.24199 24.6843 8.78428 25.6958 8.75573 26.5094C8.72719 27.323 8.14566 27.6326 7.44996 27.197C6.75426 26.765 6.21198 25.7534 6.24052 24.9398C6.26906 24.1263 6.85059 23.8167 7.54629 24.2523Z" fill="#9D9D9D"/>
<path d="M7.4179 24.7059C7.92807 25.0263 8.32765 25.7678 8.30625 26.369C8.28484 26.9666 7.85672 27.1934 7.34654 26.8766C6.83636 26.5562 6.43678 25.8146 6.45819 25.2135C6.47959 24.6159 6.90772 24.3891 7.4179 24.7059Z" fill="#ECEEF1"/>
<path d="M6.45816 25.0983C6.45816 25.0983 6.45816 25.0839 6.45816 25.0767C6.47957 24.4791 6.86488 24.2091 7.35365 24.4107C7.4143 24.4359 7.47495 24.4683 7.53917 24.5079C7.8674 24.7131 8.15281 25.0695 8.33476 25.4655C8.4739 25.7643 8.54882 26.0847 8.54169 26.3763C8.52028 27.0494 8.03508 27.305 7.46068 26.945L7.34651 26.8766C7.85669 27.197 8.28838 26.9702 8.30622 26.3691C8.31336 26.1099 8.24557 25.8255 8.12427 25.5591C7.96372 25.2063 7.70685 24.8895 7.41787 24.7059C7.36078 24.6699 7.30727 24.6411 7.25375 24.6195C6.8185 24.4395 6.476 24.6771 6.45816 25.2099C6.45816 25.2171 6.45816 25.2243 6.45816 25.2279V25.0947V25.0983Z" fill="#BEC0C4"/>
</g>
<path d="M37.9395 30.3834C37.9395 30.3546 37.9395 30.3222 37.9395 30.2934C37.9359 30.0702 37.9145 29.847 37.8824 29.6274C37.7861 28.9974 37.5792 28.389 37.2831 27.8202C37.2759 27.8022 37.2688 27.7914 37.2652 27.7806C36.3483 25.3903 32.3561 22.5751 32.3561 22.5751L27.2472 16.5201C27.1473 16.4013 27.0295 16.3005 26.9011 16.2141L20.9074 12.3766C18.674 10.9474 15.8413 10.8826 13.5473 12.2074L11.9418 13.1361C10.2329 14.1225 8.72019 15.4257 7.48934 16.9773L5.80182 19.1084C5.01336 20.1056 4.42113 21.2648 4.18923 22.5212C4.1036 22.9927 4.05722 23.4715 4.05722 23.9539V24.6847C4.05366 24.8791 4.14998 25.0627 4.31767 25.1599L4.69941 25.3903C4.51389 23.7955 5.26667 21.8732 7.18608 22.7983C8.52396 23.4427 9.89039 25.4515 9.72271 28.2198L20.7683 34.7537C20.5756 33.1553 21.3177 31.2258 23.2442 32.1546C24.5821 32.7989 25.9485 34.8077 25.7808 37.576C28.1462 38.5588 30.4153 37.4645 32.9091 36.2297C35.5099 34.9409 37.4329 33.3245 37.8789 32.043C37.9217 31.9206 37.9359 31.791 37.9359 31.6614C37.9359 31.4058 37.9359 30.8982 37.9359 30.3834H37.9395ZM24.2539 18.7664C25.0352 18.2876 25.763 17.7548 26.5871 17.0349C26.8797 17.4129 27.1508 17.8124 27.3863 18.23L27.9464 19.2236L28.4067 21.3404L24.2539 18.77V18.7664Z" fill="url(#paint1_linear_4_163226)"/>
<path d="M36.5804 26.9126C36.4091 26.6498 35.8205 25.9838 35.2211 25.3286C34.3292 24.3494 33.373 23.4314 32.3598 22.5783C32.3527 22.5747 27.2437 16.5196 27.2437 16.5196C27.1439 16.4008 27.0261 16.3 26.8977 16.2136L20.9075 12.3761C18.6742 10.9469 15.8414 10.8821 13.5474 12.2069L11.942 13.1357C10.8538 13.762 9.84772 14.5216 8.9451 15.3892C10.3151 15.1408 11.1642 15.6628 11.735 15.958C12.8553 16.5304 14.368 17.2972 17.6538 19.7271C18.6884 20.4939 19.4733 21.5523 20.0477 22.7115C20.3082 23.2334 22.6914 28.2481 22.6985 28.2589C22.6985 28.2589 25.4314 31.5529 26.2163 32.3413C27.8324 33.972 31.9031 31.7689 33.0983 31.1065C34.2079 30.4873 36.9264 28.8637 37.0335 27.5858C36.7445 27.1754 36.8551 27.3374 36.5804 26.9126ZM24.2505 18.7659C25.0354 18.2871 25.7596 17.7544 26.5837 17.0344C26.8763 17.4124 27.1474 17.812 27.3829 18.2295L27.943 19.2231L28.4032 21.3399L24.2505 18.7695V18.7659Z" fill="#F1F3F6"/>
<path d="M31.3643 22.1897C31.3643 22.1897 31.375 22.1501 31.3643 22.1357L26.9261 16.7358C26.9261 16.7358 26.9083 16.7214 26.8976 16.7214C26.8833 16.7214 26.8726 16.725 26.8655 16.7322C24.7356 18.6509 23.3228 19.3097 20.226 20.7533L19.8122 20.9477C19.8122 20.9477 19.7943 20.9621 19.7908 20.9729C19.7872 20.9837 19.7908 20.9945 19.7908 21.0053L22.8055 27.1288C22.8055 27.1288 22.8269 27.154 22.8447 27.154C26.8619 26.254 30.0764 23.95 31.3679 22.1897H31.3643ZM24.2539 18.7661C25.0353 18.2874 25.7631 17.7546 26.5872 17.0346C26.8798 17.4126 27.1509 17.8122 27.3864 18.2298L27.9465 19.2233L28.4067 21.3401L24.2539 18.7697V18.7661Z" fill="#96989C"/>
<path opacity="0.6" d="M35.981 26.9199L35.8561 28.2771C35.8811 28.3059 35.9096 28.3311 35.9346 28.3599L36.0702 26.9091V26.8911L36.0595 26.8767C36.0452 26.8551 34.4041 24.8284 31.7176 22.5568L31.6605 22.6252C34.2257 24.7924 35.8311 26.7363 35.981 26.9199Z" fill="#D0D0D0"/>
<path opacity="0.6" d="M28.8242 32.2621L28.5495 32.1217L27.5898 32.4133C27.0725 32.3485 24.3218 29.0725 23.2979 27.8054L23.2301 27.863C23.3835 28.0501 26.9583 32.4601 27.5933 32.5033C27.6005 32.5033 28.5424 32.2189 28.5424 32.2189L28.8099 32.3557C28.8135 32.3233 28.8206 32.2945 28.8242 32.2621Z" fill="#D0D0D0"/>
<g opacity="0.5">
<path d="M27.0618 22.1716C26.3162 22.4164 25.5991 23.1616 25.4564 23.8276C25.3172 24.4971 25.806 24.8427 26.5516 24.5979C27.2973 24.3531 28.0144 23.608 28.1571 22.9384C28.2962 22.2688 27.8075 21.9232 27.0618 22.168V22.1716ZM27.044 22.384C27.0904 22.3696 27.1332 22.3624 27.176 22.3516L26.8228 23.3956L25.9915 23.1544C26.2591 22.8124 26.648 22.5136 27.044 22.384ZM27.9859 23.0464C27.8646 23.6224 27.2473 24.2632 26.6052 24.4719C25.9665 24.6807 25.542 24.3855 25.6633 23.8096C25.699 23.6368 25.7846 23.4604 25.8952 23.2912L26.9191 23.5864L27.3472 22.3228C27.8075 22.2868 28.0857 22.5676 27.9823 23.0464H27.9859Z" fill="#D3D3D3"/>
<path d="M31.3323 22.8159C31.3109 22.7655 30.3156 22.132 30.2763 22.15C27.4971 23.0463 24.6001 24.6915 22.4452 26.3979C22.3347 26.4843 22.7556 27.629 23.3871 27.5174C23.7831 27.449 24.5074 27.3231 24.8427 27.0927C24.8962 27.0567 24.9498 27.0495 24.9961 27.0603C26.6408 26.2215 29.1061 25.0479 30.84 23.1975C30.8507 22.9383 31.4322 23.0391 31.3323 22.8123V22.8159Z" fill="#D3D3D3"/>
<path d="M29.256 22.5279C28.9884 23.5359 26.7336 24.6806 25.0425 24.6158C25.0425 24.6158 25.7133 23.7122 26.9334 23.0895C28.3712 22.3551 29.256 22.5279 29.256 22.5279Z" fill="#EAEAEA"/>
</g>
<g style="mix-blend-mode:multiply" opacity="0.7">
<path d="M22.8411 27.154C22.8411 27.154 22.809 27.1468 22.8019 27.1288L19.7872 21.0053C19.7872 21.0053 19.7801 20.9837 19.7872 20.9729C19.7908 20.9621 19.7979 20.9513 19.8086 20.9477L20.2225 20.7533C23.3192 19.3097 24.7356 18.6509 26.8619 16.7322C26.869 16.725 26.8798 16.7214 26.8905 16.7214C26.9047 16.7214 26.9154 16.7286 26.9226 16.7358L31.3608 22.1357C31.3608 22.1357 31.375 22.1717 31.3608 22.1897C30.0693 23.95 26.8548 26.254 22.8483 27.154C22.8483 27.154 22.8411 27.154 22.8376 27.154H22.8411Z" fill="#4C543F"/>
</g>
<path d="M32.0207 22.6069L26.894 16.4259L20.5185 12.3363C19.0593 11.4868 12.0988 15.6627 13.4545 16.4511C15.1313 17.4302 18.6384 19.565 19.5303 20.861L22.9374 27.9672C22.966 28.0284 23.0373 28.0644 23.1051 28.05C27.0831 27.1716 30.665 24.6985 32.035 22.7905C32.0743 22.7365 32.0707 22.6609 32.0279 22.6069H32.0207ZM22.8411 27.1068L19.8264 20.9834C23.2549 19.3814 24.6642 18.7658 26.8904 16.7607L31.3286 22.1605C29.9729 24.0073 26.712 26.2393 22.8411 27.1068Z" fill="#363636"/>
<path opacity="0.6" d="M20.4472 26.2754C20.3437 27.935 19.937 32.6257 19.8835 33.2485L12.9051 29.1842C11.7171 28.493 12.3414 21.7863 12.345 21.7215L12.2594 21.7143C12.2344 21.9915 11.6243 28.5434 12.8623 29.2634L19.8978 33.3637L19.9549 33.3961L19.962 33.3277C19.9656 33.2737 20.4222 28.0574 20.5328 26.2862L20.4472 26.279V26.2754Z" fill="#96989C"/>
<path d="M19.6694 26.4012C19.6694 26.4012 19.6551 26.4012 19.648 26.394L12.9051 22.4665C12.9051 22.4665 12.8837 22.4413 12.8837 22.4233L13.3475 17.9306C13.3475 17.9306 13.3582 17.9054 13.3689 17.8982C13.376 17.8982 13.3832 17.8946 13.3903 17.8946C13.3974 17.8946 13.4046 17.8946 13.4081 17.8982L13.4831 17.9342C13.5508 17.9666 13.6186 18.0026 13.69 18.0422L16.3051 19.565C17.6679 20.3605 18.7382 21.6133 19.3162 23.0893L19.7158 24.1117V26.358C19.7158 26.358 19.7051 26.3868 19.6908 26.394C19.6837 26.3976 19.6765 26.4012 19.6694 26.4012ZM11.8669 21.8545C11.8669 21.8545 11.8526 21.8545 11.8455 21.8473L8.55608 19.9321C8.53467 19.9213 8.52754 19.8925 8.53824 19.8745L8.75587 19.4786C8.95923 19.1078 9.14832 18.8306 9.35881 18.6002C10.0331 17.8586 10.8608 17.4662 11.7527 17.4662C11.9204 17.4662 12.1024 17.4842 12.3093 17.5202C12.3307 17.5238 12.3485 17.5454 12.345 17.567L11.9061 21.8149C11.9061 21.8149 11.8954 21.8437 11.8847 21.8473C11.8776 21.8473 11.8705 21.8509 11.8633 21.8509L11.8669 21.8545Z" fill="#96989C"/>
<g style="mix-blend-mode:multiply" opacity="0.9">
<path d="M19.6694 26.4012C19.6694 26.4012 19.6551 26.4012 19.648 26.394L12.9051 22.4665C12.9051 22.4665 12.8837 22.4413 12.8837 22.4233L13.3475 17.9306C13.3475 17.9306 13.3582 17.9054 13.3689 17.8982C13.376 17.8982 13.3832 17.8946 13.3903 17.8946C13.3974 17.8946 13.4046 17.8946 13.4081 17.8982L13.4831 17.9342C13.5508 17.9666 13.6186 18.0026 13.69 18.0422L16.3051 19.565C17.6679 20.3605 18.7382 21.6133 19.3162 23.0893L19.7158 24.1117V26.358C19.7158 26.358 19.7051 26.3868 19.6908 26.394C19.6837 26.3976 19.6765 26.4012 19.6694 26.4012ZM11.8669 21.8545C11.8669 21.8545 11.8526 21.8545 11.8455 21.8473L8.55608 19.9321C8.53467 19.9213 8.52754 19.8925 8.53824 19.8745L8.75587 19.4786C8.95923 19.1078 9.14832 18.8306 9.35881 18.6002C10.0331 17.8586 10.8608 17.4662 11.7527 17.4662C11.9204 17.4662 12.1024 17.4842 12.3093 17.5202C12.3307 17.5238 12.3485 17.5454 12.345 17.567L11.9061 21.8149C11.9061 21.8149 11.8954 21.8437 11.8847 21.8473C11.8776 21.8473 11.8705 21.8509 11.8633 21.8509L11.8669 21.8545Z" fill="#1F231E"/>
</g>
<path d="M21.2357 27.521L19.4733 23.0247C18.8775 21.5055 17.7893 20.2311 16.3872 19.4139L13.7721 17.8912C12.0382 16.8832 10.3935 17.2036 9.23044 18.4851C8.98427 18.7587 8.78448 19.0719 8.6061 19.3959L8.36706 19.8315C8.32068 19.9143 8.34922 20.0187 8.43128 20.0655L21.2357 27.5246V27.521ZM11.867 21.8115L8.57756 19.8963L8.79519 19.5003C8.99498 19.1331 9.18406 18.8595 9.39099 18.6327C10.0546 17.902 10.8751 17.5132 11.7528 17.5132C11.9347 17.5132 12.1203 17.5348 12.3022 17.5672L11.8634 21.8151L11.867 21.8115ZM19.6695 26.3582L12.9266 22.4307L13.3904 17.938C13.4831 17.9848 13.5759 18.0244 13.6686 18.0784L16.2838 19.6011C17.6395 20.3895 18.7026 21.6351 19.277 23.1039L19.6766 24.1262L19.6695 26.3582Z" fill="#1E1E1E"/>
<path d="M37.1012 27.4455C36.6874 26.7327 35.9917 26.3727 35.5528 26.6391C35.114 26.9055 35.0926 27.7011 35.5065 28.4139C35.9203 29.1266 36.616 29.4902 37.0548 29.2202C37.4936 28.9538 37.5151 28.1583 37.1012 27.4455Z" fill="#F5FDFF"/>
<path d="M37.1012 27.4455C36.6874 26.7327 35.9917 26.3727 35.5528 26.6391C35.114 26.9055 35.0926 27.7011 35.5065 28.4139C35.9203 29.1266 36.616 29.4902 37.0548 29.2202C37.4936 28.9538 37.5151 28.1583 37.1012 27.4455Z" fill="#3C3E42"/>
<path d="M29.0062 32.0533C28.5031 31.3982 27.7289 31.1498 27.2758 31.499C26.8227 31.8482 26.862 32.6581 27.365 33.3133C27.8681 33.9685 28.6423 34.2169 29.0954 33.8677C29.5485 33.5185 29.5092 32.7085 29.0062 32.0533Z" fill="#3C3E42"/>
<path d="M36.038 31.6754C34.7964 32.9786 32.9234 34.0478 31.1574 34.7786C31.1288 34.7894 31.1074 34.8218 31.1074 34.8542V36.1718C31.1074 36.2222 31.1502 36.2654 31.2002 36.2546C31.9601 36.0926 35.4957 34.073 36.1307 33.1586C36.1628 33.1118 36.1771 33.0506 36.1771 32.993V31.733C36.1771 31.6574 36.0915 31.625 36.038 31.6754Z" fill="#3C3E42"/>
<path d="M31.2002 35.9702C31.1503 35.981 31.1075 35.9414 31.1075 35.891V36.1718C31.1075 36.2222 31.1503 36.2654 31.2002 36.2546C31.9602 36.0926 35.4957 34.073 36.1308 33.1586C36.1629 33.1118 36.1772 33.0506 36.1772 32.993V32.7087C36.1772 32.7663 36.1629 32.8238 36.1308 32.8742C35.4957 33.7886 31.9602 35.8082 31.2002 35.9702Z" fill="white"/>
<path d="M29.0204 35.0626C29.0204 35.0626 28.0928 35.3326 27.1153 35.0122C27.0047 34.9762 27.0368 35.4694 27.1153 35.5018C27.4435 35.6494 27.7682 35.6746 28.0643 35.6746C28.7029 35.6746 29.074 35.5306 29.1061 35.5162C29.2095 35.4586 29.131 35.0086 29.0276 35.0626H29.0204Z" fill="#FFCB14"/>
<path d="M37.9324 30.282C38.0573 30.12 37.9824 29.6988 37.8896 29.6736C37.8575 29.9364 37.5614 30.1596 37.4437 30.2244C37.3402 30.2856 37.4008 30.6852 37.515 30.6744C37.7933 30.5304 37.9289 30.282 37.9289 30.282H37.9324Z" fill="#FFCB14"/>
<path d="M6.06237 18.6939C6.09091 18.6615 6.14086 18.6543 6.18011 18.6759C6.27287 18.7299 6.47979 18.8019 6.5226 18.9027C6.58325 19.0502 6.43698 19.2122 6.36563 19.331L6.08021 19.8026C5.88042 20.1374 5.68063 20.4686 5.47727 20.8034L5.22397 21.2246C5.13121 21.3794 4.93499 21.4298 4.78157 21.3398L4.6246 21.2498C4.56395 21.2138 4.5354 21.1454 4.55681 21.0806C4.63887 20.7818 4.95996 19.9106 6.06237 18.6975V18.6939Z" fill="#A51C1C"/>
<path d="M18.8703 15.9222V16.3722C18.8668 16.6242 19.0273 16.8761 19.3555 17.0669C20.0049 17.4449 21.0573 17.4449 21.7066 17.0669C22.0277 16.8797 22.1883 16.635 22.1918 16.3902V15.9402L18.8668 15.9222H18.8703Z" fill="#2D2D2D"/>
<path d="M21.7101 16.6169C22.3595 16.2389 22.3595 15.6269 21.7101 15.2489C21.0608 14.8709 20.0083 14.8709 19.359 15.2489C18.7097 15.6269 18.7097 16.2389 19.359 16.6169C20.0083 16.9949 21.0608 16.9949 21.7101 16.6169Z" fill="#363636"/>
<path d="M21.2249 13.8811C20.4186 13.3808 19.252 13.8703 19.2021 15.0331V15.8287C19.2021 16.0267 19.3269 16.2211 19.5802 16.3759C20.094 16.6855 20.9395 16.6963 21.4711 16.3939C21.7387 16.2427 21.8743 16.0375 21.8778 15.8359V15.0403C21.8671 14.3743 21.4675 14.0287 21.2285 13.8775L21.2249 13.8811Z" fill="#1F231E"/>
<path opacity="0.6" d="M13.3903 24.1189V24.4249C13.3903 24.6157 13.5437 24.8569 13.7292 24.9649L14.275 25.2816C14.4641 25.3896 14.614 25.3248 14.614 25.1377V24.8317L13.3903 24.1189Z" fill="#96989C"/>
<path d="M14.5855 25.0333L13.4224 24.3565C13.3011 24.2845 13.2012 24.1261 13.2012 24.0037C13.2012 23.8813 13.3011 23.8381 13.4224 23.9101L14.5855 24.5869C14.7068 24.6589 14.8067 24.8173 14.8067 24.9397C14.8067 25.0621 14.7068 25.1053 14.5855 25.0333Z" fill="#ECEEF1"/>
<path d="M36.0167 26.5669C35.849 26.5381 35.692 26.5561 35.5564 26.6389C35.1176 26.9052 35.0962 27.7008 35.5101 28.4136C35.5315 28.4532 35.56 28.4856 35.5814 28.5216C35.9168 28.7772 36.327 28.8528 36.6446 28.6692C37.0905 28.41 37.1726 27.7476 36.8265 27.1896C36.6232 26.862 36.3199 26.6461 36.0167 26.5705V26.5669Z" fill="white"/>
<path d="M29.0311 32.0857C29.0311 32.0857 29.0169 32.0641 29.0097 32.0533C28.5067 31.3982 27.7325 31.1498 27.2794 31.499C26.9191 31.7762 26.8763 32.3449 27.1224 32.8957C27.1367 32.9173 27.1545 32.9389 27.1688 32.9641C27.5755 33.6301 28.2998 33.7021 28.7671 33.3997C29.1453 33.1549 29.313 32.7445 29.0311 32.0857Z" fill="white"/>
<path d="M13.3319 37.1652L11.8796 37.9999V19.9173L13.3319 19.0826V37.1652Z" fill="#ECEEF1"/>
<path d="M34.6762 9.07851L13.8215 21.0702V17.6322L34.6762 5.64051V9.07851Z" fill="#DDDFE2"/>
<path d="M13.8215 17.6321L7.5145 14.004L28.3692 2.0123L34.6762 5.64039L13.8215 17.6321Z" fill="#F6F8FB"/>
<path d="M22.6016 5.84709L28.7883 2.26033L29.8879 2L23.7053 5.58676L22.6016 5.84709Z" fill="#DDDFE2"/>
<path d="M23.7053 5.58676L29.8878 2L33.0331 3.80578L26.8464 7.39254L23.7053 5.58676Z" fill="#F6F8FB"/>
<path d="M26.8463 7.39253L33.033 3.80577L34.1285 5.33055L27.9418 8.91731L26.8463 7.39253Z" fill="white"/>
<path d="M26.8464 7.39245L23.7053 5.58668L22.6016 5.84701L27.9418 8.91724L26.8464 7.39245Z" fill="#CCCCCC"/>
<path d="M7.96262 14.2644L14.1452 10.6776L15.2489 10.4173L9.0622 14.004L7.96262 14.2644Z" fill="#DDDFE2"/>
<path d="M9.06219 14.004L15.2489 10.4173L18.39 12.2272L12.2074 15.8139L9.06219 14.004Z" fill="#F6F8FB"/>
<path d="M12.2074 15.8138L18.39 12.2271L19.4854 13.7477L13.3029 17.3345L12.2074 15.8138Z" fill="white"/>
<path d="M13.8216 18.5948V17.632L13.2946 17.3262L12.2075 15.8139L9.06224 14.0039L7.96681 14.2643L7.51453 14.0039V35.4915L11.8797 37.9997V19.9502L13.8216 21.07L16.6265 22.6775V20.2064L13.8216 18.5948Z" fill="#BEC0C4"/>
<path d="M7.81329 32.1528V35.6652L11.5602 37.818V34.3057L7.81329 32.1528Z" fill="#0160CB"/>
<g opacity="0.7">
<path d="M11.8339 17.4916L10.4688 16.7065V16.4172L11.8339 17.2023V17.4916Z" fill="#96989C"/>
<path d="M11.7758 17.3636L10.3734 16.5578L10.448 16.3801L11.8505 17.1859L11.7758 17.3636Z" fill="white"/>
<path d="M11.8339 17.9794L10.4688 17.1942V16.905L11.8339 17.6901V17.9794Z" fill="#96989C"/>
<path d="M11.7758 17.8512L10.3734 17.0454L10.448 16.8677L11.8505 17.6735L11.7758 17.8512Z" fill="white"/>
<path d="M11.8339 18.4709L10.4688 17.6858V17.3965L11.8339 18.1816V18.4709Z" fill="#96989C"/>
<path d="M11.7758 18.3386L10.3734 17.5328L10.448 17.3551L11.8505 18.1609L11.7758 18.3386Z" fill="white"/>
<path d="M11.8339 18.9586L10.4688 18.1734V17.8842L11.8339 18.6693V18.9586Z" fill="#96989C"/>
<path d="M11.7758 18.8305L10.3734 18.0248L10.448 17.8471L11.8505 18.6529L11.7758 18.8305Z" fill="white"/>
<path d="M11.8339 19.4503L10.4688 18.6652V18.376L11.8339 19.1611V19.4503Z" fill="#96989C"/>
<path d="M11.7758 19.318L10.3734 18.5122L10.448 18.3345L11.8505 19.1403L11.7758 19.318Z" fill="white"/>
<path d="M9.17831 15.9626L7.81317 15.1775V14.8882L9.17831 15.6733V15.9626Z" fill="#96989C"/>
<path d="M9.12026 15.8345L7.71777 15.0287L7.79246 14.8511L9.19495 15.6568L9.12026 15.8345Z" fill="white"/>
<path d="M9.17831 16.4542L7.81317 15.6691V15.3799L9.17831 16.165V16.4542Z" fill="#96989C"/>
<path d="M9.12026 16.3262L7.71777 15.5204L7.79246 15.3427L9.19495 16.1485L9.12026 16.3262Z" fill="white"/>
<path d="M9.17831 16.942L7.81317 16.1569V15.8676L9.17831 16.6528V16.942Z" fill="#96989C"/>
<path d="M9.12026 16.8139L7.71777 16.0081L7.79246 15.8304L9.19495 16.6362L9.12026 16.8139Z" fill="white"/>
<path d="M9.17831 17.4337L7.81317 16.6486V16.3593L9.17831 17.1444V17.4337Z" fill="#96989C"/>
<path d="M9.12026 17.3055L7.71777 16.4998L7.79246 16.3221L9.19495 17.1279L9.12026 17.3055Z" fill="white"/>
<path d="M9.17831 17.9212L7.81317 17.1361V16.8468L9.17831 17.632V17.9212Z" fill="#96989C"/>
<path d="M9.12026 17.7932L7.71777 16.9874L7.79246 16.8097L9.19495 17.6155L9.12026 17.7932Z" fill="white"/>
</g>
<path d="M12.1534 22.839V35.1943C12.1617 35.6654 12.4771 36.1323 13.0995 36.4918C14.3609 37.2191 16.4107 37.2191 17.6721 36.4918C18.3111 36.1241 18.6264 35.6406 18.6181 35.1613V22.8059L12.1534 22.839Z" fill="url(#paint2_linear_4_163226)"/>
<path d="M15.3858 24.6819C17.171 24.6819 18.6181 23.8494 18.6181 22.8224C18.6181 21.7955 17.171 20.9629 15.3858 20.9629C13.6006 20.9629 12.1534 21.7955 12.1534 22.8224C12.1534 23.8494 13.6006 24.6819 15.3858 24.6819Z" fill="#007EF0"/>
<path d="M15.3858 23.7399C16.268 23.7399 16.9833 23.3292 16.9833 22.8225C16.9833 22.3159 16.268 21.9052 15.3858 21.9052C14.5035 21.9052 13.7883 22.3159 13.7883 22.8225C13.7883 23.3292 14.5035 23.7399 15.3858 23.7399Z" fill="white"/>
<path d="M14.3775 19.9959V22.8017C14.3775 22.9463 14.4771 23.095 14.6721 23.2066C15.0663 23.4339 15.7053 23.4339 16.0995 23.2066C16.2987 23.0909 16.3983 22.9422 16.3941 22.7893V19.9876L14.3775 20V19.9959Z" fill="#282A2E"/>
<path d="M16.0995 20.4009C15.7053 20.6282 15.0663 20.6282 14.6721 20.4009C14.2779 20.1736 14.2779 19.8059 14.6721 19.5827C15.0663 19.3596 15.7053 19.3555 16.0995 19.5827C16.4937 19.81 16.4937 20.1778 16.0995 20.4009Z" fill="#3C3E42"/>
<path d="M37.477 10.69L16.6265 22.6775V20.2064L37.477 8.21476V10.69Z" fill="#E7E9EC"/>
<path d="M17.39 20.6443L36.7136 9.53688V10.6691L17.39 21.7806V20.6443Z" fill="#0161CF"/>
<path d="M16.6265 20.2064L13.8174 18.5907L34.6679 6.60319L37.477 8.21475L16.6265 20.2064Z" fill="white"/>
<path d="M15.4024 19.0865L35.5309 7.51214L35.9998 7.78487L15.8713 19.3551L15.4024 19.0865Z" fill="#3C3E42"/>
<g style="mix-blend-mode:multiply" opacity="0.7">
<path d="M35.531 7.51214V8.05346L35.9999 7.78487L35.531 7.51214Z" fill="#CCCCCC"/>
</g>
<defs>
<linearGradient id="paint0_linear_4_163226" x1="31.5351" y1="18.7769" x2="37.9998" y2="18.7769" gradientUnits="userSpaceOnUse">
<stop stop-color="#0061D9"/>
<stop offset="1" stop-color="#005FC7"/>
</linearGradient>
<linearGradient id="paint1_linear_4_163226" x1="4.05722" y1="24.6055" x2="37.9395" y2="24.6055" gradientUnits="userSpaceOnUse">
<stop stop-color="#9AA5C0"/>
<stop offset="1" stop-color="#E9EDF5"/>
</linearGradient>
<linearGradient id="paint2_linear_4_163226" x1="12.1534" y1="29.9216" x2="18.6181" y2="29.9216" gradientUnits="userSpaceOnUse">
<stop stop-color="#0061D9"/>
<stop offset="1" stop-color="#005FC7"/>
</linearGradient>
</defs>
</svg>
