<svg width="24" height="24" viewBox="0 0 24 24" fill="none" xmlns="http://www.w3.org/2000/svg">
<rect x="8" y="3" width="8" height="18" rx="2" fill="#787A7E"/>
<rect x="11.5" y="3" width="1" height="18" fill="#5A5C60"/>
<path d="M10 6L8 5V6L10 7V6Z" fill="#5A5C60"/>
<path d="M10 9L8 8V9L10 10V9Z" fill="#5A5C60"/>
<path d="M10 12L8 11V12L10 13V12Z" fill="#5A5C60"/>
<path d="M10 15L8 14V15L10 16V15Z" fill="#5A5C60"/>
<path d="M10 18L8 17V18L10 19V18Z" fill="#5A5C60"/>
<path d="M16 18L14 19V18L16 17V18Z" fill="#5A5C60"/>
<path d="M16 15L14 16V15L16 14V15Z" fill="#5A5C60"/>
<path d="M16 12L14 13V12L16 11V12Z" fill="#5A5C60"/>
<path d="M16 9L14 10V9L16 8V9Z" fill="#5A5C60"/>
<path d="M16 6L14 7V6L16 5V6Z" fill="#5A5C60"/>
<path d="M6 9C6 7.89543 6.89543 7 8 7V17C6.89543 17 6 16.1046 6 15V9Z" fill="#BEC0C4"/>
<path d="M18 9C18 7.89543 17.1046 7 16 7V17C17.1046 17 18 16.1046 18 15V9Z" fill="#BEC0C4"/>
<rect x="2" y="11" width="4" height="2" fill="#DDDFE2"/>
<rect width="4" height="2" transform="matrix(-1 0 0 1 22 11)" fill="#DDDFE2"/>
</svg>
