<svg width="40" height="40" viewBox="0 0 40 40" fill="none" xmlns="http://www.w3.org/2000/svg">
<g clip-path="url(#clip0_4_163214)">
<path d="M26.8757 10.5246C26.4297 9.58455 25.9852 8.6445 25.5392 7.70446C26.1005 8.89125 26.4009 10.3853 26.3751 12.1489C26.275 18.7928 21.5754 26.7309 15.8761 29.8781L18.4883 29.7706C23.4352 27.0398 27.5143 20.1506 27.6008 14.3832C27.6236 12.8528 27.3626 11.5555 26.8757 10.5261V10.5246Z" fill="url(#paint0_linear_4_163214)"/>
<path d="M18.5141 28.0479C22.6448 25.7667 26.052 20.0129 26.1233 15.1976C26.1597 12.7196 25.3071 10.9712 23.907 10.1704L24.444 10.4777C25.8442 11.2785 26.6982 13.0269 26.6603 15.5049C26.5875 20.3217 23.1819 26.074 19.0511 28.3552C17.0457 29.4618 15.239 29.5481 13.9192 28.7927L13.3822 28.4854C14.702 29.2408 16.5102 29.156 18.5141 28.0479Z" fill="url(#paint1_linear_4_163214)"/>
<path d="M30.5149 7.4123L28.5838 6.30725C30.7364 7.53946 32.0486 10.2264 31.9909 14.0365C31.8802 21.4403 26.6421 30.2853 20.292 33.7927L22.2231 34.8977C28.5732 31.3918 33.8113 22.5454 33.922 15.1416C33.9797 11.3314 32.6675 8.64451 30.5149 7.4123Z" fill="#141414"/>
<path d="M8.46567 26.9247C8.48539 27.282 8.52483 27.7588 8.57185 28.113C8.70231 29.0712 8.91621 29.7827 9.00268 30.0446C9.12858 30.426 9.31366 30.9301 9.50024 31.2859C9.65649 31.5841 9.88101 31.9731 10.06 32.2592C10.1525 32.4076 10.2967 32.5907 10.4028 32.73C10.6319 33.0282 11.0005 33.4142 11.2008 33.5883C11.3237 33.6943 11.4829 33.8411 11.6149 33.9365C11.8455 34.1045 12.161 34.3164 12.4037 34.4648C14.4335 35.6273 17.211 35.4956 20.2935 33.7927C26.6436 30.2868 31.8817 21.4419 31.9925 14.0365C32.0501 10.2264 30.7379 7.53946 28.5853 6.30725C28.3001 6.15891 27.9133 5.97271 27.616 5.8501C27.4203 5.76987 27.1488 5.69418 26.947 5.63514C26.6208 5.53978 25.9943 5.42624 25.5119 5.40354C25.2101 5.38991 24.8065 5.39143 24.5047 5.40354C24.3029 5.41111 24.0344 5.43835 23.8357 5.47014C23.4413 5.53069 22.9194 5.64423 22.5311 5.74111C22.2944 5.80014 21.985 5.89702 21.7574 5.98634C21.5223 6.07868 21.2037 6.19221 20.9731 6.29666C20.6075 6.46317 20.1251 6.69629 19.7732 6.88854C18.8054 7.41836 17.9179 8.08441 17.9104 8.09047C17.657 8.28574 17.3172 8.5446 17.07 8.75047C16.7954 8.98056 16.4298 9.29088 16.1734 9.54217C15.6895 10.016 15.063 10.6669 14.6049 11.1649C14.3591 11.4329 14.0603 11.8158 13.8297 12.0959C13.3958 12.6212 12.6586 13.6747 12.4462 14.0169C12.2581 14.3196 12.0002 14.7177 11.8182 15.025C11.6361 15.3308 11.4116 15.7486 11.2357 16.0589C11.0612 16.3692 10.861 16.7991 10.7017 17.1155C10.6971 17.1246 10.239 18.0525 9.78392 19.2878C9.54575 19.9311 9.27421 20.8061 9.09673 21.4691C9.04819 21.6523 8.79333 22.6226 8.63253 23.7488C8.49297 24.7298 8.45656 25.5063 8.45201 25.9862C8.44898 26.2693 8.4505 26.6462 8.46567 26.9293V26.9247ZM11.7029 23.764C11.7757 18.9472 15.1813 13.1949 19.312 10.9136C23.4428 8.63239 26.7331 10.6881 26.6603 15.5049C26.5875 20.3217 23.1819 26.074 19.0511 28.3552C14.9204 30.6365 11.6301 28.5808 11.7029 23.764Z" fill="url(#paint2_linear_4_163214)"/>
<path d="M23.6036 30.9619C27.7343 28.6807 31.1414 22.9269 31.2127 18.1116C31.2491 15.6336 30.3966 13.8852 28.9964 13.0844L29.5501 13.4023C30.9503 14.203 31.8043 15.9514 31.7664 18.4295C31.6936 23.2463 28.288 28.9986 24.1573 31.2798C22.1518 32.3864 20.3451 32.4727 19.0253 31.7173L18.4716 31.3994C19.7929 32.1548 21.5996 32.07 23.6036 30.9619Z" fill="url(#paint3_linear_4_163214)"/>
<path d="M15.0933 25.4049C15.1206 25.2656 15.1479 25.1248 15.1768 24.9856C14.9978 25.8893 14.8976 26.787 14.884 27.6589C14.7945 33.661 18.8949 36.2238 24.0435 33.3809C29.1921 30.5381 33.4381 23.3674 33.5276 17.3653C33.6171 11.3632 29.5167 8.80042 24.3681 11.6433C23.4761 12.1368 22.61 12.7589 21.7893 13.4825C21.897 13.3886 22.0032 13.2933 22.1109 13.1994C22.9816 12.4304 23.9009 11.7704 24.8475 11.2467C30.3101 8.22973 34.6623 10.9485 34.5668 17.3184C34.4712 23.6883 29.9658 31.298 24.5016 34.3149C19.039 37.3318 14.6868 34.6131 14.7824 28.2432C14.796 27.3183 14.9037 26.3661 15.0918 25.4064L15.0933 25.4049Z" fill="url(#paint4_linear_4_163214)"/>
<path d="M14.884 27.6574C14.9735 21.6553 19.2195 14.4846 24.3681 11.6418C29.5167 8.79891 33.6171 11.3602 33.5276 17.3638C33.4381 23.3659 29.1921 30.5365 24.0435 33.3794C18.8949 36.2222 14.7945 33.661 14.884 27.6574ZM24.0571 32.4076C28.7446 29.819 32.6114 23.2902 32.6933 17.824C32.7752 12.3578 29.0419 10.0251 24.353 12.6136C19.6655 15.2021 15.7987 21.731 15.7168 27.1972C15.6349 32.6634 19.3682 34.9961 24.0571 32.4076Z" fill="url(#paint5_linear_4_163214)"/>
<path d="M14.3606 28.7382C14.259 35.5305 18.8994 38.4293 24.7246 35.2126C30.5498 31.9958 35.3556 23.8805 35.4572 17.0883C35.5589 10.296 30.9184 7.39716 25.0932 10.6139C24.0753 11.1755 23.0893 11.887 22.1549 12.7135C18.5171 15.9302 15.647 20.903 14.6959 25.6865C14.8127 25.6547 14.9052 25.6123 14.9735 25.5608C14.9052 25.6123 14.8127 25.6562 14.6959 25.6865C14.4911 26.7188 14.3743 27.7421 14.3591 28.7382H14.3606ZM14.7824 28.2417C14.796 27.3092 14.9052 26.3495 15.0979 25.3807C15.2177 24.8448 15.3816 24.1318 15.5408 23.6081C15.6303 23.3114 15.7593 22.9178 15.8624 22.6256C15.9641 22.335 16.1158 21.9535 16.2265 21.6674C16.4996 20.9605 17.1367 19.6238 17.654 18.7489C17.9801 18.1964 18.4352 17.4728 18.8008 16.946C19.1194 16.4873 19.579 15.9 19.9279 15.464C20.3178 14.9781 20.5772 14.7071 21.2735 13.9851C21.5071 13.7429 21.8408 13.4401 22.0927 13.2161C22.9695 12.441 23.8948 11.7735 24.8475 11.2467C30.3101 8.22973 34.6623 10.9485 34.5668 17.3184C34.4712 23.6883 29.9658 31.298 24.5016 34.3149C19.039 37.3318 14.6868 34.6131 14.7824 28.2432V28.2417Z" fill="url(#paint6_linear_4_163214)"/>
<path d="M3.00133 25.0551C3.12724 16.6476 9.07378 6.60534 16.284 2.62414C19.7958 0.685009 22.9602 0.541202 25.2675 1.87634C27.6795 3.27203 30.0915 4.66772 32.5035 6.0619C30.2007 4.72978 27.0439 4.87359 23.5397 6.80818C16.3447 10.7803 10.4102 20.8029 10.2843 29.1922C10.2525 31.3342 10.6029 33.1628 11.2613 34.6327C12.6781 34.4692 14.2163 33.9575 15.8289 33.0674L23.0846 37.1879C19.6046 39.1089 16.4675 39.2633 14.1708 37.9629C11.7467 36.59 9.32105 35.217 6.89692 33.844C4.43639 32.4513 2.9361 29.395 3.00133 25.0551Z" fill="url(#paint7_linear_4_163214)"/>
<path d="M13.4853 29.2211C13.5961 21.8642 18.7993 13.0768 25.1084 9.59363C31.4175 6.11046 36.4433 9.24849 36.3325 16.6054C36.2218 23.9623 31.0186 32.7497 24.7095 36.2328C18.4004 39.716 13.3746 36.578 13.4853 29.2211ZM24.7474 33.7518C29.8808 30.9165 34.1147 23.767 34.2042 17.7816C34.2937 11.7962 30.2055 9.24092 25.072 12.0762C19.9386 14.9115 15.7047 22.061 15.6152 28.0464C15.5257 34.0318 19.6139 36.5871 24.7474 33.7518Z" fill="url(#paint8_linear_4_163214)"/>
<path d="M24.2043 37.2955C24.4956 37.1229 24.8885 36.9034 25.1736 36.7203C25.5225 36.4947 25.9792 36.1799 26.3159 35.9346C26.9045 35.5047 27.6494 34.8765 28.1848 34.3815C29.1254 33.5126 29.8217 32.7209 30.0507 32.4605C30.8335 31.5704 31.3902 30.8105 31.7224 30.3579C31.8438 30.1929 32.4855 29.3059 33.1954 28.107C33.6505 27.338 34.0753 26.5432 34.4575 25.744C35.5391 23.4779 36.0322 21.7264 36.2703 20.8303C36.3674 20.464 36.6116 19.4921 36.78 18.3568C36.9651 17.1004 36.9879 16.2163 36.9954 15.9257C37.0152 15.1234 36.9848 14.3726 36.9029 13.6308C36.8619 13.263 36.7815 12.774 36.7118 12.4092C36.6632 12.1504 36.5722 11.8113 36.507 11.557C36.4144 11.1952 36.2415 10.7274 36.111 10.3793C36.0322 10.1673 35.8987 9.89639 35.8061 9.69051C35.6484 9.33932 35.392 8.88822 35.166 8.57638C34.9324 8.25547 34.6062 7.83918 34.3468 7.53794C34.2118 7.38051 34.0085 7.19432 33.8583 7.05203C33.7233 6.92487 33.5337 6.7629 33.3835 6.65239C33.1287 6.46469 32.7767 6.22854 32.5082 6.06202C30.2055 4.7284 27.0471 4.87221 23.5429 6.8068C16.3479 10.7789 10.4135 20.8015 10.2876 29.1908C10.2223 33.5247 11.7211 36.5749 14.1756 37.9631C14.3394 38.0478 14.5548 38.1689 14.7232 38.2446C14.9325 38.34 15.2177 38.4566 15.4347 38.5338C15.7927 38.6624 16.2887 38.776 16.6589 38.8577C16.9607 38.9243 17.3734 38.9637 17.6813 38.9818C18.0257 39.0015 18.4868 39.0045 18.8312 38.9818C19.0602 38.9667 19.3682 38.944 19.5942 38.9061C20.0432 38.8289 20.6455 38.7336 21.0793 38.5973C21.6163 38.4293 22.3278 38.1826 22.8481 37.9661C23.2683 37.792 23.8053 37.5089 24.2058 37.2955C24.5107 37.1275 24.7034 36.7581 24.711 36.2328C18.4019 39.716 13.3761 36.578 13.4869 29.2211C13.5976 21.8642 18.8008 13.0768 25.1099 9.59363C31.419 6.11046 36.4448 9.2485 36.334 16.6054C36.2233 23.9623 31.0201 32.7497 24.711 36.2328C24.7034 36.7581 24.5107 37.1275 24.2058 37.2955H24.2043Z" fill="url(#paint9_linear_4_163214)"/>
<path d="M31.9196 5.729L31.6906 5.59578L31.7573 5.6306C31.8984 5.71234 32.088 5.82133 32.2291 5.90308L31.9196 5.729ZM25.7046 2.13381L26.014 2.3094C25.873 2.22766 25.6833 2.11867 25.5423 2.03693L25.474 2.00211L25.7031 2.13532L25.7046 2.13381ZM30.1888 4.72537C29.9703 4.60124 29.6578 4.47711 29.4303 4.37115C29.8383 4.6073 30.2479 4.84344 30.656 5.07959L31.2764 5.38083L31.4145 5.43533C31.0064 5.19918 30.5968 4.96303 30.1888 4.72688V4.72537ZM31.3978 5.45046L30.7774 5.14922L30.6135 5.14468L30.8426 5.27789L31.4767 5.5534L31.6284 5.58216L31.3993 5.44895L31.3978 5.45046ZM29.6654 4.4211C29.4788 4.31363 29.2285 4.16831 29.0419 4.06083L28.9873 4.02904C29.0237 4.05326 29.0723 4.08505 29.1056 4.11078L29.6654 4.41959V4.4211ZM30.0583 4.64968L30.0082 4.61941L29.8065 4.50285L29.1345 4.13349C29.186 4.18042 29.2528 4.24551 29.2998 4.29698C29.5274 4.40294 29.8383 4.5301 30.0598 4.6512L30.0583 4.64968ZM26.1415 2.38358L25.5332 2.05812L25.3815 2.02784C25.7895 2.26399 26.1991 2.50014 26.6072 2.73629C26.8408 2.82711 27.1396 2.98454 27.3672 3.09202C26.9591 2.85587 26.5495 2.61973 26.1415 2.38358ZM25.1827 1.85528L24.5608 1.55404L24.3954 1.5495L24.6245 1.68271L25.2586 1.95821L25.4103 1.98849L25.1812 1.85528H25.1827ZM28.6763 3.8489L28.7309 3.88069C28.5444 3.77321 28.2941 3.62789 28.1075 3.52041L27.9831 3.46289C28.1909 3.57945 28.47 3.73234 28.6763 3.85042V3.8489ZM27.8162 3.37055L27.9679 3.43867L27.7662 3.32211L27.481 3.15863C27.2534 3.05266 26.9546 2.89523 26.721 2.8044C27.0517 2.97243 27.484 3.20858 27.8177 3.37055H27.8162ZM29.1208 4.25762C28.8857 4.15165 28.5398 4.10624 28.2895 4.04115C28.6976 4.2773 29.1072 4.51344 29.5152 4.74959L30.1706 4.9812L30.345 4.96606C29.9369 4.72991 29.5274 4.49376 29.1193 4.25762H29.1208ZM30.2934 5.05234L29.6381 4.82074L29.4394 4.88734L29.67 5.02055L30.3374 5.22643L30.524 5.18555L30.295 5.05234H30.2934ZM28.7006 3.87615C28.4897 3.73688 28.156 3.64909 27.9239 3.5522C27.9527 3.59156 27.9861 3.64757 28.0134 3.68844C28.2804 3.79441 28.6293 3.94881 28.8933 4.06234C28.828 3.98665 28.8235 3.98363 28.7021 3.87766L28.7006 3.87615ZM28.916 4.08959C28.6915 3.91097 28.2986 3.83225 28.0331 3.72326C28.0726 3.79592 28.1211 3.89583 28.156 3.97C28.4093 4.01844 28.7385 4.11987 28.9873 4.18496L28.916 4.08959ZM25.0705 1.91734L24.4258 1.66L24.2392 1.70087C24.6472 1.93702 25.0568 2.17317 25.4649 2.40931C25.7182 2.45775 26.0474 2.56069 26.2962 2.62578C25.8881 2.38963 25.4786 2.15349 25.0705 1.91734ZM24.0753 1.45716L23.4185 1.22555L23.2198 1.29216L23.4504 1.42537L24.1193 1.63124L24.3059 1.59037L24.0769 1.45716H24.0753ZM28.3881 3.69601C27.933 3.44927 27.9027 3.43262 27.1214 3.03752C27.0517 3.03147 26.9576 3.03752 26.8878 3.03752C27.1063 3.13592 27.3945 3.27064 27.6114 3.37207C27.8511 3.45381 28.156 3.59913 28.3881 3.69601ZM26.9515 2.95427L26.4085 2.6939C26.1642 2.61367 25.8259 2.54252 25.5772 2.47895C25.92 2.62124 26.3751 2.81349 26.7164 2.96184C26.7862 2.95427 26.8818 2.95578 26.9531 2.95427H26.9515ZM27.9512 3.98665C27.6964 3.89886 27.3247 3.93519 27.0562 3.91399L28.2834 4.62395L28.9706 4.78289L29.1785 4.69661C28.7704 4.46046 28.3608 4.22431 27.9527 3.98665H27.9512ZM29.092 4.85253L28.4048 4.69358L28.1757 4.83285L28.4063 4.96606L29.1041 5.09927L29.3226 4.98725L29.092 4.85404V4.85253ZM27.6054 3.45381C27.3551 3.38266 27.0137 3.32514 26.7589 3.27064C26.7786 3.32817 26.8029 3.40386 26.8226 3.46138C27.1017 3.53707 27.4719 3.65363 27.7495 3.73688C27.7009 3.62638 27.6979 3.61881 27.6069 3.45381H27.6054ZM27.7646 3.77775C27.4885 3.68996 27.1154 3.58853 26.8362 3.50982C26.8636 3.60973 26.8969 3.74294 26.9197 3.84436C27.1897 3.85042 27.5477 3.89431 27.8177 3.91551L27.7646 3.77775ZM23.9009 1.64486L23.2228 1.46018L23.0044 1.5722C23.1545 1.66 23.3563 1.77505 23.5065 1.86284C23.7234 1.98849 24.0132 2.15651 24.2301 2.28216C24.5001 2.28821 24.8581 2.33362 25.1266 2.35482C24.9764 2.26702 24.7747 2.15197 24.6245 2.06417C24.4076 1.93853 24.1178 1.7705 23.9009 1.64486ZM22.8724 1.25583L22.1837 1.09688L21.9546 1.23615L22.1852 1.36936L22.8845 1.50257L23.103 1.39055L22.8724 1.25734V1.25583ZM27.2944 3.27367C26.8211 3.06174 26.774 3.04207 25.9792 2.71207C25.8942 2.73629 25.7835 2.78018 25.7 2.81046C25.9261 2.8922 26.2249 3.00574 26.4494 3.08899C26.7058 3.12835 27.0426 3.21766 27.2959 3.27216L27.2944 3.27367ZM25.8017 2.64243L25.2389 2.42294C24.9719 2.38509 24.6108 2.37298 24.3408 2.35179C24.6958 2.46684 25.1676 2.62578 25.5195 2.74688C25.6014 2.71055 25.7167 2.67271 25.8017 2.64092V2.64243ZM26.6952 3.91551C26.4176 3.84436 26.0277 3.96698 25.741 3.98968C26.1506 4.22583 26.5586 4.46198 26.9682 4.69964L27.6842 4.78441L27.9209 4.62546C27.5113 4.38932 27.1032 4.15317 26.6936 3.91551H26.6952ZM27.8071 4.85404L27.0911 4.76927L26.8332 4.98271L27.0638 5.11592L27.7904 5.17344L28.0377 4.98725L27.8071 4.85404ZM26.4176 3.22674C26.146 3.1995 25.7804 3.19798 25.5074 3.18739C25.521 3.26156 25.5347 3.36147 25.5468 3.43564C25.8381 3.48106 26.2234 3.55675 26.5146 3.60973C26.4828 3.46138 26.4798 3.4523 26.4176 3.22674ZM26.5268 3.66422C26.237 3.6067 25.8487 3.54615 25.5574 3.49619C25.5741 3.62335 25.5938 3.79289 25.606 3.92005C25.8912 3.8822 26.275 3.86707 26.5617 3.84436L26.5268 3.66422ZM22.6448 1.5722L21.9379 1.46018L21.6907 1.64638C22.1002 1.88252 22.5083 2.11867 22.9179 2.35633C23.2031 2.31849 23.5854 2.30335 23.8721 2.28216C23.7219 2.19436 23.5201 2.07931 23.37 1.99151C23.153 1.86587 22.8633 1.69784 22.6448 1.5722ZM21.586 1.25734L20.8685 1.17257L20.6106 1.38601L20.8412 1.51922L21.5693 1.57674L21.8166 1.39055L21.586 1.25734ZM26.1066 3.04661C25.6151 2.87101 25.5832 2.86041 24.7443 2.58642C24.6457 2.64243 24.5198 2.72569 24.4243 2.78624C24.6563 2.85133 24.9658 2.94064 25.1979 3.00725C25.471 3.00422 25.835 3.0345 26.1081 3.04661H26.1066ZM24.5623 2.5289L23.9813 2.3533C23.6931 2.36087 23.3123 2.40629 23.0256 2.42899C23.3912 2.51679 23.8766 2.64092 24.2392 2.73477C24.3332 2.66968 24.4652 2.58945 24.5623 2.5289ZM25.3602 4.04872C25.0553 3.99422 24.6563 4.20615 24.356 4.27427C24.7656 4.51042 25.1752 4.74656 25.5832 4.98271L26.325 4.99179L26.5875 4.75716C26.1779 4.52101 25.7698 4.28487 25.3602 4.04872ZM26.4464 5.06294L25.7046 5.05386L25.4239 5.3445L25.6545 5.47771L26.4054 5.45803L26.677 5.19615L26.4464 5.06294ZM25.1418 3.20101C24.8505 3.21766 24.4652 3.2767 24.1755 3.31C24.1815 3.40234 24.1891 3.52496 24.1952 3.6173C24.4971 3.63092 24.8991 3.66574 25.1994 3.68844C25.1812 3.50225 25.1797 3.4856 25.1418 3.20101ZM25.2055 3.75656C24.9036 3.73083 24.5001 3.71115 24.1982 3.69298C24.2058 3.84739 24.2119 4.05477 24.2179 4.20918C24.5168 4.12743 24.9233 4.04872 25.2252 3.9806L25.2055 3.75656ZM21.3069 1.70693L20.5726 1.6706L20.2996 1.93399C20.7092 2.17014 21.1188 2.40629 21.5268 2.64243C21.8257 2.56069 22.2307 2.48349 22.5326 2.41688C22.123 2.18073 21.7149 1.94459 21.3053 1.70844L21.3069 1.70693ZM20.2207 1.46775L19.4789 1.45867L19.1967 1.74931L19.4273 1.88252L20.1798 1.86284L20.4528 1.59945L20.2222 1.46624L20.2207 1.46775ZM24.8293 3.02087C24.3226 2.88161 24.2892 2.87404 23.4261 2.66362C23.3169 2.75142 23.1758 2.87555 23.0681 2.96638C23.3062 3.0133 23.6233 3.07991 23.8615 3.12986C24.1497 3.08294 24.538 3.05418 24.8278 3.02087H24.8293ZM23.2395 2.61973L22.6418 2.48803C22.3369 2.54101 21.9364 2.64697 21.6345 2.71661C22.0092 2.77716 22.5068 2.86344 22.88 2.93005C22.9862 2.83468 23.1318 2.71207 23.2395 2.61973ZM23.9525 4.39234C23.6324 4.49376 23.2183 4.65876 22.9027 4.77381C23.3123 5.00996 23.7219 5.24611 24.1315 5.48225L24.8945 5.41262L25.1797 5.10078C24.7701 4.86464 24.3605 4.62849 23.9525 4.39234ZM25.0159 5.48377L24.2528 5.5534L23.951 5.92427L24.1815 6.05748L24.9537 5.95909L25.2465 5.61849L25.0159 5.48528V5.48377ZM23.7871 3.38115C23.4792 3.44473 23.0757 3.56431 22.7707 3.64303C22.7707 3.75353 22.7707 3.90037 22.7707 4.01087C23.0817 3.99271 23.4974 3.98514 23.8084 3.97606C23.8023 3.75051 23.8023 3.72931 23.7856 3.38266L23.7871 3.38115ZM23.8114 4.05629C23.4989 4.06234 23.0832 4.08505 22.7723 4.09867C22.7723 4.28184 22.7677 4.52555 22.7647 4.70872C23.0757 4.58005 23.5004 4.43927 23.8159 4.32422L23.8114 4.05477V4.05629ZM19.8976 2.05055L19.1406 2.09142L18.8463 2.43202C19.2559 2.66817 19.6655 2.90431 20.0751 3.14046C20.3845 3.0133 20.8108 2.87252 21.1248 2.75748C20.7152 2.52133 20.3057 2.28518 19.8976 2.04904V2.05055ZM18.7887 1.88858L18.0241 1.95821L17.7207 2.32908L17.9513 2.46229L18.7235 2.36239L19.0177 2.02179L18.7872 1.88858H18.7887ZM23.4746 3.20101C22.9558 3.1011 22.9209 3.09505 22.0365 2.95124C21.9167 3.07234 21.7635 3.23734 21.6467 3.36147C21.8909 3.39023 22.2155 3.43262 22.4583 3.46441C22.7586 3.37207 23.1697 3.28124 23.4746 3.20252V3.20101ZM21.8454 2.92096L21.234 2.83468C20.914 2.9361 20.4968 3.10413 20.1813 3.21918C20.5635 3.25096 21.0717 3.29941 21.4525 3.33876C21.5678 3.21161 21.7271 3.04661 21.8439 2.92248L21.8454 2.92096ZM22.4856 4.95395C22.1533 5.10381 21.7225 5.3339 21.3964 5.49739C21.8059 5.73354 22.2155 5.96968 22.6251 6.20583L23.4079 6.05445L23.7128 5.66239C23.3032 5.42624 22.8936 5.1901 22.484 4.95395H22.4856ZM23.5308 6.1256L22.748 6.27698L22.4355 6.72505L22.6661 6.85826L23.4488 6.68115L23.7613 6.25881L23.5308 6.1256ZM22.3657 3.77473C22.0426 3.88675 21.6239 4.06688 21.3069 4.19253C21.3038 4.3212 21.2978 4.49376 21.2932 4.62243C21.6118 4.57248 22.038 4.5195 22.3581 4.47711C22.3627 4.21069 22.3642 4.16831 22.3657 3.77473ZM22.3566 4.57399C22.035 4.61335 21.6103 4.67996 21.2902 4.72688C21.2826 4.93881 21.2705 5.22188 21.2614 5.43533C21.5814 5.25973 22.0244 5.05386 22.3505 4.89037L22.3566 4.57399ZM18.4292 2.61216L17.6525 2.73326L17.3385 3.1556C17.748 3.39174 18.1576 3.62789 18.5672 3.86404C18.8873 3.68844 19.3302 3.48408 19.6579 3.3206C19.2483 3.08445 18.8387 2.8483 18.4292 2.61216ZM17.3005 2.53041L16.5163 2.68179L16.2022 3.12986L16.4328 3.26308L17.2171 3.08596L17.5311 2.66362L17.3005 2.53041ZM22.0532 3.59308C21.5223 3.53252 21.4874 3.5295 20.5833 3.4523C20.4558 3.60519 20.2905 3.8156 20.1661 3.97152C20.4149 3.9806 20.7456 3.99876 20.9944 4.01239C21.3069 3.87464 21.7362 3.71872 22.0532 3.59459V3.59308ZM20.3891 3.43716L19.7656 3.39629C19.4319 3.54766 19.0026 3.77775 18.6749 3.94124C19.0633 3.94427 19.5805 3.95335 19.9689 3.96243C20.0918 3.80197 20.2617 3.59308 20.3891 3.43564V3.43716ZM20.9701 5.73656C20.6379 5.93033 20.2101 6.21643 19.8855 6.42079C20.295 6.65693 20.7046 6.89308 21.1142 7.12923L21.8894 6.91124L22.1988 6.44501C22.0471 6.35721 21.8469 6.24216 21.6952 6.15436C21.4783 6.02872 21.187 5.86221 20.9701 5.73656ZM22.0123 6.98239L21.2371 7.20037L20.9398 7.71051L21.1703 7.84372L21.9379 7.60455L22.2428 7.1156L22.0123 6.98239ZM20.8867 4.38629C20.5514 4.54675 20.1206 4.79046 19.7929 4.96455C19.7869 5.11138 19.7793 5.30666 19.7732 5.45349C20.0963 5.37175 20.5287 5.27638 20.8533 5.20069C20.8685 4.89037 20.8685 4.85253 20.8867 4.38629ZM20.8487 5.31271C20.5241 5.38386 20.0933 5.49285 19.7702 5.57005C19.7626 5.80771 19.755 6.12257 19.7504 6.36023C20.069 6.14377 20.5089 5.88037 20.8351 5.6745L20.8487 5.31271ZM16.9122 3.39629L16.1325 3.59156L15.826 4.08202C16.2356 4.31817 16.6452 4.55432 17.0548 4.79046C17.3733 4.57399 17.8148 4.3106 18.1409 4.10473C17.7313 3.86858 17.3218 3.63243 16.9122 3.39629ZM15.779 3.38872L15.0023 3.60821L14.7035 4.11835L14.934 4.25156L15.7032 4.01239L16.0096 3.52193L15.779 3.38872ZM20.5726 4.20464C20.0311 4.18496 19.978 4.18344 19.0769 4.17587C18.9434 4.36055 18.7735 4.61335 18.6446 4.80257C18.8949 4.795 19.2286 4.78895 19.4789 4.78289C19.8005 4.59821 20.245 4.3772 20.5726 4.20464ZM18.8782 4.17739L18.2471 4.18344C17.9149 4.37872 17.4871 4.66331 17.161 4.86918C17.5463 4.84799 18.0605 4.82377 18.4474 4.80863C18.5733 4.61638 18.7477 4.36661 18.8782 4.17739ZM19.4683 6.71143C19.1467 6.94303 18.7326 7.27303 18.4185 7.51524C18.8281 7.75138 19.2377 7.98753 19.6488 8.22368L20.4043 7.94817L20.6986 7.42138C20.289 7.18524 19.8794 6.94909 19.4698 6.71294L19.4683 6.71143ZM20.5256 8.01781L19.7702 8.29331L19.4926 8.85946L19.7231 8.99267L20.471 8.69748L20.7562 8.15102L20.5256 8.01781ZM19.3636 5.21886C19.0329 5.4217 18.6082 5.7184 18.285 5.93184C18.2835 6.0923 18.282 6.30574 18.2805 6.4662C18.596 6.36023 19.0208 6.23005 19.3378 6.12863C19.3429 5.9056 19.351 5.60184 19.3621 5.21734L19.3636 5.21886ZM19.3363 6.25276C19.0177 6.34964 18.5975 6.49193 18.2805 6.59487C18.2805 6.85221 18.2805 7.19735 18.282 7.45469C18.5884 7.20491 19.0162 6.89157 19.3302 6.65088L19.3363 6.25124V6.25276ZM15.4073 4.37266L14.6428 4.63L14.3561 5.17647C14.5078 5.26276 14.708 5.37932 14.8597 5.46711C15.0782 5.59276 15.3679 5.75927 15.5863 5.88491C15.8943 5.63514 16.3221 5.32179 16.6376 5.0811C16.228 4.84496 15.8184 4.60881 15.4089 4.37266H15.4073ZM14.2893 4.42716L13.5324 4.70266L13.2532 5.26881L13.4838 5.40202L14.2332 5.10684L14.5199 4.56037L14.2893 4.42716ZM19.0496 5.03872C18.5111 5.05537 18.4762 5.0584 17.5614 5.10684C17.4355 5.31725 17.2747 5.60335 17.1519 5.81679C17.3976 5.7956 17.7253 5.76987 17.971 5.7517C18.2881 5.52766 18.725 5.25216 19.0496 5.03872ZM17.3673 5.11895L16.7438 5.16285C16.4222 5.39445 16.0096 5.72597 15.6956 5.96666C16.0748 5.92427 16.58 5.8728 16.9592 5.83496C17.0775 5.61849 17.2444 5.3339 17.3673 5.11895ZM18.0181 7.84826C17.7086 8.11317 17.3127 8.48556 17.0108 8.75804C17.4204 8.99418 17.8315 9.23033 18.2411 9.46496L18.9753 9.13799L19.2483 8.5567C18.8387 8.32056 18.4292 8.08441 18.0181 7.84826ZM19.0966 9.20762L18.3624 9.5346L18.1076 10.1507L18.3381 10.2839L19.0633 9.93877L19.3272 9.34083L19.0966 9.20762ZM17.8739 6.23156C17.5539 6.47074 17.1443 6.81134 16.8333 7.06111C16.8363 7.23368 16.8409 7.46528 16.8439 7.63785C17.1519 7.50918 17.5645 7.34721 17.8739 7.22459C17.8719 6.98239 17.8719 6.65138 17.8739 6.23156ZM17.8755 7.3578C17.5645 7.47891 17.1549 7.64996 16.847 7.7756C16.8545 8.05262 16.8652 8.42198 16.8758 8.699C17.1701 8.41744 17.5797 8.0617 17.8815 7.78923L17.8755 7.3578ZM13.9556 5.5095L13.2108 5.82134L12.9468 6.42079C13.3564 6.65693 13.7675 6.89308 14.1771 7.12771C14.4729 6.84615 14.8825 6.49042 15.1859 6.21643C14.7763 5.98028 14.3667 5.74413 13.9556 5.50799V5.5095ZM12.8588 5.61849L12.1231 5.94698L11.8667 6.56308L12.0973 6.69629L12.8239 6.35115L13.0879 5.7517L12.8573 5.61849H12.8588ZM17.5599 6.05143C17.0305 6.09835 16.9774 6.10441 16.0976 6.20129C15.9792 6.43592 15.8291 6.7523 15.7153 6.98845C15.9565 6.95514 16.2781 6.91276 16.5193 6.87946C16.8242 6.62212 17.2474 6.29968 17.5599 6.04991V6.05143ZM15.9049 6.224L15.2936 6.3012C14.9841 6.56611 14.5882 6.93849 14.2863 7.21097C14.658 7.15042 15.1525 7.0717 15.5241 7.01569C15.6349 6.77652 15.7896 6.46166 15.9049 6.224ZM16.627 9.13042C16.3312 9.42409 15.955 9.83281 15.6683 10.1356C16.0778 10.3717 16.4889 10.6063 16.8985 10.8425L17.6085 10.4686L17.8573 9.83886C17.7056 9.75258 17.5038 9.63602 17.3536 9.54973C17.1352 9.42409 16.8454 9.25758 16.627 9.13194V9.13042ZM17.7298 10.5382L17.0199 10.9121L16.7923 11.5721L17.0229 11.7053L17.7222 11.3163L17.9604 10.6714L17.7298 10.5382ZM16.4343 7.40322C16.1279 7.67418 15.7365 8.05565 15.4362 8.3357C15.4437 8.52037 15.4574 8.7656 15.465 8.95028C15.7623 8.80193 16.1643 8.61271 16.4632 8.46739C16.4495 8.07684 16.4495 8.06473 16.4328 7.4017L16.4343 7.40322ZM16.4707 8.61271C16.1704 8.75501 15.7729 8.95331 15.4741 9.09863C15.4908 9.3923 15.515 9.78437 15.5333 10.078C15.8124 9.76923 16.2022 9.37565 16.4905 9.07441L16.4707 8.61271ZM12.563 6.79468L11.8424 7.15496L11.6028 7.79982C11.7545 7.88611 11.9562 8.00267 12.1064 8.08895C12.3248 8.21459 12.6146 8.38111 12.833 8.50675C13.1137 8.19794 13.5051 7.80285 13.7933 7.50161C13.3837 7.26547 12.9726 7.02932 12.563 6.79468ZM11.489 6.95212L10.779 7.32753L10.55 7.98904L10.7806 8.12225L11.4814 7.7317L11.7211 7.08684L11.4905 6.95363L11.489 6.95212ZM16.1203 7.22308C15.6015 7.29725 15.5499 7.30634 14.6868 7.44712C14.5776 7.70294 14.441 8.04505 14.3364 8.30239C14.5715 8.25698 14.887 8.19946 15.1222 8.15556C15.4134 7.86794 15.82 7.50161 16.1203 7.22308ZM14.4987 7.47891L13.8995 7.58638C13.6052 7.88005 13.229 8.29028 12.9423 8.59152C13.3048 8.51432 13.7872 8.4129 14.1513 8.34024C14.2529 8.08138 14.394 7.73776 14.4987 7.48042V7.47891ZM15.3027 10.5428C15.0251 10.8622 14.6716 11.3027 14.4016 11.6281C14.5533 11.7144 14.755 11.831 14.9052 11.9173C15.1237 12.0429 15.4134 12.2094 15.6319 12.3351L16.313 11.9203L16.5329 11.2497C16.1234 11.0135 15.7123 10.7789 15.3027 10.5428ZM16.4359 11.9914L15.7547 12.4062L15.556 13.104L15.7866 13.2357L16.4556 12.8089L16.6649 12.1246L16.4343 11.9914H16.4359ZM15.0584 8.71716C14.7672 9.01689 14.3955 9.43469 14.1118 9.74198C14.127 9.93726 14.1467 10.1961 14.1619 10.3899C14.4486 10.2234 14.8354 10.0099 15.1237 9.84795C15.1055 9.57345 15.0837 9.19652 15.0584 8.71716ZM15.1343 9.99932C14.8445 10.1598 14.4623 10.3808 14.174 10.5458C14.2013 10.8546 14.2378 11.2648 14.2681 11.5736C14.5305 11.2406 14.8992 10.8122 15.1692 10.4868L15.1343 9.99932ZM11.2387 8.20854L10.5469 8.60969L10.3361 9.29542C10.4878 9.38171 10.6895 9.49827 10.8397 9.58455C11.0582 9.71019 11.3479 9.87671 11.5664 10.0023C11.8288 9.66932 12.1974 9.24093 12.469 8.91547C12.0594 8.67932 11.6483 8.44469 11.2387 8.20854ZM10.1935 8.40684L9.51237 8.82161L9.31365 9.52097L9.54423 9.65267L10.2147 9.22427L10.4256 8.53854L10.195 8.40533L10.1935 8.40684ZM14.7444 8.53551C14.2378 8.63542 14.2044 8.64148 13.3458 8.82464C13.2487 9.09863 13.1258 9.46496 13.0318 9.74047C13.2608 9.68446 13.5672 9.61331 13.7963 9.56033C14.0724 9.24547 14.4592 8.84281 14.7429 8.53551H14.7444ZM13.1622 8.86551L12.5797 8.99872C12.3021 9.31813 11.9486 9.76015 11.6786 10.0856C12.0306 9.99327 12.4993 9.87368 12.8528 9.78437C12.9423 9.50735 13.0697 9.14102 13.1637 8.86551H13.1622ZM14.0618 12.0671C13.8024 12.4077 13.4747 12.877 13.2229 13.2236C13.634 13.4583 14.0436 13.6944 14.4547 13.9291L15.1039 13.4795L15.2936 12.7725C14.8825 12.5364 14.4729 12.3018 14.0618 12.0656V12.0671ZM15.2253 13.5506L14.576 14.0002L14.4107 14.7298L14.6413 14.8615L15.2769 14.4013L15.4544 13.6823L15.2238 13.5506H15.2253ZM13.7538 10.1552C13.4793 10.4807 13.1319 10.9288 12.8649 11.2603C12.8861 11.4631 12.9165 11.7341 12.9392 11.9369C13.2138 11.7553 13.5839 11.5207 13.86 11.342C13.8175 10.9106 13.8115 10.8379 13.7538 10.1537V10.1552ZM13.8752 11.501C13.5976 11.6781 13.232 11.9203 12.9559 12.1004C12.9953 12.4213 13.0484 12.8482 13.0894 13.1691C13.3321 12.8164 13.6765 12.3593 13.9268 12.0111L13.8737 11.501H13.8752ZM9.99477 9.73441L9.33337 10.1719L9.15588 10.8924C9.30758 10.9787 9.50934 11.0953 9.65952 11.1816C9.87796 11.3072 10.1692 11.4737 10.3861 11.5979C10.6304 11.2451 10.9732 10.7865 11.225 10.4398C11.0733 10.3535 10.8716 10.237 10.7214 10.1507C10.503 10.0251 10.2132 9.85854 9.99477 9.7329V9.73441ZM8.97991 9.97056L8.33065 10.4201L8.16529 11.1513L8.39588 11.283L9.03301 10.8213L9.21049 10.1007L8.97991 9.96905V9.97056ZM13.4383 9.9751C12.9453 10.0962 12.8952 10.1083 12.0791 10.3218C11.9941 10.6109 11.888 10.9984 11.8076 11.289C12.029 11.2255 12.3264 11.1422 12.5494 11.0801C12.8088 10.7426 13.1713 10.3066 13.4383 9.9751ZM11.9016 10.3702L11.3358 10.5261C11.0764 10.8682 10.7487 11.3375 10.4969 11.6841C10.8367 11.5797 11.2903 11.4435 11.6316 11.342C11.709 11.0499 11.8197 10.6608 11.9016 10.3687V10.3702ZM12.9074 13.6884C12.6692 14.0486 12.3688 14.5391 12.1398 14.9054C12.5509 15.1401 12.9605 15.3762 13.3716 15.6108L13.9844 15.1325L14.1391 14.3938L12.9074 13.6884ZM14.1058 15.2021L13.4929 15.6805L13.3655 16.4374L13.5961 16.5691L14.1953 16.0831L14.3364 15.3353L14.1058 15.2036V15.2021ZM12.5281 11.7038C12.2733 12.0505 11.9502 12.5258 11.7029 12.877C11.7317 13.0874 11.7742 13.3674 11.8045 13.5779C12.0639 13.3826 12.4159 13.1298 12.6783 12.939C12.6191 12.4895 12.6146 12.4456 12.5281 11.7023V11.7038ZM12.7011 13.104C12.4371 13.2933 12.0897 13.5536 11.8288 13.7474C11.8804 14.0789 11.9517 14.5194 12.0063 14.8494C12.2278 14.4801 12.5433 13.9972 12.7739 13.6324L12.7011 13.104ZM8.83883 11.3572L8.21232 11.8264L8.06973 12.5757C8.48083 12.8104 8.89041 13.0465 9.30151 13.2812C9.52451 12.9103 9.84004 12.4289 10.0706 12.0641C9.91892 11.9778 9.71716 11.8612 9.56698 11.775C9.34854 11.6493 9.05728 11.4828 8.84035 11.3587L8.83883 11.3572ZM7.85887 11.6236L7.24449 12.1019L7.11555 12.8588L7.34613 12.9905L7.94685 12.5031L8.08945 11.7538L7.85887 11.6221V11.6236ZM12.2141 11.5237C11.8955 11.6165 11.4576 11.7487 10.9004 11.9203C10.8291 12.223 10.7426 12.6287 10.6759 12.9315C10.8898 12.8603 11.1765 12.768 11.3904 12.6968C11.6301 12.3396 11.9668 11.8749 12.2156 11.5237H12.2141ZM10.7275 11.9733L10.1814 12.1489C9.94319 12.5091 9.64283 13.0011 9.41377 13.3659C9.74143 13.2509 10.1768 13.101 10.506 12.989C10.5697 12.6832 10.6607 12.2775 10.729 11.9733H10.7275ZM11.8515 15.3883C11.6361 15.7622 11.3676 16.2724 11.1598 16.6523C11.5709 16.8869 11.982 17.1216 12.3916 17.3577L12.9665 16.8567L13.0833 16.0937C12.9316 16.0074 12.7299 15.8909 12.5782 15.8046C12.3597 15.679 12.0685 15.5124 11.85 15.3883H11.8515ZM13.0894 16.9263L12.5145 17.4274L12.4265 18.2039L12.6571 18.3356L13.2168 17.8285L13.32 17.058L13.0894 16.9263ZM11.3965 13.3447C11.1628 13.708 10.8685 14.2061 10.644 14.5754C10.682 14.7919 10.7351 15.081 10.773 15.2975C11.0172 15.0916 11.3494 14.8237 11.5967 14.6208C11.5193 14.1576 11.5057 14.0653 11.3965 13.3447ZM11.6255 14.7919C11.3767 14.9917 11.0521 15.2657 10.8064 15.4685C10.8716 15.8076 10.9626 16.2602 11.0309 16.5978C11.2296 16.2133 11.5148 15.7123 11.7211 15.3338L11.6255 14.7919ZM7.78302 13.0602L7.19443 13.5536L7.09128 14.3257C7.50238 14.5603 7.91348 14.7949 8.32306 15.0311C8.52178 14.6466 8.80698 14.1455 9.0148 13.7671C8.8631 13.6808 8.66135 13.5642 8.50965 13.4779C8.2912 13.3523 7.99994 13.1858 7.7815 13.0617L7.78302 13.0602ZM6.84097 13.3523L6.26604 13.8534L6.17806 14.6314L6.40864 14.7631L6.9684 14.2545L7.07155 13.4825L6.84097 13.3508V13.3523ZM11.0824 13.1661C10.6228 13.3205 10.5773 13.3357 9.81728 13.6036C9.76115 13.9169 9.69441 14.3378 9.64283 14.6526C9.84914 14.5754 10.1237 14.474 10.33 14.3968C10.5469 14.0229 10.8564 13.5355 11.0824 13.1661ZM9.65193 13.6641L9.12858 13.8534C8.91316 14.2288 8.64466 14.7389 8.43683 15.1189C8.74933 14.9963 9.16802 14.8343 9.48203 14.7147C9.52906 14.3998 9.60035 13.9805 9.65193 13.6657V13.6641ZM10.9065 17.1549C10.7153 17.5409 10.4817 18.0647 10.2997 18.4537C10.7108 18.6883 11.1219 18.923 11.5315 19.1576L12.0624 18.6399L12.1383 17.8588C11.7272 17.6241 11.3161 17.3895 10.9065 17.1549ZM12.1853 18.711L11.6543 19.2287L11.6103 20.0219L11.8409 20.1536L12.3567 19.6299L12.4159 18.8427L12.1853 18.711ZM10.3649 15.0659C10.1541 15.4428 9.89313 15.9575 9.69137 16.339C9.7384 16.56 9.80515 16.8552 9.85369 17.0762C10.0812 16.8627 10.3907 16.5827 10.6213 16.3708C10.5242 15.8969 10.5121 15.8349 10.3649 15.0644V15.0659ZM10.6562 16.5479C10.4241 16.7568 10.1222 17.0413 9.89313 17.2518C9.97353 17.5969 10.0843 18.0586 10.1677 18.4037C10.3406 18.0086 10.5925 17.4925 10.7745 17.1019L10.6547 16.5479H10.6562ZM6.83642 14.8282L6.28879 15.3414L6.22812 16.1301C6.63922 16.3647 7.05032 16.5993 7.4599 16.834C7.63284 16.4404 7.88465 15.9242 8.06821 15.5336C7.91651 15.4474 7.71475 15.3323 7.56306 15.2445C7.34461 15.1204 7.05335 14.9539 6.83491 14.8282H6.83642ZM5.93534 15.1385L5.40288 15.6563L5.35737 16.451L5.58795 16.5827L6.10524 16.0574L6.16592 15.2687L5.93534 15.137V15.1385ZM10.0509 14.8857C9.60946 15.0523 9.58063 15.0629 8.84187 15.3535C8.80242 15.6759 8.75843 16.1074 8.72354 16.4298C8.91923 16.348 9.18167 16.2406 9.37888 16.1588C9.57153 15.7728 9.85066 15.2672 10.0524 14.8857H10.0509ZM8.68258 15.4186L8.1835 15.6199C7.99236 16.0059 7.75723 16.5312 7.57519 16.9218C7.87252 16.7931 8.26997 16.622 8.56881 16.4949C8.59915 16.1709 8.64769 15.741 8.68258 15.4186ZM10.0797 18.9669C9.91589 19.3604 9.71868 19.8933 9.56395 20.2899C9.71565 20.3762 9.9174 20.4912 10.0691 20.5775C10.2875 20.7016 10.5788 20.8681 10.7972 20.9923L11.2827 20.464L11.313 19.6692C10.9019 19.4346 10.4908 19.2 10.0797 18.9653V18.9669ZM11.404 20.5351L10.9186 21.0634L10.9216 21.8657L11.1522 21.9974L11.621 21.4646L11.6346 20.6668L11.404 20.5351ZM9.44562 16.843C9.26055 17.2306 9.03452 17.7574 8.85855 18.1494C8.9162 18.3735 8.9966 18.6732 9.05576 18.8972C9.2651 18.6777 9.55029 18.3916 9.76115 18.1752C9.64283 17.6938 9.63069 17.6453 9.44562 16.843ZM9.80515 18.3508C9.59125 18.5657 9.31365 18.8563 9.10279 19.0743C9.19987 19.424 9.33337 19.8902 9.43349 20.2384C9.57912 19.8373 9.79453 19.3105 9.94926 18.9139L9.80363 18.3508H9.80515ZM6.00815 16.6417L5.50452 17.167L5.49086 17.9663C5.90197 18.2009 6.31307 18.4355 6.72417 18.6702C6.8698 18.269 7.08521 17.7437 7.24146 17.3456C6.83036 17.111 6.41925 16.8763 6.00815 16.6417ZM5.15106 16.9657L4.66563 17.4955L4.66866 18.2993L4.89924 18.431L5.36799 17.8966L5.38164 17.0974L5.15106 16.9657ZM9.13009 16.6629C8.70989 16.8385 8.68258 16.8506 7.97871 17.1564C7.95747 17.4849 7.93927 17.9224 7.92258 18.2508C8.10765 18.1661 8.35643 18.0541 8.54302 17.9693C8.70989 17.5742 8.95412 17.055 9.13009 16.6629ZM7.82853 17.223L7.35523 17.4334C7.1914 17.827 6.99267 18.3613 6.83794 18.7595C7.11858 18.6263 7.49479 18.4507 7.77695 18.319C7.78757 17.9905 7.81336 17.553 7.82853 17.223ZM9.37888 20.8091C9.24387 21.2057 9.0861 21.7431 8.96019 22.1442C9.37129 22.3789 9.78239 22.6135 10.1935 22.8466L10.6289 22.3138L10.6107 21.513C10.1996 21.2784 9.78846 21.0437 9.37736 20.8091H9.37888ZM10.7517 22.3834L10.3164 22.9163L10.371 23.7201L10.6016 23.8518L11.0187 23.3159L10.9823 22.5136L10.7517 22.3819V22.3834ZM8.64466 18.6641C8.48689 19.0592 8.29879 19.5936 8.15013 19.9917C8.21991 20.2187 8.31396 20.52 8.38374 20.7455C8.57336 20.523 8.83125 20.2308 9.0239 20.0114C8.88131 19.5239 8.87221 19.4921 8.64466 18.6641ZM9.077 20.1885C8.88282 20.4064 8.63101 20.7016 8.44138 20.9226C8.55667 21.2738 8.71292 21.7431 8.83276 22.0928C8.94805 21.6886 9.12554 21.1573 9.25145 20.7561L9.07851 20.1885H9.077ZM5.30731 18.487L4.85222 19.0198L4.88711 19.8236C5.29821 20.0583 5.70931 20.2929 6.12041 20.526C6.2357 20.1219 6.41319 19.5905 6.5391 19.1894C6.128 18.9547 5.71689 18.7201 5.30579 18.4855L5.30731 18.487ZM4.49876 18.8185L4.06187 19.3529L4.11648 20.1582L4.34706 20.2899L4.76575 19.7525L4.72934 18.9487L4.49876 18.817V18.8185ZM8.33065 18.484C8.06568 18.6061 7.70312 18.7761 7.24297 18.9941C7.24146 19.3256 7.24904 19.7676 7.25207 20.0991C7.42653 20.0114 7.66014 19.8978 7.83459 19.8115C7.97416 19.4104 8.18046 18.8821 8.32913 18.484H8.33065ZM7.10189 19.0607L6.6559 19.2757C6.52089 19.6738 6.36313 20.2127 6.23722 20.6138C6.49965 20.4791 6.85159 20.3005 7.11555 20.1658C7.10644 19.8342 7.10493 19.3922 7.10189 19.0592V19.0607ZM8.81608 22.665C8.71141 23.0631 8.59612 23.6005 8.50206 24.0016C8.91316 24.2363 9.32427 24.4694 9.73537 24.704L10.1192 24.1697L10.0494 23.3674C9.89768 23.2811 9.69592 23.166 9.54423 23.0798C9.32578 22.9556 9.03452 22.7891 8.81608 22.665ZM10.2405 24.2393L9.85672 24.7737L9.96595 25.5729L10.1965 25.7046L10.5591 25.1748L10.4696 24.371L10.239 24.2393H10.2405ZM7.97416 20.5109C7.84521 20.909 7.69655 21.4464 7.57822 21.8475C7.65862 22.0746 7.77088 22.3759 7.8528 22.6029C8.02118 22.3789 8.25176 22.0867 8.42166 21.8657C8.25328 21.3768 8.24266 21.345 7.97264 20.5124L7.97416 20.5109ZM8.48538 22.0428C8.31244 22.2623 8.08945 22.559 7.92106 22.78C8.05607 23.1312 8.23811 23.599 8.37615 23.9487C8.45959 23.5445 8.5946 23.0131 8.68865 22.612L8.48538 22.0428ZM4.74299 20.3444L4.33948 20.8787L4.42746 21.6825C4.83856 21.9172 5.24967 22.1503 5.66077 22.3849C5.7442 21.9808 5.88073 21.4479 5.97478 21.0468C5.56368 20.8121 5.15258 20.579 4.74148 20.3444H4.74299ZM3.98602 20.6774L3.60223 21.2133L3.71145 22.0141L3.94203 22.1458L4.30459 21.6144L4.2166 20.8106L3.98602 20.6789V20.6774ZM7.65862 20.3308C7.28545 20.5169 7.22477 20.5487 6.64073 20.8485C6.66045 21.1815 6.69686 21.625 6.72113 21.9565C6.88345 21.8687 7.10038 21.7537 7.26421 21.6674C7.37192 21.2632 7.5403 20.7319 7.66014 20.3308H7.65862ZM6.50876 20.9166L6.0931 21.1331C5.98843 21.5312 5.87314 22.0701 5.78061 22.4712C6.02484 22.3365 6.35099 22.1579 6.59522 22.0247C6.56488 21.6931 6.53454 21.2481 6.51027 20.9166H6.50876ZM8.39891 24.5193C8.32761 24.9144 8.25783 25.4473 8.19715 25.8454C8.60825 26.0785 9.01935 26.3131 9.43045 26.5463L9.7566 26.018L9.63221 25.2202C9.22111 24.9856 8.81001 24.7525 8.39891 24.5178V24.5193ZM9.87948 26.0891L9.55333 26.6174L9.7202 27.4076L9.95078 27.5393L10.2557 27.017L10.1101 26.2208L9.87948 26.0891ZM7.44321 22.3698C7.34613 22.7679 7.24146 23.3038 7.15499 23.7034C7.24904 23.929 7.37647 24.2302 7.47204 24.4542C7.61767 24.2317 7.81791 23.9411 7.96657 23.7216C7.77088 23.2342 7.75875 23.2024 7.44321 22.3683V22.3698ZM8.03787 23.9002C7.88769 24.1182 7.69503 24.4119 7.5494 24.6329C7.70413 24.9825 7.91348 25.4458 8.07276 25.7939C8.1213 25.3943 8.21232 24.866 8.273 24.4679L8.03787 23.9002ZM4.32583 22.2018L3.97844 22.7316L4.12407 23.5293C4.53517 23.7625 4.94627 23.9971 5.35737 24.2302C5.40591 23.8306 5.49845 23.3023 5.55913 22.9042C5.14803 22.6695 4.73693 22.4364 4.32583 22.2018ZM3.62498 22.5303L3.29883 23.0586L3.4657 23.8503L3.69628 23.982L4.00119 23.4597L3.85556 22.662L3.62498 22.5303ZM7.1292 22.1897C6.78333 22.3758 6.7272 22.4076 6.18564 22.7074C6.22812 23.0389 6.29486 23.4794 6.34189 23.8109C6.49207 23.7246 6.69079 23.6096 6.84097 23.5248C6.91682 23.1221 7.04273 22.5908 7.1292 22.1912V22.1897ZM6.06277 22.774L5.67897 22.9889C5.60767 23.3855 5.53789 23.9169 5.47873 24.315C5.70172 24.1818 6.00057 24.0077 6.22508 23.876C6.17199 23.546 6.11131 23.104 6.06428 22.774H6.06277ZM8.14102 26.3555C8.1031 26.7446 8.08338 27.2668 8.05911 27.6574C8.47021 27.8905 8.88131 28.1251 9.29241 28.3582L9.5594 27.8436L9.37584 27.0564C8.96474 26.8233 8.55364 26.5887 8.14254 26.3555H8.14102ZM9.68075 27.9132L9.41377 28.4279L9.64283 29.2014L9.87341 29.3331L10.1176 28.829L9.91134 28.0464L9.68075 27.9147V27.9132ZM7.06245 24.2211C6.99874 24.6147 6.93958 25.1445 6.888 25.5411C6.99571 25.7652 7.14134 26.0619 7.25207 26.2844C7.37192 26.0664 7.54182 25.7803 7.66621 25.5638C7.4417 25.0794 7.42804 25.0476 7.06397 24.2211H7.06245ZM7.74813 25.7409C7.62222 25.9544 7.46142 26.2435 7.34006 26.46C7.51603 26.8051 7.75571 27.2623 7.93623 27.6044C7.94837 27.2138 7.99236 26.6946 8.01815 26.3041L7.74964 25.7409H7.74813ZM4.06794 24.0395L3.77971 24.5587L3.98602 25.3428C4.39712 25.5759 4.80823 25.8106 5.21933 26.0437C5.23146 25.6516 5.27697 25.1309 5.30276 24.7403C4.89166 24.5072 4.48056 24.2726 4.06946 24.0395H4.06794ZM3.42626 24.3574L3.15927 24.8736L3.38833 25.6471L3.61892 25.7788L3.86315 25.2732L3.65684 24.4891L3.42626 24.3574ZM6.74844 24.0425C6.42987 24.2272 6.39953 24.2453 5.88376 24.5511C5.94899 24.8796 6.04911 25.3141 6.12041 25.641C6.25694 25.5563 6.43746 25.4458 6.57399 25.3625C6.61494 24.9644 6.69686 24.4391 6.74844 24.0425ZM5.77151 24.6177L5.42108 24.8297C5.38468 25.2187 5.36344 25.7409 5.33917 26.13C5.54092 26.0028 5.81095 25.8333 6.0127 25.7061C5.93534 25.3807 5.8428 24.9447 5.77151 24.6177ZM8.05 28.1569C8.05 28.5278 8.07883 29.0213 8.09248 29.3906C8.50358 29.6237 8.91468 29.8569 9.32578 30.0915L9.52906 29.6192L9.28331 28.8578C8.87221 28.6247 8.46111 28.39 8.05 28.1569ZM9.65193 29.6888L9.44866 30.1611L9.7384 30.8817L9.96898 31.0134L10.151 30.5608L9.88251 29.8205L9.65193 29.6888ZM6.84249 26.0528C6.81367 26.4403 6.80457 26.9595 6.78788 27.3486C6.90924 27.5665 7.07611 27.8542 7.19898 28.0721C7.29455 27.8632 7.42956 27.5877 7.52816 27.3788C7.27331 26.902 7.26573 26.8869 6.84249 26.0528ZM7.62222 27.5514C7.5221 27.7573 7.39619 28.0328 7.2991 28.2402C7.49783 28.5702 7.76633 29.0092 7.97112 29.3361C7.94382 28.9668 7.94078 28.4748 7.92865 28.1054L7.62373 27.5514H7.62222ZM3.97692 25.8424L3.75089 26.3359L4.0194 27.0776C4.4305 27.3107 4.8416 27.5438 5.2527 27.7785C5.22691 27.4091 5.22236 26.9141 5.21022 26.5432C4.79912 26.3101 4.38802 26.0755 3.97692 25.8424ZM3.39744 26.136L3.19416 26.6098L3.4839 27.3319L3.71448 27.4636L3.89652 27.0095L3.62802 26.2677L3.39744 26.136ZM6.52848 25.8742C6.24025 26.0528 6.19323 26.0815 5.74723 26.3661C5.83825 26.687 5.97175 27.1109 6.06883 27.4288C6.19019 27.3516 6.35251 27.2471 6.47387 27.1699C6.4769 26.7809 6.51179 26.2632 6.52848 25.8742ZM5.64711 26.4297L5.3331 26.6326C5.3331 27.0019 5.36344 27.4954 5.37709 27.8648C5.55609 27.7527 5.79578 27.6014 5.97478 27.4893C5.87011 27.1745 5.7442 26.7491 5.64711 26.4312V26.4297ZM8.13344 29.8493C8.16833 30.1884 8.24721 30.6365 8.29575 30.974C8.70686 31.2071 9.11796 31.4403 9.52906 31.6734L9.67317 31.2556L9.36674 30.5487C8.95564 30.3155 8.54454 30.0824 8.13344 29.8493ZM9.79604 31.3267L9.65193 31.7445L10.0008 32.4106L10.2314 32.5423L10.3558 32.1442L10.0281 31.4584L9.79756 31.3267H9.79604ZM6.79243 27.839C6.80002 28.2023 6.84097 28.6867 6.86221 29.0485C6.99874 29.2544 7.18381 29.5254 7.32186 29.7297C7.39164 29.542 7.49176 29.2953 7.56609 29.1091C7.27786 28.6534 7.25966 28.6231 6.79243 27.8375V27.839ZM7.67076 29.2741C7.59643 29.4572 7.50389 29.704 7.43259 29.8887C7.65256 30.199 7.9514 30.6107 8.17591 30.918C8.1122 30.5835 8.06062 30.1324 8.01208 29.7948L7.67076 29.2726V29.2741ZM4.06036 27.5378L3.89501 27.9783L4.22267 28.664C4.63377 28.8971 5.04487 29.1303 5.45597 29.3634C5.39378 29.0273 5.3422 28.5747 5.29366 28.2371C4.88256 28.004 4.47146 27.7709 4.06036 27.5378ZM3.54155 27.777L3.39744 28.1963L3.74634 28.8623L3.97692 28.994L4.0998 28.5959L3.77213 27.9087L3.54155 27.777ZM6.47842 27.6604C6.30346 27.7724 6.07237 27.9182 5.78516 28.0979C5.90045 28.3976 6.06883 28.7912 6.19171 29.0879C6.29941 29.0228 6.44201 28.9365 6.54971 28.8714C6.51482 28.5096 6.49965 28.0237 6.47993 27.6619L6.47842 27.6604ZM5.69566 28.1524L5.41805 28.3234C5.45294 28.6625 5.53182 29.1106 5.58188 29.4466C5.73965 29.3543 5.95051 29.2302 6.10827 29.1363C5.97781 28.8442 5.81853 28.4476 5.69717 28.1524H5.69566ZM8.38222 31.3903C8.452 31.6976 8.57488 32.0988 8.65831 32.403C9.06941 32.6361 9.48051 32.8693 9.89161 33.1024L9.9796 32.7406L9.61552 32.0897C9.20442 31.8566 8.79332 31.6234 8.38222 31.3903ZM10.1025 32.8102L10.0145 33.172L10.418 33.7805L10.6486 33.9122L10.7168 33.5716L10.3331 32.9434L10.1025 32.8117V32.8102ZM6.91379 29.4981C6.95626 29.8296 7.04577 30.2686 7.10341 30.5986C7.25359 30.7909 7.45535 31.0452 7.60705 31.2359C7.65256 31.0724 7.72082 30.8559 7.77088 30.6925C7.45232 30.2656 7.43259 30.2368 6.91379 29.4981ZM7.88769 30.8469C7.83611 31.0073 7.77543 31.2238 7.72841 31.3858C7.9696 31.6764 8.29424 32.0609 8.53999 32.347C8.4429 32.0488 8.34581 31.6401 8.26238 31.3373L7.88617 30.8484L7.88769 30.8469ZM4.30914 29.0803L4.20143 29.4648L4.58523 30.0945C4.99633 30.3276 5.40743 30.5608 5.81853 30.7939C5.72145 30.4942 5.62436 30.0854 5.54244 29.7812C5.13134 29.5481 4.72024 29.3149 4.30914 29.0818V29.0803ZM3.84798 29.2635L3.75999 29.6253L4.16351 30.2338L4.39409 30.3655L4.46235 30.0249L4.07856 29.3952L3.84798 29.2635ZM6.59826 29.3195C6.36768 29.4587 6.36009 29.4633 5.98843 29.6813C6.128 29.9583 6.32824 30.3201 6.47538 30.5941C6.56944 30.5426 6.69383 30.473 6.78788 30.42C6.71658 30.093 6.65439 29.6495 6.59826 29.3195ZM5.91107 29.7252L5.66835 29.8644C5.73813 30.1717 5.86252 30.5714 5.94596 30.8756C6.084 30.8045 6.26604 30.7076 6.40408 30.6334C6.25087 30.364 6.05973 29.9992 5.91258 29.7252H5.91107ZM8.78726 32.7739C8.88889 33.0479 9.05576 33.3991 9.16953 33.6685C9.58063 33.9016 9.99173 34.1348 10.4028 34.3679L10.4377 34.0651L10.019 33.4732C9.86734 33.387 9.66558 33.2734 9.51389 33.1871C9.29544 33.063 9.00418 32.898 8.78574 32.7739H8.78726ZM10.5606 34.1332L10.5257 34.436L10.9808 34.984L11.2114 35.1157L11.2281 34.8356L10.7912 34.2665L10.5606 34.1348V34.1332ZM7.19746 31.0028C7.27483 31.3025 7.40832 31.6931 7.49934 31.9898C7.66166 32.1684 7.88162 32.4045 8.04545 32.5816C8.06821 32.4424 8.10613 32.2562 8.13344 32.1169C7.78757 31.7188 7.76481 31.6931 7.19746 31.0028ZM8.26086 32.2607C8.23204 32.3985 8.2017 32.5832 8.17743 32.7209C8.43835 32.9904 8.78877 33.3446 9.05273 33.6095C8.92378 33.3476 8.78422 32.9843 8.66893 32.7164L8.26086 32.2607ZM4.71417 30.4654L4.66108 30.7893L5.09797 31.36C5.50907 31.5932 5.92017 31.8263 6.33127 32.0594C6.20233 31.7975 6.06277 31.4327 5.94747 31.1648C5.53637 30.9316 5.12527 30.6985 4.71417 30.4654ZM4.30762 30.5895L4.27273 30.8923L4.72783 31.4418L4.95841 31.5735L4.97509 31.2919L4.5382 30.7212L4.30762 30.5895ZM6.88345 30.8242C6.68321 30.9347 6.67107 30.9407 6.35251 31.1072C6.51482 31.3615 6.7454 31.69 6.91531 31.9398C6.99722 31.902 7.10493 31.849 7.18533 31.8111C7.08066 31.5205 6.97447 31.1209 6.88345 30.8242ZM6.28576 31.1405L6.0749 31.245C6.17654 31.519 6.34341 31.8702 6.4587 32.1381C6.57702 32.0882 6.73479 32.02 6.85311 31.9686C6.67714 31.7233 6.45566 31.3888 6.28576 31.139V31.1405ZM9.33944 33.9925C9.47141 34.2316 9.67772 34.5329 9.82183 34.766C10.2329 34.9991 10.644 35.2322 11.0551 35.4638L11.0415 35.2232L10.5727 34.6918C10.1616 34.4587 9.75054 34.2256 9.33944 33.9925ZM11.1628 35.2913L11.1765 35.532L11.6801 36.0179L11.9107 36.1481L11.8804 35.9286L11.3949 35.4199L11.1644 35.2882L11.1628 35.2913ZM7.63739 32.3485C7.74661 32.6149 7.92258 32.9571 8.04394 33.2174C8.21839 33.3824 8.45352 33.5989 8.62949 33.7624C8.62949 33.6473 8.64163 33.496 8.64618 33.3809C8.273 33.0131 8.23811 32.9767 7.63587 32.3485H7.63739ZM8.78422 33.5141C8.77664 33.6276 8.77512 33.7775 8.77209 33.891C9.04969 34.1378 9.42439 34.4633 9.70654 34.7055C9.54878 34.4829 9.36826 34.165 9.22263 33.9334L8.78422 33.5126V33.5141ZM5.26787 31.6855L5.26484 31.9504L5.75178 32.4605C5.90348 32.5468 6.10524 32.6604 6.25694 32.7466C6.47538 32.8708 6.76664 33.0358 6.98509 33.1584C6.82732 32.9359 6.6468 32.6165 6.50117 32.3849C6.09007 32.1517 5.67897 31.9186 5.26787 31.687V31.6855ZM4.91138 31.7491L4.92655 31.9913L5.43019 32.4787L5.66077 32.6089L5.62891 32.3894L5.14196 31.8793L4.91138 31.7491ZM7.32337 32.1699C7.15044 32.2501 7.13527 32.2577 6.86676 32.3712C7.05183 32.6013 7.30972 32.8965 7.49934 33.1221C7.56912 33.0978 7.66014 33.0645 7.72992 33.0403C7.59339 32.786 7.44473 32.4333 7.32337 32.1714V32.1699ZM6.80912 32.3939L6.6286 32.4636C6.76057 32.7027 6.96688 33.004 7.11251 33.2356C7.21263 33.2083 7.34613 33.1705 7.44625 33.1387C7.24904 32.9192 6.99874 32.618 6.8076 32.3924L6.80912 32.3939ZM10.0297 35.043C10.1905 35.2474 10.4332 35.4971 10.6061 35.6909C10.7578 35.7772 10.9596 35.8907 11.1113 35.977C11.3297 36.1011 11.621 36.2661 11.8394 36.3888L11.7787 36.2101L11.263 35.7409C10.8519 35.5077 10.4408 35.2761 10.0297 35.043ZM11.9001 36.2798L11.9608 36.4584L12.5084 36.8807L12.739 37.0109L12.6631 36.855L12.1307 36.4099L11.9001 36.2798ZM8.22142 33.5308C8.35947 33.7624 8.57488 34.053 8.72658 34.2771C8.91165 34.4284 9.16347 34.6252 9.35005 34.7751C9.33033 34.6873 9.31516 34.5677 9.29999 34.4784C8.90255 34.1423 8.87676 34.1196 8.21991 33.5323L8.22142 33.5308ZM9.44714 34.5995C9.45776 34.6873 9.48355 34.8023 9.50023 34.8901C9.79604 35.1142 10.192 35.4093 10.4908 35.6288C10.3057 35.4457 10.0873 35.1762 9.91437 34.9825L9.44714 34.5995ZM5.95809 32.736L6.00209 32.9374L6.53454 33.3839C6.94565 33.6171 7.35675 33.8487 7.76633 34.0818C7.58126 33.8986 7.36281 33.6292 7.18988 33.4339C6.77878 33.2008 6.36768 32.9692 5.95658 32.736H5.95809ZM5.64863 32.7376L5.70931 32.9162L6.25694 33.3385L6.48752 33.4687L6.41167 33.3128L5.87921 32.8662L5.64863 32.736V32.7376ZM7.90589 33.3521C7.75875 33.4021 7.74964 33.4036 7.51906 33.4672C7.72385 33.6715 8.00905 33.9334 8.21839 34.1332C8.27603 34.1242 8.3534 34.109 8.41104 34.0984C8.24569 33.8835 8.05607 33.5762 7.90589 33.3521ZM7.47052 33.4808L7.31882 33.5126C7.47962 33.717 7.72234 33.9652 7.89679 34.159C7.98022 34.156 8.09096 34.1469 8.1744 34.1393C7.95899 33.9471 7.68138 33.6791 7.47052 33.4808ZM10.8458 35.918C11.0339 36.086 11.31 36.2813 11.5087 36.4357C11.9198 36.6688 12.3294 36.9004 12.7405 37.1335L12.6373 37.02L12.0776 36.6158C11.6665 36.3827 11.2554 36.1511 10.8458 35.918ZM12.7602 37.0896L12.8634 37.2032L13.4535 37.5604L13.6841 37.6906L13.5657 37.6013L12.9908 37.2213L12.7602 37.0911V37.0896ZM8.94047 34.5435C9.10734 34.7403 9.35764 34.9764 9.53664 35.1626C9.73233 35.2988 9.9978 35.476 10.195 35.6107C10.1556 35.5516 10.1161 35.4654 10.0828 35.4018C9.66255 35.099 9.63525 35.0778 8.93895 34.545L8.94047 34.5435ZM10.239 35.5108C10.2678 35.5744 10.3179 35.6531 10.3528 35.7121C10.6638 35.9134 11.0809 36.1768 11.3965 36.3721C11.1871 36.2298 10.9307 36.0103 10.732 35.8544L10.239 35.5093V35.5108ZM6.77574 33.6125L6.86373 33.7503L7.43866 34.1317C7.84976 34.3649 8.25935 34.5965 8.67045 34.8296C8.46111 34.6873 8.20625 34.4678 8.00753 34.3119C7.59643 34.0788 7.18533 33.8471 6.77574 33.614V33.6125ZM6.51027 33.5505L6.61343 33.664L7.20353 34.0212L7.43411 34.1514L7.31427 34.0606L6.73934 33.6791L6.50876 33.5489L6.51027 33.5505ZM8.62646 34.3649C8.50358 34.3815 8.496 34.383 8.30334 34.3921C8.52785 34.5707 8.8358 34.7963 9.06486 34.9688C9.11189 34.9749 9.1756 34.9794 9.22263 34.984C9.03149 34.8099 8.80394 34.551 8.62494 34.3649H8.62646ZM8.2639 34.3921L8.13799 34.3876C8.32761 34.5556 8.6037 34.7509 8.80394 34.9053C8.87069 34.9249 8.96019 34.9477 9.02845 34.9628C8.79484 34.7978 8.49296 34.5647 8.2639 34.3921ZM13.273 37.4575L13.0151 37.3091C12.7966 37.185 12.5054 37.02 12.2869 36.8974C12.1352 36.8111 11.9335 36.6976 11.7818 36.6113L11.938 36.7021C12.1565 36.8262 12.4477 36.9897 12.6662 37.1138C12.8482 37.2168 13.0909 37.3545 13.273 37.4575ZM11.134 36.2465L10.9929 36.1435C10.2496 35.6803 10.2208 35.6621 9.78846 35.376C9.99325 35.5229 10.2572 35.7318 10.4711 35.8635L10.9808 36.1571L11.134 36.2434V36.2465ZM11.8167 36.634L11.671 36.5492L11.1537 36.2434L11.2736 36.3282C11.4359 36.4205 11.6543 36.5432 11.8167 36.6355V36.634ZM9.10279 35.0975L8.94654 35.0067C8.53544 34.7736 8.12585 34.542 7.71475 34.3088L7.76936 34.3421L9.10279 35.0975ZM10.0615 35.641L10.1556 35.6894C9.95078 35.5426 9.66862 35.3609 9.47293 35.202C9.30758 35.1702 9.30151 35.1702 9.21201 35.1384L9.9083 35.5547L10.0615 35.641ZM9.76722 35.4744L9.17864 35.1248L9.077 35.0809L9.22263 35.1672C9.38494 35.2595 9.60339 35.3821 9.76571 35.4744H9.76722Z" fill="url(#paint10_linear_4_163214)"/>
<path d="M16.7833 31.077C16.6755 30.7121 16.5694 30.3473 16.4647 29.9825C16.3266 29.5027 16.1749 29.0258 16.0581 28.5414C16.536 28.381 17.029 28.163 17.5342 27.8814C21.8727 25.4685 25.4391 19.4467 25.4998 14.4286C25.5089 13.7141 25.4437 13.0602 25.3162 12.4683C25.8639 12.4123 26.4024 12.2715 26.9379 12.1322C27.2322 12.055 27.5295 11.9869 27.8284 11.9203L28.1894 12.1292C28.4579 12.2851 28.7082 12.4743 28.9358 12.6968L29.7777 13.1858C31.2051 14.0138 32.0759 15.794 32.0456 18.3175C31.9849 23.2826 28.4549 29.2423 24.1633 31.628C22.0532 32.8011 20.1494 32.8935 18.769 32.0927C18.5596 31.9716 18.3624 31.8293 18.1774 31.6673C17.7784 31.5795 17.4052 31.4372 17.0639 31.2389C16.9729 31.186 16.8803 31.1315 16.7848 31.077H16.7833Z" fill="url(#paint11_linear_4_163214)"/>
<path d="M16.2538 28.4718C16.6695 28.3189 17.0973 28.1251 17.5341 27.8814C21.8727 25.4685 25.4391 19.4467 25.4998 14.4286C25.5089 13.7292 25.4467 13.0889 25.3253 12.5076C25.785 12.4531 26.2461 12.2806 26.6694 12.1564C26.9637 12.0701 27.264 11.9899 27.5644 11.9142C28.9615 12.7544 29.811 14.5209 29.7807 17.0141C29.72 21.9792 26.19 27.9389 21.8985 30.3246C19.7884 31.4978 17.8846 31.5901 16.5041 30.7893C16.4404 30.753 16.3797 30.7106 16.3191 30.6698C16.2644 29.9386 16.2295 29.2059 16.2538 28.4718Z" fill="url(#paint12_linear_4_163214)"/>
<path d="M27.0608 12.3941C27.0456 12.3865 27.0319 12.3865 27.0168 12.3941C26.7012 12.4153 26.3766 12.4683 26.0383 12.5485C25.5969 12.6514 25.1479 12.8119 24.6776 13.0178C24.4061 13.1495 24.1193 13.2887 23.8387 13.4507C22.4492 14.25 21.1552 15.4171 20.022 16.7976C19.2059 17.8028 18.4777 18.9184 17.874 20.0931C17.0062 21.7734 16.4101 23.5717 16.1825 25.2883C16.1446 25.5381 16.1234 25.7879 16.1006 26.0301C16.0854 26.2132 16.0779 26.3964 16.0779 26.5735C16.0703 26.5811 16.0703 26.5887 16.0779 26.5962C16.0703 26.6689 16.0703 26.7431 16.0703 26.8157C16.0703 27.2562 16.0991 27.6665 16.1507 28.0494V28.057C16.1719 28.2553 16.2098 28.446 16.2462 28.6292C16.2826 28.7685 16.313 28.9077 16.3555 29.0409C16.3706 29.0848 16.3782 29.1287 16.3934 29.1666V29.1742C17.3491 32.2925 20.3133 33.2613 23.8357 31.2359C28.1226 28.7624 31.595 22.7815 31.595 17.8724C31.595 14.2772 29.7337 12.2579 27.0577 12.3971L27.0608 12.3941ZM26.1931 13.5309C26.2295 13.5461 26.2674 13.5673 26.2962 13.59C26.862 14.4044 27.1776 15.5352 27.1776 16.9369C27.1776 17.2306 27.1639 17.5242 27.1336 17.8255C26.9136 17.9435 26.6921 18.0238 26.4707 18.0752C26.2204 17.8694 26.008 17.5833 25.8608 17.2094C25.4634 16.1891 25.6105 14.7949 26.1779 13.5249C26.1855 13.5249 26.1855 13.5324 26.1915 13.5324L26.1931 13.5309ZM26.0687 21.8536C25.3784 23.49 24.3848 25.0537 23.2152 26.3586C23.4139 25.47 23.8402 24.5027 24.4591 23.5914C24.9582 22.8724 25.5104 22.2775 26.0687 21.8521V21.8536ZM23.7082 14.1622C23.8842 14.0668 24.0541 13.9714 24.2225 13.8912C23.6339 14.8752 22.7814 15.7622 21.8469 16.3132C21.3994 16.5706 20.9792 16.7174 20.5969 16.7749C21.5375 15.7032 22.5978 14.8085 23.7067 14.1622H23.7082ZM16.7286 29.427C16.5891 29.1696 16.4783 28.8835 16.3828 28.5762C16.3236 28.3855 16.272 28.1796 16.2356 27.9677C16.3903 27.7997 16.5602 27.6528 16.7286 27.506C16.8166 27.4318 16.9122 27.3667 17.0002 27.3077C17.0882 27.2411 17.1837 27.176 17.2717 27.1245C17.3825 27.0579 17.4917 27.0004 17.6024 26.9414C17.7056 26.8899 17.8087 26.846 17.9043 26.8172C17.9635 26.7885 18.0226 26.7658 18.0878 26.7506C18.1546 26.7219 18.2198 26.7067 18.2866 26.6916C18.3609 26.6689 18.4337 26.6553 18.5065 26.6401C19.1755 27.1321 19.4637 28.1009 19.2863 29.2377C19.2863 29.2529 19.2787 29.2665 19.2787 29.2816C18.5642 29.5753 17.8815 29.7221 17.2565 29.7297H17.2414C17.0654 29.6495 16.8955 29.5541 16.7347 29.436L16.7271 29.4285L16.7286 29.427Z" fill="#E3E3E4"/>
<path d="M27.0609 12.3941C27.0458 12.3865 27.0321 12.3865 27.0169 12.3941C26.5983 12.379 26.1568 12.4304 25.6926 12.5409C25.2664 12.6439 24.8249 12.7983 24.3759 12.9966C24.1104 13.1207 23.8389 13.26 23.5673 13.4144C22.2294 14.1849 20.9718 15.3081 19.8826 16.6357C19.0968 17.612 18.3899 18.6913 17.8089 19.8206C16.9776 21.4434 16.3966 23.1751 16.1751 24.8327C16.1084 25.3398 16.072 25.8242 16.072 26.3086C16.072 26.3964 16.072 26.4842 16.0795 26.572C16.072 26.5796 16.072 26.5871 16.0795 26.5947C16.0871 26.9096 16.1084 27.2108 16.1539 27.4969V27.5045C16.1751 27.6664 16.1979 27.8209 16.2343 27.9662C16.389 27.7981 16.5589 27.6513 16.7273 27.5045C16.8153 27.4303 16.9108 27.3652 16.9988 27.3062C17.0868 27.2396 17.1824 27.1745 17.2704 27.123C17.3811 27.0564 17.4903 26.9989 17.6011 26.9398C17.7042 26.8884 17.8074 26.8445 17.903 26.8157C17.9621 26.787 18.0213 26.7642 18.0865 26.7491C18.1533 26.7203 18.2185 26.7052 18.2852 26.6901C18.3596 26.6674 18.4324 26.6537 18.5052 26.6386C19.1742 27.1306 19.4624 28.0994 19.2849 29.2362C19.2849 29.2514 19.2773 29.265 19.2773 29.2801C18.5628 29.5738 17.8802 29.7206 17.2552 29.7282H17.24C17.0641 29.648 16.8942 29.5526 16.7334 29.4345C17.8954 31.7536 20.5137 32.3258 23.5658 30.5729C27.7057 28.1872 31.0521 22.4122 31.0521 17.6786C31.0521 14.3832 29.4335 12.4531 27.0594 12.3956L27.0609 12.3941ZM23.7069 14.1622C23.8829 14.0668 24.0528 13.9714 24.2212 13.8912C23.6326 14.8752 22.78 15.7622 21.8456 16.3132C21.3981 16.5706 20.9779 16.7174 20.5956 16.7749C21.5361 15.7032 22.5965 14.8085 23.7054 14.1622H23.7069ZM26.1932 13.5309C26.2296 13.5461 26.2676 13.5673 26.2964 13.59C26.8622 14.4044 27.1777 15.5352 27.1777 16.9369C27.1777 17.2306 27.1641 17.5242 27.1338 17.8255C26.9138 17.9435 26.6923 18.0238 26.4708 18.0752C26.2205 17.8694 26.0082 17.5833 25.861 17.2094C25.4636 16.1891 25.6107 14.7949 26.1781 13.5249C26.1856 13.5249 26.1856 13.5324 26.1917 13.5324L26.1932 13.5309ZM26.0688 21.8536C25.3786 23.49 24.385 25.0537 23.2154 26.3586C23.4141 25.47 23.8404 24.5027 24.4593 23.5914C24.9584 22.8724 25.5106 22.2775 26.0688 21.8521V21.8536Z" fill="url(#paint13_linear_4_163214)"/>
<path d="M26.5753 12.7604C26.4054 12.6726 26.2219 12.606 26.0383 12.547C25.5969 12.6499 25.1479 12.8104 24.6776 13.0162C24.4061 13.1479 24.1193 13.2872 23.8387 13.4492C22.4492 14.2485 21.1552 15.4156 20.022 16.7961C19.2059 17.8013 18.4777 18.9169 17.874 20.0916C17.0062 21.7719 16.4101 23.5702 16.1825 25.2868C16.1446 25.5366 16.1234 25.7864 16.1006 26.0286C16.0854 26.2117 16.0779 26.3949 16.0779 26.572C16.0703 26.5796 16.0703 26.5871 16.0779 26.5947C16.0703 26.6674 16.0703 26.7415 16.0703 26.8142C16.0703 27.2547 16.0991 27.6649 16.1507 28.0479V28.0555C16.1719 28.2538 16.2098 28.4445 16.2462 28.6277C16.2826 28.767 16.313 28.9062 16.3555 29.0394C16.3706 29.0833 16.3782 29.1272 16.3934 29.1651C16.4662 29.2317 16.5405 29.2968 16.6209 29.3558C16.6498 29.3846 16.6877 29.4073 16.7241 29.43C16.5845 29.1726 16.4738 28.8865 16.3782 28.5792C16.3191 28.3885 16.2675 28.1826 16.2311 27.9707C16.3858 27.8027 16.5557 27.6559 16.7241 27.509C16.8121 27.4348 16.9076 27.3698 16.9956 27.3107C17.0836 27.2441 17.1792 27.179 17.2672 27.1276C17.3779 27.0609 17.4871 27.0034 17.5979 26.9444C17.701 26.8929 17.8042 26.849 17.8997 26.8203C17.9589 26.7915 18.0181 26.7688 18.0833 26.7537C18.15 26.7249 18.2153 26.7098 18.282 26.6946C18.3563 26.6719 18.4292 26.6583 18.502 26.6431C19.171 27.1351 19.4592 28.1039 19.2817 29.2408C19.2817 29.2559 19.2741 29.2695 19.2741 29.2847C18.5596 29.5783 17.877 29.7252 17.252 29.7327C17.3612 29.7842 17.472 29.8281 17.5903 29.8644C17.9498 29.9825 18.3397 30.0476 18.7599 30.04C18.907 30.04 19.0617 30.0325 19.2225 30.0113C19.2362 30.0188 19.2514 30.0113 19.2665 30.0113C19.4137 29.9961 19.5608 29.9674 19.7156 29.9371C19.7444 29.9371 19.7671 29.9295 19.7884 29.922C19.9507 29.8856 20.113 29.8417 20.2814 29.7903C20.4649 29.7388 20.6424 29.6737 20.826 29.5995C21.1567 29.4678 21.495 29.2983 21.8408 29.1C22.2975 28.8366 22.7389 28.5278 23.1728 28.1826C24.6579 26.9868 25.9822 25.3428 26.9591 23.5369C27.0987 23.2811 27.2307 23.0237 27.349 22.7664C27.3778 22.7149 27.4006 22.6635 27.4233 22.612C27.5265 22.3849 27.6281 22.1564 27.7176 21.9217L27.7328 21.9066C27.842 21.6356 27.9376 21.3631 28.0331 21.0922C28.3714 20.1007 28.5929 19.1031 28.6809 18.1419C28.7097 17.8406 28.7249 17.5394 28.7249 17.2457C28.7249 14.9932 27.8936 13.4295 26.5708 12.7619L26.5753 12.7604ZM26.1931 13.5309C26.2295 13.5461 26.2674 13.5673 26.2962 13.59C26.862 14.4044 27.1776 15.5352 27.1776 16.9369C27.1776 17.2306 27.1639 17.5242 27.1336 17.8255C26.9136 17.9435 26.6921 18.0238 26.4707 18.0752C26.2204 17.8694 26.008 17.5833 25.8608 17.2094C25.4634 16.1891 25.6105 14.7949 26.1779 13.5249C26.1855 13.5249 26.1855 13.5324 26.1915 13.5324L26.1931 13.5309ZM26.0687 21.8536C25.3784 23.49 24.3848 25.0537 23.2152 26.3586C23.4139 25.47 23.8402 24.5027 24.4591 23.5914C24.9582 22.8724 25.5104 22.2775 26.0687 21.8521V21.8536Z" fill="#A0A0A6"/>
<path d="M26.2962 13.59C26.862 14.4044 27.1776 15.5352 27.1776 16.9369C27.1776 17.2306 27.1639 17.5242 27.1336 17.8255C26.9136 17.9436 26.6921 18.0238 26.4707 18.0752C26.2204 17.8694 26.008 17.5833 25.8608 17.2094C25.4634 16.1891 25.6105 14.7949 26.1779 13.5249C26.0307 13.4446 25.8684 13.3856 25.7152 13.3417C25.3102 13.4371 24.8991 13.5763 24.4713 13.7671C24.3909 13.8034 24.309 13.8488 24.221 13.8927C23.6324 14.8767 22.7799 15.7637 21.8454 16.3147C21.3979 16.5721 20.9777 16.7189 20.5954 16.7764C20.4771 16.9157 20.3527 17.055 20.2344 17.2018C19.4911 18.1191 18.8296 19.1319 18.2851 20.2036C17.4902 21.7295 16.9471 23.3659 16.7408 24.9296C16.674 25.3988 16.6452 25.862 16.6452 26.3162C16.6452 26.7128 16.6664 27.0867 16.718 27.4394V27.447C16.718 27.4697 16.7256 27.4909 16.7256 27.506C16.8136 27.4318 16.9092 27.3667 16.9971 27.3077C17.0851 27.2411 17.1807 27.176 17.2687 27.1245C17.3794 27.0579 17.4886 27.0004 17.5994 26.9414C17.7025 26.8899 17.8057 26.846 17.9013 26.8172C17.9604 26.7885 18.0196 26.7658 18.0848 26.7506C18.1516 26.7219 18.2168 26.7067 18.2835 26.6916C18.3579 26.6689 18.4307 26.6553 18.5035 26.6401C19.1725 27.1321 19.4607 28.1009 19.2832 29.2377C19.7838 29.2165 20.3208 29.0985 20.8867 28.8714C20.9155 28.8638 20.9382 28.8563 20.9671 28.8426C21.2689 28.7261 21.5769 28.5793 21.8939 28.3946C22.305 28.1524 22.7025 27.8738 23.0924 27.5726L23.0999 27.565C25.0493 26.0089 26.6679 23.6096 27.5204 21.1436V21.1361C27.5204 21.1361 27.528 21.1225 27.528 21.1149C27.8375 20.2127 28.0347 19.3014 28.1166 18.4219C28.1166 18.3992 28.1166 18.3856 28.1242 18.3629C28.1393 18.1131 28.153 17.8573 28.153 17.6151C28.153 15.6184 27.4476 14.2242 26.2932 13.593L26.2962 13.59ZM23.2152 26.3586C23.414 25.47 23.8402 24.5027 24.4592 23.5914C24.9582 22.8724 25.5104 22.2775 26.0687 21.8521C25.3784 23.4885 24.3848 25.0522 23.2152 26.357V26.3586Z" fill="url(#paint14_linear_4_163214)"/>
<path d="M23.8387 20.0658C23.8387 21.3268 22.9467 22.8618 21.8454 23.496C20.7441 24.1303 19.8521 23.6232 19.8521 22.3622C19.8521 21.1013 20.7441 19.5663 21.8454 18.932C22.9467 18.2978 23.8387 18.8049 23.8387 20.0658Z" fill="url(#paint15_linear_4_163214)"/>
<path d="M21.7665 19.1833C22.7055 18.6611 23.4564 19.1167 23.4428 20.2006C23.4291 21.2829 22.6585 22.5847 21.718 23.1085C20.782 23.6292 20.0326 23.1721 20.0463 22.0897C20.0599 21.0074 20.8305 19.7056 21.7665 19.1848V19.1833Z" fill="url(#paint16_linear_4_163214)"/>
<path d="M24.6776 13.0178C24.5532 13.3114 24.3985 13.6051 24.221 13.8912C24.0511 13.9714 23.8827 14.0668 23.7067 14.1622C22.5963 14.8085 21.5375 15.7032 20.5969 16.7749C20.3906 16.8113 20.1995 16.8113 20.0235 16.7976C21.1567 15.4171 22.4507 14.2515 23.8402 13.4507C24.1209 13.2887 24.4076 13.1495 24.6791 13.0178H24.6776Z" fill="#5F5E67"/>
<path d="M16.181 25.2883C16.8909 24.4179 17.478 23.2796 17.7587 22.0943C17.9377 21.3329 17.971 20.6532 17.8755 20.0916C17.0078 21.7734 16.4085 23.5672 16.181 25.2883Z" fill="#87868D"/>
<path d="M16.3828 28.5762C16.4783 28.885 16.5891 29.1711 16.7286 29.427C16.6922 29.4043 16.6558 29.3831 16.6255 29.3528C16.5436 29.3013 16.4708 29.2347 16.3979 29.1696V29.1621H16.3904C16.3767 29.1182 16.3691 29.0803 16.3615 29.0364C16.3175 28.9047 16.2887 28.7654 16.2523 28.6247C16.2159 28.4415 16.178 28.2508 16.1567 28.0525V28.0449C16.1856 28.0161 16.2083 27.9859 16.2371 27.9632C16.2735 28.1766 16.3251 28.3809 16.3843 28.5717L16.3828 28.5762Z" fill="#87868D"/>
<path d="M20.8897 28.8699C20.8897 29.1045 20.8761 29.3467 20.8305 29.5965C20.647 29.6707 20.4695 29.7358 20.286 29.7872C20.1176 29.8387 19.9553 29.8826 19.7929 29.9189C19.7717 29.9265 19.7489 29.9341 19.7201 29.9341C19.5654 29.9628 19.4182 29.9931 19.2711 30.0082C19.2574 30.0082 19.2423 30.0158 19.2271 30.0082C19.0648 30.0294 18.9116 30.037 18.7644 30.037C18.3457 30.0446 17.9544 29.978 17.5948 29.8614C17.4704 29.8251 17.3521 29.7812 17.2414 29.7297H17.2565C17.8815 29.7221 18.5657 29.5753 19.2787 29.2816C19.2787 29.2665 19.2863 29.2529 19.2863 29.2377C19.4622 28.1009 19.1755 27.1321 18.5065 26.6401C18.816 26.5887 19.1103 26.5887 19.3894 26.6477C20.3375 26.8611 20.8761 27.7331 20.8897 28.8714V28.8699Z" fill="url(#paint17_linear_4_163214)"/>
<path d="M28.0392 21.0907C27.9436 21.3616 27.8481 21.6341 27.7389 21.9051L27.7237 21.9202C27.6357 22.1548 27.5325 22.3819 27.4294 22.6105C27.4066 22.6619 27.3854 22.7134 27.3551 22.7649C27.2367 23.0222 27.1048 23.2781 26.9652 23.5354C25.9867 25.3413 24.6639 26.9853 23.1788 28.1811C23.1348 27.998 23.1045 27.7921 23.0984 27.5726C23.0757 27.2063 23.1212 26.7945 23.2168 26.3616C24.3863 25.0552 25.38 23.4915 26.0702 21.8566C26.5693 21.4827 27.0699 21.233 27.5265 21.1452V21.1376C27.7024 21.1013 27.8784 21.0861 28.0407 21.0937L28.0392 21.0907Z" fill="#A8A8AC"/>
<path d="M28.7294 17.2442C28.7294 17.5379 28.7158 17.8391 28.6854 18.1403C28.5019 18.2357 28.3092 18.3099 28.1257 18.3598C27.5007 18.5279 26.9197 18.434 26.4707 18.0737C26.6921 18.0223 26.9121 17.942 27.1336 17.824C27.1624 17.5227 27.1776 17.2291 27.1776 16.9354C27.1776 15.5336 26.862 14.4029 26.2962 13.5885C26.2674 13.5673 26.2295 13.5446 26.193 13.5294C26.1855 13.5294 26.1855 13.5218 26.1794 13.5218C26.187 13.4991 26.2006 13.4779 26.2082 13.4552C26.3174 13.213 26.4358 12.986 26.5753 12.7589C27.8996 13.4265 28.7294 14.9902 28.7294 17.2427V17.2442Z" fill="url(#paint18_linear_4_163214)"/>
<path d="M16.7271 29.427C16.6907 29.4043 16.6543 29.3831 16.624 29.3528C16.542 29.3013 16.4692 29.2347 16.3964 29.1696V29.1621H16.3888C16.3752 29.1182 16.3676 29.0803 16.36 29.0364C16.316 28.9047 16.2872 28.7654 16.2508 28.6247C16.2144 28.4415 16.1765 28.2508 16.1552 28.0525V28.0449C16.184 28.0161 16.2068 27.9859 16.2356 27.9632C16.272 28.1766 16.3236 28.3809 16.3828 28.5717C16.4783 28.8805 16.5891 29.1666 16.7286 29.4224L16.7271 29.427Z" fill="#5F5E67"/>
<path d="M26.2962 13.59C26.2674 13.5688 26.2295 13.5461 26.193 13.5309C26.1855 13.5309 26.1855 13.5234 26.1794 13.5234C26.187 13.5007 26.2006 13.4795 26.2082 13.4568C26.237 13.5007 26.2674 13.5446 26.2962 13.5885V13.59Z" fill="#5F5E67"/>
<path d="M23.8615 12.4456C26.1824 11.1543 28.2743 11.0544 29.7944 11.9354L30.3253 12.2442C28.8068 11.3632 26.7149 11.4631 24.3924 12.7544C19.6716 15.3792 15.7911 21.9338 15.7244 27.3925C15.691 30.1672 16.6482 32.126 18.2183 33.0358L17.6874 32.727C16.1173 31.8172 15.1601 29.8584 15.1935 27.0837C15.2602 21.6235 19.1406 15.0704 23.8615 12.4456Z" fill="url(#paint19_linear_4_163214)"/>
<path d="M24.3924 12.7544C29.1132 10.1295 32.8844 12.4274 32.8177 17.8875C32.7509 23.3477 28.869 29.9008 24.1497 32.5256C19.4289 35.1505 15.6577 32.8526 15.7244 27.3925C15.7911 21.9323 19.6731 15.3792 24.3924 12.7544ZM16.4996 26.9626C16.4389 31.9277 19.8688 34.0167 24.1618 31.6295C28.4549 29.2423 31.9834 23.2826 32.044 18.319C32.1047 13.3538 28.6748 11.2648 24.3818 13.652C20.0887 16.0392 16.5603 21.9989 16.4996 26.9626Z" fill="#E3E3E4"/>
</g>
<defs>
<linearGradient id="paint0_linear_4_163214" x1="24.9173" y1="26.0679" x2="17.1282" y2="12.5493" gradientUnits="userSpaceOnUse">
<stop stop-color="#2A2A2A"/>
<stop offset="0.02" stop-color="#282828"/>
<stop offset="0.23" stop-color="#202020"/>
<stop offset="0.58" stop-color="#1E1E1E"/>
<stop offset="0.64" stop-color="#1C1C1C"/>
<stop offset="1" stop-color="#1A1A1A"/>
</linearGradient>
<linearGradient id="paint1_linear_4_163214" x1="16.2629" y1="30.1445" x2="26.8087" y2="11.8404" gradientUnits="userSpaceOnUse">
<stop offset="0.23" stop-color="#383838"/>
<stop offset="0.73" stop-color="#292929"/>
<stop offset="1" stop-color="#262626"/>
</linearGradient>
<linearGradient id="paint2_linear_4_163214" x1="26.1946" y1="30.3943" x2="14.4239" y2="9.9656" gradientUnits="userSpaceOnUse">
<stop stop-color="#121212"/>
<stop offset="0.43" stop-color="#0D0D0D"/>
</linearGradient>
<linearGradient id="paint3_linear_4_163214" x1="21.3615" y1="33.063" x2="31.9073" y2="14.7574" gradientUnits="userSpaceOnUse">
<stop offset="0.23" stop-color="#383838"/>
<stop offset="0.73" stop-color="#292929"/>
<stop offset="1" stop-color="#262626"/>
</linearGradient>
<linearGradient id="paint4_linear_4_163214" x1="29.6366" y1="31.357" x2="19.7425" y2="14.1834" gradientUnits="userSpaceOnUse">
<stop stop-color="#2A2A2A"/>
<stop offset="0.02" stop-color="#282828"/>
<stop offset="0.23" stop-color="#202020"/>
<stop offset="0.58" stop-color="#1E1E1E"/>
<stop offset="0.64" stop-color="#1C1C1C"/>
<stop offset="1" stop-color="#1A1A1A"/>
</linearGradient>
<linearGradient id="paint5_linear_4_163214" x1="28.8811" y1="30.5926" x2="19.5572" y2="14.41" gradientUnits="userSpaceOnUse">
<stop offset="0.18" stop-color="#1A1A1A"/>
<stop offset="0.65" stop-color="#1D1D1D"/>
<stop offset="0.66" stop-color="#1E1E1E"/>
</linearGradient>
<linearGradient id="paint6_linear_4_163214" x1="30.2009" y1="32.0609" x2="19.6506" y2="13.7462" gradientUnits="userSpaceOnUse">
<stop offset="0.34" stop-color="#1F1F1F"/>
<stop offset="0.4" stop-color="#1D1D1D"/>
<stop offset="0.82" stop-color="#1A1A1A"/>
</linearGradient>
<linearGradient id="paint7_linear_4_163214" x1="9.02372" y1="35.0717" x2="27.4297" y2="3.12318" gradientUnits="userSpaceOnUse">
<stop stop-color="#181818"/>
<stop offset="0.27" stop-color="#262626"/>
<stop offset="0.77" stop-color="#2E2E2E"/>
</linearGradient>
<linearGradient id="paint8_linear_4_163214" x1="30.6408" y1="32.8193" x2="19.2135" y2="12.9862" gradientUnits="userSpaceOnUse">
<stop stop-color="#161616"/>
<stop offset="0.3" stop-color="#1A1A1A"/>
<stop offset="0.79" stop-color="#1D1D1D"/>
<stop offset="0.8" stop-color="#1E1E1E"/>
</linearGradient>
<linearGradient id="paint9_linear_4_163214" x1="30.2601" y1="33.8063" x2="16.9062" y2="10.6272" gradientUnits="userSpaceOnUse">
<stop stop-color="#141414"/>
<stop offset="0.44" stop-color="#1E1E1E"/>
<stop offset="0.78" stop-color="#202020"/>
<stop offset="0.98" stop-color="#282828"/>
<stop offset="1" stop-color="#2A2A2A"/>
</linearGradient>
<linearGradient id="paint10_linear_4_163214" x1="5.75027" y1="33.1811" x2="24.1547" y2="1.23565" gradientUnits="userSpaceOnUse">
<stop stop-color="#1C1C1C"/>
<stop offset="0.18" stop-color="#2B2B2B"/>
<stop offset="0.33" stop-color="#333333"/>
<stop offset="0.69" stop-color="#3D3D3D"/>
<stop offset="0.92" stop-color="#343434"/>
<stop offset="1" stop-color="#303030"/>
</linearGradient>
<linearGradient id="paint11_linear_4_163214" x1="19.6701" y1="32.7421" x2="30.7088" y2="13.5818" gradientUnits="userSpaceOnUse">
<stop stop-color="#D7D7D9"/>
<stop offset="0.19" stop-color="#E2E2E2"/>
<stop offset="0.21" stop-color="#DBDBDD"/>
<stop offset="0.29" stop-color="#CDCDD2"/>
<stop offset="0.38" stop-color="#C5C5CB"/>
<stop offset="0.53" stop-color="#C3C3CA"/>
<stop offset="0.87" stop-color="#B3B4BE"/>
<stop offset="0.88" stop-color="#A5A7B3"/>
</linearGradient>
<linearGradient id="paint12_linear_4_163214" x1="18.5536" y1="32.0912" x2="29.5923" y2="12.9309" gradientUnits="userSpaceOnUse">
<stop stop-color="#B3B3B5"/>
<stop offset="0.19" stop-color="#BEBEBE"/>
<stop offset="0.21" stop-color="#B8B8B9"/>
<stop offset="0.28" stop-color="#AAAAAE"/>
<stop offset="0.37" stop-color="#A2A2A7"/>
<stop offset="0.53" stop-color="#A0A0A6"/>
<stop offset="0.87" stop-color="#91929A"/>
<stop offset="0.88" stop-color="#84858F"/>
</linearGradient>
<linearGradient id="paint13_linear_4_163214" x1="18.2867" y1="31.1178" x2="28.8144" y2="12.8455" gradientUnits="userSpaceOnUse">
<stop stop-color="#D7D7D9"/>
<stop offset="0.19" stop-color="#E2E2E2"/>
<stop offset="0.21" stop-color="#DBDBDD"/>
<stop offset="0.29" stop-color="#CDCDD2"/>
<stop offset="0.38" stop-color="#C5C5CB"/>
<stop offset="0.53" stop-color="#C3C3CA"/>
<stop offset="0.87" stop-color="#B3B4BE"/>
<stop offset="0.88" stop-color="#A5A7B3"/>
</linearGradient>
<linearGradient id="paint14_linear_4_163214" x1="18.3882" y1="28.7185" x2="26.9032" y2="13.9391" gradientUnits="userSpaceOnUse">
<stop offset="0.07" stop-color="#EEF2F7"/>
<stop offset="0.08" stop-color="#EEF2F7"/>
<stop offset="0.16" stop-color="#EEF2F7"/>
<stop offset="0.69" stop-color="#C3C3CA"/>
<stop offset="0.88" stop-color="#B3B4BE"/>
<stop offset="0.96" stop-color="#A5A7B3"/>
</linearGradient>
<linearGradient id="paint15_linear_4_163214" x1="22.836" y1="22.9253" x2="20.8611" y2="19.4976" gradientUnits="userSpaceOnUse">
<stop stop-color="#B3B3B5"/>
<stop offset="0.19" stop-color="#BEBEBE"/>
<stop offset="0.21" stop-color="#B8B8B9"/>
<stop offset="0.28" stop-color="#AAAAAE"/>
<stop offset="0.37" stop-color="#A2A2A7"/>
<stop offset="0.53" stop-color="#A0A0A6"/>
<stop offset="0.87" stop-color="#91929A"/>
<stop offset="0.88" stop-color="#84858F"/>
</linearGradient>
<linearGradient id="paint16_linear_4_163214" x1="22.7556" y1="22.8936" x2="21.071" y2="19.9689" gradientUnits="userSpaceOnUse">
<stop offset="0.04" stop-color="#A5A7B3"/>
<stop offset="0.12" stop-color="#B3B4BE"/>
<stop offset="0.31" stop-color="#C3C3CA"/>
<stop offset="0.84" stop-color="#EEF2F7"/>
<stop offset="0.92" stop-color="#EEF2F7"/>
<stop offset="0.93" stop-color="#EEF2F7"/>
</linearGradient>
<linearGradient id="paint17_linear_4_163214" x1="18.3639" y1="30.3731" x2="20.2738" y2="27.059" gradientUnits="userSpaceOnUse">
<stop stop-color="#B3B3B5"/>
<stop offset="0.19" stop-color="#BEBEBE"/>
<stop offset="0.21" stop-color="#B8B8B9"/>
<stop offset="0.28" stop-color="#AAAAAE"/>
<stop offset="0.37" stop-color="#A2A2A7"/>
<stop offset="0.53" stop-color="#A0A0A6"/>
<stop offset="0.87" stop-color="#91929A"/>
<stop offset="0.88" stop-color="#84858F"/>
</linearGradient>
<linearGradient id="paint18_linear_4_163214" x1="26.1915" y1="17.936" x2="28.5278" y2="13.8809" gradientUnits="userSpaceOnUse">
<stop stop-color="#B3B3B5"/>
<stop offset="0.19" stop-color="#BEBEBE"/>
<stop offset="0.21" stop-color="#B8B8B9"/>
<stop offset="0.28" stop-color="#AAAAAE"/>
<stop offset="0.37" stop-color="#A2A2A7"/>
<stop offset="0.53" stop-color="#A0A0A6"/>
<stop offset="0.87" stop-color="#91929A"/>
<stop offset="0.88" stop-color="#84858F"/>
</linearGradient>
<linearGradient id="paint19_linear_4_163214" x1="14.972" y1="31.1663" x2="26.9846" y2="10.3179" gradientUnits="userSpaceOnUse">
<stop offset="0.12" stop-color="#A5A7B3"/>
<stop offset="0.13" stop-color="#B3B4BE"/>
<stop offset="0.47" stop-color="#C3C3CA"/>
<stop offset="0.57" stop-color="#E3E3E3"/>
<stop offset="0.58" stop-color="#E5E6E8"/>
<stop offset="0.63" stop-color="#EBEFF3"/>
<stop offset="0.67" stop-color="#EEF2F7"/>
<stop offset="0.74" stop-color="#ECF0F4"/>
<stop offset="0.78" stop-color="#E7E9EC"/>
<stop offset="0.81" stop-color="#E2E2E2"/>
<stop offset="1" stop-color="#D7D7D9"/>
</linearGradient>
<clipPath id="clip0_4_163214">
<rect width="34" height="38" fill="white" transform="translate(3 1)"/>
</clipPath>
</defs>
</svg>
