<svg width="44" height="44" viewBox="0 0 44 44" fill="none" xmlns="http://www.w3.org/2000/svg">
<path d="M31.9176 30.0287H26.8517C24.5285 30.0287 23.0927 28.8671 23.0927 27.0117C23.0927 25.1564 24.5285 23.9948 26.8517 23.9948H31.9176C34.2408 23.9948 35.6767 25.1564 35.6767 27.0117C35.6767 28.8671 34.2408 30.0287 31.9176 30.0287ZM22.528 23.2849V21.5264C24.5608 21.2037 25.9967 19.7678 25.9967 18.1061V17.5253H22.6087V15.7829H31.482V17.5253H28.2715V18.1061C28.2715 19.7356 29.546 20.9778 31.5627 21.3973V23.1558C29.7719 22.8332 28.1585 21.9942 27.126 20.8649C26.0612 22.1556 24.4801 22.9461 22.528 23.2849ZM33.1599 23.6721V15.6216H35.354V18.4288H37.29V20.397H35.354V23.6721H33.1599ZM26.9969 28.2863H31.7724C32.8211 28.2863 33.4825 27.7861 33.4825 27.0117C33.4825 26.2373 32.8211 25.7372 31.7724 25.7372H26.9969C25.9483 25.7372 25.2868 26.2373 25.2868 27.0117C25.2868 27.7861 25.9483 28.2863 26.9969 28.2863Z" fill="#3C3E42"/>
<path d="M8.4082 28.9316V16.0249H14.8615V28.9316H8.4082ZM16.0554 29.706V15.7022H18.1205V20.8972H19.4111V15.6216H21.4762V30.0287H19.4111V22.8655H18.1205V29.706H16.0554ZM10.4733 27.0924H12.7965V17.8641H10.4733V27.0924Z" fill="#3C3E42"/>
<path fill-rule="evenodd" clip-rule="evenodd" d="M21.7425 5.17999C21.9085 5.11774 22.0914 5.11774 22.2575 5.17999L39.8575 11.78C40.2367 11.9222 40.4288 12.3449 40.2866 12.7241C40.1444 13.1033 39.7217 13.2955 39.3425 13.1533L22 6.64983L4.65747 13.1533C4.27824 13.2955 3.85554 13.1033 3.71333 12.7241C3.57113 12.3449 3.76326 11.9222 4.14248 11.78L21.7425 5.17999Z" fill="#3C3E42"/>
<path fill-rule="evenodd" clip-rule="evenodd" d="M6.59998 36.6667C6.59998 36.2617 6.9283 35.9333 7.33331 35.9333H36.6666C37.0717 35.9333 37.4 36.2617 37.4 36.6667C37.4 37.0717 37.0717 37.4 36.6666 37.4H7.33331C6.9283 37.4 6.59998 37.0717 6.59998 36.6667Z" fill="#3C3E42"/>
</svg>
