<svg width="44" height="44" viewBox="0 0 44 44" fill="none" xmlns="http://www.w3.org/2000/svg">
<g id="&#236;&#132;&#156;&#235;&#185;&#132;&#236;&#138;&#164;/3D" clip-path="url(#clip0_1177_127281)">
<rect id="Rectangle 2749" y="13.2" width="44" height="17.6" fill="#DAC7FF"/>
<g id="event">
<path id="Vector" d="M39.9098 18.1575H41.8986V19.8295H39.9098V25.4615H41.8986V27.1335H37.9035V19.8295H36.1786V18.1575H37.9035V14.9895H39.9098V18.1575Z" fill="#3C3E42"/>
<path id="Vector_2" d="M30.1399 19.0197C30.4215 18.6677 30.7618 18.392 31.1607 18.1925C31.5597 17.9813 32.0349 17.8757 32.5863 17.8757C33.0557 17.8757 33.4839 17.9637 33.8711 18.1397C34.2583 18.3157 34.5869 18.5621 34.8567 18.8789C35.1383 19.184 35.3554 19.5536 35.5079 19.9877C35.6605 20.4101 35.7367 20.8736 35.7367 21.3781V27.1333H33.7303V21.4837C33.7303 20.9088 33.5602 20.4512 33.2199 20.1109C32.8914 19.7707 32.4631 19.6005 31.9351 19.6005C31.4071 19.6005 30.973 19.7707 30.6327 20.1109C30.3042 20.4512 30.1399 20.9088 30.1399 21.4837V27.1333H28.1335V18.1573H30.1399V19.0197Z" fill="#3C3E42"/>
<path id="Vector_3" d="M27.1222 24.4405C27.0518 24.8864 26.9052 25.2912 26.6822 25.6549C26.471 26.0187 26.1953 26.3296 25.855 26.5877C25.5148 26.8459 25.1217 27.0453 24.6758 27.1861C24.2417 27.3387 23.7724 27.4149 23.2678 27.4149C22.7046 27.4149 22.1825 27.3269 21.7014 27.1509C21.2321 26.9749 20.8214 26.7344 20.4694 26.4293C20.1292 26.1125 19.8593 25.7429 19.6598 25.3205C19.4721 24.8864 19.3782 24.4171 19.3782 23.9125V21.3781C19.3782 20.8736 19.4721 20.4101 19.6598 19.9877C19.8593 19.5536 20.1292 19.184 20.4694 18.8789C20.8214 18.5621 21.2321 18.3157 21.7014 18.1397C22.1825 17.9637 22.7046 17.8757 23.2678 17.8757C23.831 17.8757 24.3473 17.9637 24.8166 18.1397C25.2977 18.3157 25.7084 18.5621 26.0486 18.8789C26.4006 19.184 26.6705 19.5536 26.8582 19.9877C27.0577 20.4101 27.1574 20.8736 27.1574 21.3781V23.3493H21.3846V23.8597C21.3846 24.4347 21.5665 24.8923 21.9302 25.2325C22.294 25.5728 22.7398 25.7429 23.2678 25.7429C23.6902 25.7429 24.0657 25.6197 24.3942 25.3733C24.7345 25.1269 24.9692 24.816 25.0982 24.4405H27.1222ZM25.151 21.7125V21.4309C25.151 20.856 24.9692 20.3984 24.6054 20.0581C24.2417 19.7179 23.7958 19.5477 23.2678 19.5477C22.7398 19.5477 22.294 19.7179 21.9302 20.0581C21.5665 20.3984 21.3846 20.856 21.3846 21.4309V21.7125H25.151Z" fill="#3C3E42"/>
<path id="Vector_4" d="M10.5885 18.1575H12.6653L14.5661 25.4615H14.9533L16.8541 18.1575H18.9309L16.5901 27.1335H12.9293L10.5885 18.1575Z" fill="#3C3E42"/>
<path id="Vector_5" d="M10.1052 24.4405C10.0348 24.8864 9.88814 25.2912 9.66521 25.6549C9.45401 26.0187 9.17827 26.3296 8.83801 26.5877C8.49774 26.8459 8.10467 27.0453 7.65881 27.1861C7.22467 27.3387 6.75534 27.4149 6.25081 27.4149C5.68761 27.4149 5.16547 27.3269 4.68441 27.1509C4.21507 26.9749 3.80441 26.7344 3.45241 26.4293C3.11214 26.1125 2.84227 25.7429 2.64281 25.3205C2.45507 24.8864 2.36121 24.4171 2.36121 23.9125V21.3781C2.36121 20.8736 2.45507 20.4101 2.64281 19.9877C2.84227 19.5536 3.11214 19.184 3.45241 18.8789C3.80441 18.5621 4.21507 18.3157 4.68441 18.1397C5.16547 17.9637 5.68761 17.8757 6.25081 17.8757C6.81401 17.8757 7.33027 17.9637 7.79961 18.1397C8.28067 18.3157 8.69134 18.5621 9.03161 18.8789C9.38361 19.184 9.65347 19.5536 9.84121 19.9877C10.0407 20.4101 10.1404 20.8736 10.1404 21.3781V23.3493H4.36761V23.8597C4.36761 24.4347 4.54947 24.8923 4.91321 25.2325C5.27694 25.5728 5.72281 25.7429 6.25081 25.7429C6.67321 25.7429 7.04867 25.6197 7.37721 25.3733C7.71747 25.1269 7.95214 24.816 8.08121 24.4405H10.1052ZM8.13401 21.7125V21.4309C8.13401 20.856 7.95214 20.3984 7.58841 20.0581C7.22467 19.7179 6.77881 19.5477 6.25081 19.5477C5.72281 19.5477 5.27694 19.7179 4.91321 20.0581C4.54947 20.3984 4.36761 20.856 4.36761 21.4309V21.7125H8.13401Z" fill="#3C3E42"/>
</g>
</g>
<defs>
<clipPath id="clip0_1177_127281">
<rect width="44" height="44" fill="white" transform="matrix(1 0 0 -1 0 44)"/>
</clipPath>
</defs>
</svg>
