<svg width="40" height="40" viewBox="0 0 40 40" fill="none" xmlns="http://www.w3.org/2000/svg">
<path d="M15.6013 38.2044L2 30.6983V17.1244L15.6013 24.6361V38.2044Z" fill="#DDDFE2"/>
<path d="M38 25.8384L15.6013 38.2044V24.6361L38 12.2646V25.8384Z" fill="white"/>
<path d="M15.6013 24.6361L2 17.1244L24.3987 4.75288L38 12.2646L15.6013 24.6361Z" fill="url(#paint0_linear_4_163222)"/>
<path d="M15.6013 26.0574L2 18.5513V15.686L15.6013 23.1977V26.0574Z" fill="#282A2E"/>
<path d="M38 13.6858L15.6013 26.0574V23.1977L38 10.8261V13.6858Z" fill="#3C3E42"/>
<path opacity="0.5" d="M17.9622 22.9449L35.6392 13.1859V13.9106L17.9622 23.6753V22.9449Z" fill="#282A2E"/>
<path d="M35.5335 13.242V13.8544L17.9622 23.5629V23.6753L35.6392 13.9106V13.1859L35.5335 13.242Z" fill="#282A2E"/>
<path d="M15.6013 23.1978L2 15.6861L24.3987 3.31459L38 10.8263L15.6013 23.1978Z" fill="#5A5C60"/>
<path opacity="0.7" d="M21.0277 12.4949L14.7674 15.776L20 18.6638H21.7207L21.0277 12.4949Z" fill="#332C2C"/>
<path d="M3.39772 16.4615L2 16.1468V15.1861L2.8633 15.4839L3.39772 15.9671V16.4615Z" fill="#282A2E"/>
<path d="M3.39772 15.9672L2 15.1862L3.19804 13.0569L4.58989 13.8322L3.39772 15.9672Z" fill="#3C3E42"/>
<path d="M4.58993 13.8322L3.19809 13.0569L23.2124 2L24.6043 2.77533L4.58993 13.8322Z" fill="url(#paint1_linear_4_163222)"/>
<path d="M24.6042 2.7752L25.8023 3.58985L25.8081 4.08427L3.39771 16.4614V15.967L4.58987 13.8321L24.6042 2.7752Z" fill="#282A2E"/>
<path d="M26.46 5.87643V6.69671C26.46 6.85964 26.3485 7.02257 26.1253 7.14617C25.6731 7.399 24.939 7.399 24.4868 7.14617C24.2578 7.02257 24.1462 6.85402 24.1462 6.69109V5.87081C24.1462 6.03374 24.293 6.14611 24.522 6.26971C24.9742 6.52254 25.6261 6.52816 26.0783 6.28095C26.3015 6.15735 26.46 5.94947 26.4659 5.87643H26.46Z" fill="url(#paint2_linear_4_163222)"/>
<path d="M26.1194 5.42141C25.6672 5.16859 24.9331 5.16859 24.4809 5.42141C24.0287 5.67424 24.0346 6.07875 24.4809 6.33158C24.9331 6.5844 25.6672 6.5844 26.1194 6.33158C26.5716 6.07875 26.5658 5.67424 26.1194 5.42141Z" fill="url(#paint3_linear_4_163222)"/>
<path d="M22.2258 8.21355V9.03383C22.2258 9.19676 22.1142 9.35969 21.891 9.48329C21.4388 9.73612 20.7047 9.73612 20.2525 9.48329C20.0235 9.35969 19.9119 9.19114 19.9119 9.02821V8.20793C19.9119 8.37086 20.0587 8.48323 20.2878 8.60683C20.74 8.85966 21.3919 8.86528 21.8441 8.61807C22.0672 8.49447 22.2258 8.28659 22.2317 8.21355H22.2258Z" fill="url(#paint4_linear_4_163222)"/>
<path d="M21.8852 7.75855C21.433 7.50573 20.6989 7.50573 20.2467 7.75855C19.7945 8.01137 19.8004 8.41589 20.2467 8.66872C20.6989 8.92154 21.433 8.92154 21.8852 8.66872C22.3374 8.41589 22.3315 8.01137 21.8852 7.75855Z" fill="url(#paint5_linear_4_163222)"/>
<path d="M17.9973 10.5509V11.3712C17.9973 11.5341 17.8858 11.6971 17.6626 11.8207C17.2104 12.0735 16.4763 12.0735 16.0241 11.8207C15.7951 11.6971 15.6835 11.5285 15.6835 11.3656V10.5453C15.6835 10.7082 15.8303 10.8206 16.0593 10.9442C16.5115 11.197 17.1634 11.2026 17.6156 10.9554C17.8388 10.8318 17.9973 10.624 18.0032 10.5509H17.9973Z" fill="url(#paint6_linear_4_163222)"/>
<path d="M17.6568 10.0959C17.2046 9.84311 16.4705 9.84311 16.0183 10.0959C15.5661 10.3488 15.5719 10.7533 16.0183 11.0061C16.4705 11.2589 17.2046 11.2589 17.6568 11.0061C18.109 10.7533 18.1031 10.3488 17.6568 10.0959Z" fill="url(#paint7_linear_4_163222)"/>
<path d="M13.7632 12.8883V13.7086C13.7632 13.8715 13.6516 14.0344 13.4285 14.158C12.9763 14.4109 12.2422 14.4109 11.79 14.158C11.5609 14.0344 11.4493 13.8659 11.4493 13.7029V12.8827C11.4493 13.0456 11.5962 13.158 11.8252 13.2816C12.2774 13.5344 12.9293 13.54 13.3815 13.2928C13.6046 13.1692 13.7632 12.9613 13.7691 12.8883H13.7632Z" fill="url(#paint8_linear_4_163222)"/>
<path d="M13.4226 12.4331C12.9704 12.1803 12.2363 12.1803 11.7841 12.4331C11.3319 12.6859 11.3377 13.0904 11.7841 13.3432C12.2363 13.5961 12.9704 13.5961 13.4226 13.3432C13.8748 13.0904 13.8689 12.6859 13.4226 12.4331Z" fill="url(#paint9_linear_4_163222)"/>
<path d="M9.53475 15.2254V16.0457C9.53475 16.2086 9.42317 16.3715 9.2 16.4951C8.7478 16.748 8.01371 16.748 7.56151 16.4951C7.33247 16.3715 7.22089 16.203 7.22089 16.0401V15.2198C7.22089 15.3827 7.3677 15.4951 7.59674 15.6187C8.04894 15.8715 8.70082 15.8771 9.15302 15.6299C9.37619 15.5063 9.53475 15.2984 9.54062 15.2254H9.53475Z" fill="url(#paint10_linear_4_163222)"/>
<path d="M9.19414 14.7702C8.74194 14.5174 8.00784 14.5174 7.55564 14.7702C7.10344 15.023 7.10931 15.4276 7.55564 15.6804C8.00784 15.9332 8.74194 15.9332 9.19414 15.6804C9.64634 15.4276 9.64047 15.023 9.19414 14.7702Z" fill="url(#paint11_linear_4_163222)"/>
<path d="M9.07667 19.5969L7.67896 19.2823V18.3215L8.60098 18.6418L9.0708 19.0968L9.07667 19.5969Z" fill="#282A2E"/>
<path d="M9.0708 19.0966L7.67896 18.3212L8.87113 16.1863L10.2688 16.9672L9.0708 19.0966Z" fill="#3C3E42"/>
<path d="M30.2832 5.91036L31.4812 6.72502V7.21943L9.07664 19.5966L9.07077 19.0966L10.2688 16.9672L30.2832 5.91036Z" fill="#282A2E"/>
<path d="M32.9847 10.742V11.1858C32.9847 11.5229 32.7557 11.8544 32.2976 12.1072C31.3756 12.6185 29.8663 12.6185 28.9384 12.1072C28.4686 11.8488 28.2396 11.5117 28.2396 11.169V10.7251C28.2396 11.0622 28.5449 11.287 29.0089 11.5454C29.9368 12.0567 31.2758 12.0791 32.1978 11.5623C32.6559 11.3094 32.9847 10.8881 32.9847 10.7364V10.742Z" fill="url(#paint12_linear_4_163222)"/>
<path d="M32.2855 9.80372C31.3576 9.29245 29.8483 9.29245 28.9262 9.80372C28.0042 10.315 28.0101 11.1521 28.938 11.6634C29.8659 12.1747 31.3752 12.1747 32.2972 11.6634C33.2192 11.1521 33.2133 10.315 32.2855 9.80372Z" fill="#EF5552"/>
<path opacity="0.9" d="M30.3302 9.43314C29.8193 9.46685 29.3201 9.58483 28.9266 9.80395C28.0692 10.2815 28.0105 11.0287 28.7505 11.5456H30.6121L30.3302 9.43314Z" fill="#AE2B1B"/>
<path d="M32.274 8.42181V10.6298C32.274 10.8658 32.1096 11.1018 31.7925 11.2759C31.1465 11.6355 30.0894 11.6355 29.4375 11.2759C29.1086 11.0961 28.9442 10.8545 28.9442 10.6186V8.41058C28.9442 8.64655 29.1556 8.80386 29.4845 8.98365C30.1364 9.34322 31.076 9.35445 31.722 8.99488C32.045 8.8151 32.274 8.52294 32.274 8.41619V8.42181Z" fill="url(#paint13_linear_4_163222)"/>
<path d="M31.7865 7.76439C31.1346 7.40482 30.0775 7.40482 29.4315 7.76439C28.7855 8.12397 28.7855 8.70827 29.4374 9.06784C30.0892 9.42742 31.1463 9.42742 31.7923 9.06784C32.4383 8.70827 32.4383 8.12397 31.7865 7.76439Z" fill="#EF5552"/>
<path d="M21.7208 18.664L16.2356 15.6357V13.6693L21.7208 16.6976V18.664Z" fill="#282A2E"/>
<path d="M29.9368 14.1299L21.7208 18.6638V16.6974L29.9368 12.1578V14.1299Z" fill="#3C3E42"/>
<path d="M30.2832 5.91026L28.8855 5.13493L8.87115 16.1862L10.2689 16.9671L16.2356 13.6692L21.7207 16.6974L29.9367 12.1578L24.4516 9.12956L30.2832 5.91026Z" fill="url(#paint14_linear_4_163222)"/>
<path d="M18.5084 18.7372V19.181C18.5084 19.5181 18.2794 19.8496 17.8213 20.1024C16.8993 20.6137 15.39 20.6137 14.4621 20.1024C13.9923 19.844 13.7632 19.5069 13.7632 19.1642V18.7203C13.7632 19.0574 14.0686 19.2821 14.5325 19.5406C15.4604 20.0519 16.7994 20.0743 17.7215 19.5574C18.1795 19.3046 18.5084 18.8832 18.5084 18.7316V18.7372Z" fill="url(#paint15_linear_4_163222)"/>
<path d="M17.8033 17.8043C16.8754 17.2931 15.3661 17.2931 14.4441 17.8043C13.522 18.3156 13.5279 19.1527 14.4558 19.664C15.3837 20.1753 16.893 20.1753 17.815 19.664C18.737 19.1527 18.7312 18.3156 17.8033 17.8043Z" fill="#6490DD"/>
<path opacity="0.9" d="M15.848 17.4334C15.3371 17.4671 14.8379 17.5851 14.4444 17.8042C13.587 18.2818 13.5283 19.029 14.2682 19.5459H16.1299L15.848 17.4334Z" fill="#3652AE"/>
<path d="M17.7978 16.4228V18.6308C17.7978 18.8667 17.6334 19.1027 17.3163 19.2769C16.6703 19.6364 15.6132 19.6364 14.9613 19.2769C14.6324 19.0971 14.468 18.8555 14.468 18.6195V16.4115C14.468 16.6475 14.6794 16.8048 15.0083 16.9846C15.6602 17.3442 16.5998 17.3554 17.2458 16.9958C17.5688 16.816 17.7978 16.5239 17.7978 16.4171V16.4228Z" fill="url(#paint16_linear_4_163222)"/>
<path d="M17.3045 15.765C16.6526 15.4054 15.5955 15.4054 14.9495 15.765C14.3035 16.1246 14.3035 16.7089 14.9554 17.0685C15.6073 17.428 16.6644 17.428 17.3104 17.0685C17.9564 16.7089 17.9564 16.1246 17.3045 15.765Z" fill="#6490DD"/>
<path d="M10.7387 28.9511L8.72432 24.507C8.67147 24.3891 8.54227 24.316 8.48941 24.3778L6.47506 26.5971C6.4222 26.6532 6.4868 26.7993 6.59251 26.8611L10.6154 29.086C10.7211 29.1422 10.7857 29.0691 10.7328 28.9568L10.7387 28.9511Z" fill="#3C3E42"/>
<path d="M8.57158 24.8328L10.2571 28.5522C10.2571 28.5522 10.2571 28.5915 10.2336 28.5803L6.86848 26.7206C6.86848 26.7206 6.83324 26.6756 6.84499 26.6644L8.53047 24.8047C8.53047 24.8047 8.57158 24.8047 8.58332 24.8328H8.57158Z" fill="#FEC017"/>
<path d="M8.50115 27.0126C8.59511 27.0632 8.66558 27.1755 8.66558 27.2654C8.66558 27.3553 8.58924 27.3834 8.50115 27.3328C8.41306 27.2823 8.33671 27.1699 8.33671 27.08C8.33671 26.9901 8.41306 26.962 8.50115 27.0126ZM8.31909 25.653C8.31909 25.8327 8.40131 26.7598 8.50115 26.8159C8.60098 26.8721 8.6832 26.035 8.6832 25.8552C8.6832 25.6754 8.60098 25.4844 8.50115 25.4282C8.40131 25.372 8.31909 25.4732 8.31909 25.653Z" fill="#3F3535"/>
<defs>
<linearGradient id="paint0_linear_4_163222" x1="2" y1="14.6973" x2="38" y2="14.6973" gradientUnits="userSpaceOnUse">
<stop offset="0.61" stop-color="#DCDCD3"/>
<stop offset="0.62" stop-color="#ECECE2"/>
</linearGradient>
<linearGradient id="paint1_linear_4_163222" x1="3.19809" y1="7.91609" x2="24.6043" y2="7.91609" gradientUnits="userSpaceOnUse">
<stop offset="0.36" stop-color="#41444D"/>
<stop offset="0.66" stop-color="#4F525B"/>
<stop offset="0.6601" stop-color="#41424D"/>
</linearGradient>
<linearGradient id="paint2_linear_4_163222" x1="24.1403" y1="6.6012" x2="26.46" y2="6.6012" gradientUnits="userSpaceOnUse">
<stop stop-color="#9CA5B4"/>
<stop offset="1" stop-color="#D5DBEB"/>
</linearGradient>
<linearGradient id="paint3_linear_4_163222" x1="24.1403" y1="5.8765" x2="26.4601" y2="5.8765" gradientUnits="userSpaceOnUse">
<stop offset="0.61" stop-color="#D3D8DC"/>
<stop offset="0.65" stop-color="#E2E6EC"/>
</linearGradient>
<linearGradient id="paint4_linear_4_163222" x1="19.9119" y1="8.93831" x2="22.2258" y2="8.93831" gradientUnits="userSpaceOnUse">
<stop stop-color="#ABAFB2"/>
<stop offset="1" stop-color="#BFC3C7"/>
</linearGradient>
<linearGradient id="paint5_linear_4_163222" x1="19.9119" y1="8.21363" x2="22.2258" y2="8.21363" gradientUnits="userSpaceOnUse">
<stop offset="0.61" stop-color="#D3D7DC"/>
<stop offset="0.65" stop-color="#E2E7EC"/>
</linearGradient>
<linearGradient id="paint6_linear_4_163222" x1="15.6776" y1="11.2757" x2="17.9973" y2="11.2757" gradientUnits="userSpaceOnUse">
<stop stop-color="#9CA5B4"/>
<stop offset="1" stop-color="#D5DBEB"/>
</linearGradient>
<linearGradient id="paint7_linear_4_163222" x1="15.6776" y1="10.551" x2="17.9974" y2="10.551" gradientUnits="userSpaceOnUse">
<stop offset="0.61" stop-color="#D3D8DC"/>
<stop offset="0.65" stop-color="#E2E6EC"/>
</linearGradient>
<linearGradient id="paint8_linear_4_163222" x1="11.4493" y1="13.613" x2="13.7632" y2="13.613" gradientUnits="userSpaceOnUse">
<stop stop-color="#ABAEB2"/>
<stop offset="1" stop-color="#BFC3C7"/>
</linearGradient>
<linearGradient id="paint9_linear_4_163222" x1="11.4493" y1="12.8882" x2="13.7632" y2="12.8882" gradientUnits="userSpaceOnUse">
<stop offset="0.61" stop-color="#D3D7DC"/>
<stop offset="0.65" stop-color="#E2E7EC"/>
</linearGradient>
<linearGradient id="paint10_linear_4_163222" x1="7.21501" y1="15.9502" x2="9.53475" y2="15.9502" gradientUnits="userSpaceOnUse">
<stop stop-color="#9CA5B4"/>
<stop offset="1" stop-color="#D5DBEB"/>
</linearGradient>
<linearGradient id="paint11_linear_4_163222" x1="7.21502" y1="15.2253" x2="9.53476" y2="15.2253" gradientUnits="userSpaceOnUse">
<stop offset="0.61" stop-color="#D3D8DC"/>
<stop offset="0.65" stop-color="#E2E6EC"/>
</linearGradient>
<linearGradient id="paint12_linear_4_163222" x1="28.2396" y1="11.6128" x2="32.9847" y2="11.6128" gradientUnits="userSpaceOnUse">
<stop stop-color="#AB2A1A"/>
<stop offset="0.59" stop-color="#C53421"/>
<stop offset="1" stop-color="#DB3C28"/>
</linearGradient>
<linearGradient id="paint13_linear_4_163222" x1="28.9442" y1="9.97809" x2="32.274" y2="9.97809" gradientUnits="userSpaceOnUse">
<stop stop-color="#AB2A1A"/>
<stop offset="0.59" stop-color="#C53421"/>
<stop offset="1" stop-color="#DB3C28"/>
</linearGradient>
<linearGradient id="paint14_linear_4_163222" x1="8.87115" y1="11.051" x2="30.2832" y2="11.051" gradientUnits="userSpaceOnUse">
<stop offset="0.36" stop-color="#34353C"/>
<stop offset="0.66" stop-color="#4F525B"/>
<stop offset="0.6601" stop-color="#41434D"/>
</linearGradient>
<linearGradient id="paint15_linear_4_163222" x1="13.7573" y1="19.608" x2="18.5084" y2="19.608" gradientUnits="userSpaceOnUse">
<stop stop-color="#3550AB"/>
<stop offset="0.59" stop-color="#405FC5"/>
<stop offset="1" stop-color="#4A6BDB"/>
</linearGradient>
<linearGradient id="paint16_linear_4_163222" x1="14.468" y1="17.979" x2="17.7978" y2="17.979" gradientUnits="userSpaceOnUse">
<stop stop-color="#3550AB"/>
<stop offset="0.59" stop-color="#405FC5"/>
<stop offset="1" stop-color="#4A6BDB"/>
</linearGradient>
</defs>
</svg>
