<svg width="44" height="29" viewBox="0 0 44 29" fill="none" xmlns="http://www.w3.org/2000/svg">
<g id="Group 427318697">
<path id="Vector" fill-rule="evenodd" clip-rule="evenodd" d="M21.6018 0.0666504C29.0776 0.0666504 36.3269 1.04589 43.2182 2.90207L37.9639 22.465C32.7461 21.0692 27.2726 20.3238 21.6018 20.3238C15.9309 20.3238 10.472 21.0692 5.25429 22.465L0 2.90207C6.89123 1.04589 14.1259 0.0666504 21.6018 0.0666504Z" fill="#B3D7FF"/>
<path id="Vector_2" fill-rule="evenodd" clip-rule="evenodd" d="M38.892 18.9938L37.9639 22.465C32.7461 21.0692 27.2726 20.3238 21.6018 20.3238C15.9309 20.3238 10.472 21.0692 5.25429 22.465L4.31158 18.9938C9.89472 17.8099 15.6752 17.196 21.6018 17.196C27.5284 17.196 33.3308 17.8172 38.892 18.9938Z" fill="#007AFF"/>
<path id="Vector_3" fill-rule="evenodd" clip-rule="evenodd" d="M39.9442 10.5096L40.7262 10.7288L39.7104 14.4338L37.8177 13.9223L38.5119 11.328C38.6946 10.7069 39.3304 10.3488 39.9516 10.5096H39.9442Z" fill="#454B5E"/>
<path id="Vector_4" fill-rule="evenodd" clip-rule="evenodd" d="M37.5108 11.6567L32.7681 25.8776C32.7534 25.9287 32.7315 26.0018 32.7169 26.0749C32.4611 27.003 33.0092 27.9603 33.9519 28.2161C34.88 28.4718 35.8446 27.9238 36.1004 26.9811C36.115 26.9299 36.1369 26.8568 36.1516 26.7837L39.2208 12.1243C39.3451 11.6493 39.0747 11.1597 38.5997 11.0355C38.1247 10.9113 37.635 11.1816 37.5108 11.6567Z" fill="#595F72"/>
<path id="Vector_5" fill-rule="evenodd" clip-rule="evenodd" d="M34.6534 25.6C35.143 25.7242 35.4354 26.2358 35.3111 26.7254C35.165 27.215 34.6534 27.5073 34.1638 27.3758C33.6742 27.2296 33.3819 26.74 33.5061 26.2284C33.6523 25.7388 34.1638 25.4465 34.6534 25.5927V25.6ZM34.5292 26.0896C34.7484 26.1408 34.8727 26.36 34.8215 26.6011C34.7484 26.8204 34.5292 26.9446 34.31 26.8935C34.0761 26.8423 33.9446 26.6011 34.003 26.3819C34.0761 26.1627 34.2953 26.0165 34.5292 26.0896Z" fill="#454B5E"/>
<path id="Vector_6" fill-rule="evenodd" clip-rule="evenodd" d="M38.4535 11.5252C38.6727 11.5764 38.7969 11.7956 38.7458 12.0148C38.6946 12.2341 38.4754 12.3583 38.2562 12.2852C38.0369 12.2341 37.9127 12.0148 37.9638 11.7956C38.0369 11.5983 38.2562 11.4668 38.4535 11.5252Z" fill="#454B5E"/>
<path id="Vector_7" fill-rule="evenodd" clip-rule="evenodd" d="M43.5105 1.87896C43.3131 1.82781 43.0939 1.95204 43.0355 2.14935L37.4742 22.6769C37.4231 22.8742 37.5473 23.0934 37.7446 23.1519C37.9419 23.203 38.1612 23.0788 38.2196 22.8815L43.7808 2.35397C43.832 2.15666 43.7078 1.93742 43.5105 1.87896Z" fill="#595F72"/>
</g>
</svg>
