<svg width="24" height="24" viewBox="0 0 24 24" fill="none" xmlns="http://www.w3.org/2000/svg">
<path d="M19.7905 17.0776L13.1822 10.4293C13.8357 8.74894 13.4726 6.77635 12.0929 5.38823C10.7852 4.07263 8.88885 3.70465 7.25185 4.23097C6.98734 4.31602 6.92649 4.64711 7.12237 4.84417L9.56142 7.29801C9.7165 7.45402 9.7165 7.70597 9.56142 7.86199L7.94361 9.48961C7.78847 9.64569 7.5364 9.64714 7.37948 9.49285L4.86115 7.01684C4.66719 6.82614 4.34374 6.88136 4.25384 7.13808C3.67486 8.79136 4.09685 10.7135 5.41198 12.0366C6.79173 13.4247 8.75243 13.79 10.4227 13.1325L17.031 19.7808C17.3214 20.0731 17.7571 20.0731 18.0476 19.7808L19.7178 18.1005C20.0809 17.8082 20.0809 17.2968 19.7905 17.0776Z" fill="#AFAFAF"/>
</svg>
